<mxfile host="app.diagrams.net" agent="Mozilla/5.0 (Windows NT 10.0; Win64; x64) AppleWebKit/537.36 (KHTML, like Gecko) Chrome/138.0.0.0 Safari/537.36" version="28.0.7">
  <diagram name="第 1 页" id="PnVYgENbXCtdVhun3Uj9">
    <mxGraphModel dx="788" dy="469" grid="1" gridSize="10" guides="1" tooltips="1" connect="1" arrows="1" fold="1" page="1" pageScale="1" pageWidth="827" pageHeight="1169" math="0" shadow="0">
      <root>
        <mxCell id="0" />
        <mxCell id="1" parent="0" />
        <mxCell id="sMdf8q2byq05eDScM7gP-1" value="" style="swimlane;startSize=0;fillStyle=auto;gradientColor=default;" vertex="1" parent="1">
          <mxGeometry x="10" y="40" width="840" height="440" as="geometry">
            <mxRectangle x="150" y="20" width="50" height="40" as="alternateBounds" />
          </mxGeometry>
        </mxCell>
        <mxCell id="sMdf8q2byq05eDScM7gP-2" value="" style="rounded=0;whiteSpace=wrap;html=1;" vertex="1" parent="sMdf8q2byq05eDScM7gP-1">
          <mxGeometry x="180" width="660" height="130" as="geometry" />
        </mxCell>
        <mxCell id="sMdf8q2byq05eDScM7gP-21" value="" style="rounded=0;whiteSpace=wrap;html=1;" vertex="1" parent="sMdf8q2byq05eDScM7gP-1">
          <mxGeometry width="180" height="440" as="geometry" />
        </mxCell>
        <mxCell id="sMdf8q2byq05eDScM7gP-3" value="&lt;div style=&quot;&quot;&gt;&lt;font face=&quot;Times New Roman&quot;&gt;&lt;span style=&quot;font-size: 14px;&quot;&gt;&lt;b&gt;Monitor the Hot Loading Performance of the Database&lt;/b&gt;&lt;/span&gt;&lt;/font&gt;&lt;/div&gt;" style="text;html=1;align=center;verticalAlign=middle;whiteSpace=wrap;rounded=0;" vertex="1" parent="sMdf8q2byq05eDScM7gP-1">
          <mxGeometry width="180" height="60" as="geometry" />
        </mxCell>
        <mxCell id="sMdf8q2byq05eDScM7gP-24" value="&lt;span style=&quot;font-size: 10px;&quot;&gt;connect&lt;/span&gt;" style="rounded=1;whiteSpace=wrap;html=1;fillColor=#eeeeee;strokeColor=#36393d;" vertex="1" parent="sMdf8q2byq05eDScM7gP-1">
          <mxGeometry x="15" y="360" width="50" height="20" as="geometry" />
        </mxCell>
        <mxCell id="sMdf8q2byq05eDScM7gP-25" value="&lt;font style=&quot;font-size: 10px;&quot;&gt;disconnect&lt;/font&gt;" style="rounded=1;whiteSpace=wrap;html=1;fillColor=#f5f5f5;strokeColor=#666666;gradientColor=#b3b3b3;" vertex="1" parent="sMdf8q2byq05eDScM7gP-1">
          <mxGeometry x="100" y="360" width="60" height="20" as="geometry" />
        </mxCell>
        <mxCell id="sMdf8q2byq05eDScM7gP-27" value="" style="endArrow=none;html=1;rounded=0;exitX=0.006;exitY=0.082;exitDx=0;exitDy=0;exitPerimeter=0;entryX=0.995;entryY=0.082;entryDx=0;entryDy=0;entryPerimeter=0;" edge="1" parent="sMdf8q2byq05eDScM7gP-1">
          <mxGeometry width="50" height="50" relative="1" as="geometry">
            <mxPoint x="4.085620730620576e-14" y="60.00000000000004" as="sourcePoint" />
            <mxPoint x="178.0199999999999" y="60.00000000000004" as="targetPoint" />
          </mxGeometry>
        </mxCell>
        <mxCell id="sMdf8q2byq05eDScM7gP-32" value="&lt;div&gt;&lt;b&gt;Parameter Configuration&lt;/b&gt;&lt;/div&gt;" style="text;html=1;align=center;verticalAlign=middle;whiteSpace=wrap;rounded=0;" vertex="1" parent="sMdf8q2byq05eDScM7gP-1">
          <mxGeometry x="180" width="170" height="40" as="geometry" />
        </mxCell>
        <mxCell id="sMdf8q2byq05eDScM7gP-53" value="" style="rounded=0;whiteSpace=wrap;html=1;" vertex="1" parent="sMdf8q2byq05eDScM7gP-1">
          <mxGeometry x="180" y="130" width="660" height="310" as="geometry" />
        </mxCell>
        <mxCell id="sMdf8q2byq05eDScM7gP-54" value="&lt;b&gt;TPCC Test Database&lt;/b&gt;" style="text;html=1;align=center;verticalAlign=middle;whiteSpace=wrap;rounded=0;" vertex="1" parent="sMdf8q2byq05eDScM7gP-1">
          <mxGeometry x="180" y="135" width="180" height="30" as="geometry" />
        </mxCell>
        <mxCell id="sMdf8q2byq05eDScM7gP-55" value="" style="shape=image;imageAspect=0;aspect=fixed;verticalLabelPosition=bottom;verticalAlign=top;image=data:image/png,iVBORw0KGgoAAAANSUhEUgAABZQAAAGrCAYAAABXMBJaAAAAAXNSR0IArs4c6QAAAARnQU1BAACxjwv8YQUAAAAJcEhZcwAAEnQAABJ0Ad5mH3gAAP+lSURBVHhe7L0HeFVVuv/v/3fn/ubOvXP7/TmO48zoOGMbFbujI/YyqIgFEUGkiYoNRLGgCAgWQMWGKMUOCnYHVAQBAQWUEkoCoSQQAiGFQOgKM+//+azchYftyUlCCjlrfz/Ps58kJ2ftvfbq67ve9a79TKTkk08+sQMOOMC6d+9uvXv31qUr1levXr3szjvvtAsvvNCuu+4669evny5dunTp0qVLly5dunTp0qVLl64YXftFBVSxJ3/961/t17/+ta1Zsyb6r7Tib3/7m33//ff297//PfovIarMrl27bOXKlfbYY4/Zhx9+GP23aABQx6nr1HkhRNjs3LnTtctCiLChnlPfhRBhozm7EPEglDm7BOVKCEVQprBu3Lgx7Qus2LdIUG74UMfXr19v3333XfRfQojAoF/fsmVL9GMhRGBQz6nvQoiwYfzOOF5zdiHChjpOv45Ol85IUK4ECcpC/IAE5YaPBGUh4oMEZSHigQRlIeKBBGUh4oEE5ZgQiqCs7TOiNpCg3PAJZfuMEKJyqOtyeSFE+FDP033SKYSoHM3ZhYgHoczZJShXQiiCMgPR7du3q3MSNUKCcsOHOr5t2zaJTELEgB07dkhkEiIGUM+p70KIsGH8zjhec3YhwoY6jj6X7nN2CcqVEIqgLJcXojaQoNzwkcsLIeKDXF4IEQ/k8kKIeCCXF0LEA7m8CABvZs6Kf0XXBx98EIygXFZWps5J1AgJyg0f6viGDRvSvnMSQlQO/frWrVujHwshAoN6Tn0XQoQN43fG8ZqzCxE21HH69XSfs8daUCbzMjIy7KuvvrKpU6cmvfr37x+EoIx4ro5J1BQJyukBdV1b5YQIH9V1IeKBxvFCxAPVdSHiQwjj+FgLyvgneuedd2zYsGE2ZMiQpNett94ahKCs1U5RG0hQbvhQx0tLS+XyQogYIAtlIeKBLJSFiAeM3xnHa84uRLjs3LnTNm/e7C5+T2diLSjTYM+dO9dZKE+bNi3phYXyQQcdlPaCMg6/161bl/ZOv8W+RYJyw4c8KigocHVeCBE2+FnctGlT9GMhRGBQz6nvQoiwYfzOOF5zdiHCxR++GYKbylgLylWBQ/l+9atfpb2gLAtlURtIUG74yEJZiPjAQV1aPBIifKjnOoBTiPCRhbIQ8QBXF/TrslAOnL0VlDdt2mxr1hTYmjXrbM2awpRXUdF6t0KxN/5Tqtrp7K0/JrbYFRUVufev6OI7xAPrCb7LqirW0FhS8D8vcPF5NKy/SkpKdscP4buwsND9jOJXbdO94qUrEpTTgxD8MQkhKod6rrouRPiorgsRD/Z2zi6ESD9CmLNLUK6EvRWUn3hiiB14YCM78MDj7MADG9uBB55V4XXBBW3dcxCVqwsuO26//XYn2KYCC2V8r1W3gxozZoxdcMEFzo90RRff+eabb+yZZ56xiy++2I466ig79dRTrW3btjZq1CgXt5tuuskaNWr0o7D+atWqlRORiV/37t3ttNNOcz+jfP7553bcccfZ8uXLJSrvAyQoN3yoQyFsnxFCVA4LuXszdhBCpBfUc7m3ESJ8tKtYiHhAHUefS/c5uwTlSthbQbl378G2336X2H77DbH99htm++03vMLr2GOH2RtvvLFXB+t4gRWL4FRQUDdu3Fjtzmn16tX25ZdfunTguvDCC+2KK65wBxb6z958800n/nbo0MFefPFFe++99+ytt96yPn36WMeOHd3/xo8fb5999pn7fr9+/ezQQw+1Xr16ue/x2cyZM53Jf05OjhOX+f8111xjWVlZe1Syjz/+2A444ABbsmRJ2le+dESCcsOHOs7uALm8ECJ86Ne1DV6I8KGeU9+FEGHD+J1xfHXn7EKI9II6Tr+e7pqWBOVK2HtB+SXbb7/2tt9+cyq9jjlmor366qvVnhQuWLDAibX/+Z//aY8++qh98cUXNnHiRCfwIvg+/vjj7ieHDrLSiWBdXFzshMDhw4fb0KFDbcCAAe7nrFmzXNjBgwfbwIEDnXCLxXAUBOJu3bo5oddXgvvvv99uuOEGGzFihK1atcq5peDzb7/91h555BE744wzbOzYsbsPE+E5xx9/vEvbxANGiN/bb79tN954ozVt2tQJ1MQzMV0kKO9bJCg3fNg2gyWTDvMQInzob7V4JET4UM/lL12I8PGHdaX7NnghRGqo4/Tr6T5nl6BcCQ1ZUMZy+LrrrrOf//zn1r59e3v66aed+4vzzjvPWfdeffXVduWVV9qDDz7ovkvnhBDbsmVL95127dpZ8+bNrXHjxk4k5nsIxk2aNLFLL73Uvv766x8V8ERBGUF33rx57hl9+/ZN6nYDVxhXXXWVE74XL17sPqtIUCZ8586d7eGHH7bnn3/eWTBff/31e3xHgvK+RYJyw4fOibohywYhwgfXT9F+WggRHtRzuXoTInwYvzOOl6AsRNiEMmeXoFwJDVlQBuKHD2LiN3nyZCcin3766TZhwgTbvHmzvf/++86XMUItFscIweecc461adPGib35+flO8D322GOdtTIH3iE+I9ri/zjqhiNRUOZ/I0eOdJ/xMxl5eXnOSrpZs2Y2Y8YM91kyQZmKxHdPPvlke/31123p0qX2yiuv2NFHH+0ETF/RJCjvWyQoN3zk8kKI+CCXF0LEA7m8ECIeyOWFEPFALi9iQroJyrfccovddtttznzeb33Hevjyyy+3ZcuWWWZmphN3cZGxY8cO5woDX8ddu3a1Tz75xAmGiMwIvojE0cFroqDM4SBPPfWUe95HH320x/c8RUVF9s4777hD9ogfJBOUsU7Gx/K5557rvocVBqI4AjOiOK46QILyvkWCcsNHgrIQ8UGCshDxQIKyEPFAgrIQ8UCCckxIN0H5vvvucwJxIs8++6xzgYFP44ULFzqXF88884wTnCnEiMv4QUboBQ74O+mkk5ygjOCcSKKgTHyxIsbn8ejRo/f4nod4vfzyy3bJJZc4FxqQTFDGIpm4H3LIIe7gv9atW9tFF11kv//9753Y7d1lSFDet0hQbviEsn1GCFE51HW5vBAifKjnGvcKET5yeSFEPAhlzi5BuRLSTVDGV/FDDz20x3fwrYwrDPwdIyjjd/m5555zhbisrMwd3tejRw93qB8gKGMZjMuLVIIyFs5Tp051YvWTTz6ZNP6LFi2yLl26ON/OPBuSCcocHHj++efbrbfe6nwo9+/f31lWEw4fz9OmTXPfk6C8b5Gg3PDRoXxCxAf6YfWFQoQP9Zz6LoQIGx3KJ0Q80KF8MaFmgvJVtt9+L9t++w1PeR1zzNBaE5Q7derkDtvD1QSrHXz+wAMPWIsWLSwnJ8e5vPCCMuC2AvGWA/kSBeVTTz21UkGZws93eSZuLyZNmuS+z3MZ9OIT+Y033rCLL77Y/cQ/M0QFZd4btxiNGjVyorc/xRofzVhVH3HEEfbWW2858RsRU4LyvkOCcsNHLi+EiA9yeSFEPJDLCyHigVxeCBEP5PIiJuytoPzEE2/YgQf+xQ488CI78MCz7cADz6rwOvfc65zLiOgBeFUBv8e/+93vbMGCBc4HMZbIiMHvvfeeE/5wN8GhfHfffbfzQ4zriNoSlD2IwTyD+37++ee2atUqZ438/PPPW6tWraxDhw5O4PYrrVFBmThhJX3eeee57yXCQYJYKPfu3dvmzJnjnrX//vs7y2gE67Vr17oLsZrBdrqv8DR0JCg3fOicqLfp3jkJISqHhda9GTsIIdIL6jn1XQgRNozfvYGWECJcqOP06+k+Z5egXAl7Kyhv2rTV1qwp+t+rMOVVVFTiBop7s7Vl5syZzucwLipwdYF7iQsuuMAuu+wyZ/F7+umnO9cRCMCseGLZW9uCMttycEnRs2dPJwofddRR7tlNmjSxfv36WW5urrNYrkhQHjt2rDtMkDhErS94Pm48EKXHjBnjBOV/+Id/sIMOOsgOPvhg53OZi+cNGzas2vkkqocE5fSADmpv2hMhRHqhui5EPKCeS2ASInxU14WIDyGM4yUoV8LeCsr1BYLrrFmznEiLlTOiLIfbcQAe1sJTpkyxZcuW2ebNm92FYIsbiRUrVrjwO3futOXLlzuhGQtmQPxFIM7Pz//RiklGRoZzm8G9EmF1JTs721kOYynNs/GLzLOjzsZ5zpdffumEa/6HdfH8+fPdwXzEJxH+Jm64wiA+WCPjRxkRmmvcuHHuGj9+vHPpgbgt6g4Jyg0fOiUWiqJ1SQgRHixGy6+qEOFDPdduBCHCh/E74/h0F5mEEKmhjrPDPt3n7BKUK6GhC8qJ4EMZ1xAckBfFb5/hJ4VWK59ib5Cg3PCRD2Uh4oN8KAsRD+RDWYh4IB/KQsQD+VCOCekkKM+ePdteeukldwBeFERkvwKCKKhVT7E3SFBu+MhCWYj4QL/uD7IVQoQL9VyLR0KEjyyUhYgHslCOCekkKONKAvcQuLCIIn9MojaQoJwehOCPSQhROdRz1XUhwkd1XYh4oDm7EPEhhDm7BOVKSCdBmQLJCkeyVQ5M6fFzrA5K1AQJyg0f6rh3byOECBusmHR2gBDhQz2nvgshwsa7qdScXYiwoY6jz6X7nF2CciWkk6CcCgoqPlrUOYmaIEG54SMfykLEB/lQFiIeyIeyEPFAPpSFiAfyoRwT9lZQxu3EZ599Zh9//HGl19SpU23dunVOrKsu+fn59v7771dqocS98b+2tyb1FPQFCxbY22+/bU899ZQ9/vjj9sILL7iDAOn0UkHHOGfOHFu8eLEVFhba/PnznSDJe7MC68GyetmyZS5NMjIy9rhHbZObm2uffvqpewfe5bnnnrP33nvPPX9vIOz06dOjH+9TOBGc93z11VedCJwK0j47O9syMzOtqKgo+u/dSFBu+FDHaQ/2pj0RQqQX9OtaPBIifKjn8pcuRPgwfmccv7dzdiFEekAdp19P9zm7BOVK2FtB+YO337YbmzWz+y+6KOXV9aKLrM8ttzhxFQGwuhCuSZMmKUVAYAUEUXhvOqetW7fawoULrV+/fnbjjTday5Yt7aqrrrJrrrnGbr75Zps4ceIewnAUTPkfffRR++STT5zQ/vrrr9u//Mu/WMeOHW3u3Lm7XXRQoRDhb7jhBnvttdeit6kVeBZx4PDCrl27Wps2bax58+buJ+82ePBg965RKvNn1bp1a+vfv3/04ypRV37xSPcpU6bY2WefbV9++WX033vAROWbb76x4cOH21dffRX9924kKDd8KEvU9VTlVQgRBv6gXSFE2FDPk7m0E0KERU3m7EKI9CGUObsE5UrYW0H5+d697fL99rO3K7me2G8/e+CYY5wVaXW3rbJ6+dZbb7n4YT2MbzVExJKSEicwFxQUuJ+bN292Yi2iL8IhPznAL/E7PJuwWBDzGd9h4EpB56C/Hj162Pnnn29vvPGGrV692j0D62TEym7dutmMGTOi0XNwj7y8PLv++utt1qxZLi4Iyj/5yU/swAMPtFdeecXFBZIJyjyfOJeWlrq4cSXGjXjzP8R4v8qDxXSi1TTvxcV3+G6fPn3s4osvtoceesiJx8QJS96BAwfaJZdcYp07d3b39W5CeB73I128pTf3waqc+JDuiOteUK4szjQa5B1pSLy4Dz+j+FN+fZ7wfcR9P8Dg/8SPuPE/vsPF+xDPqKBMvPl+4j1IE55BGD7r1auXjRgxokIrGAnKDR+5vBAiPsjlhRDxQC4vhIgHcnkhRDyQy4uYUBNBudV++9msSq639tvPBuyloPzBBx/YeeedZz/96U/tz3/+sxM0sQS+7rrrnPh71FFHuf8PGTJktwiMSwcE4Msuu8xZNh977LFOXH355ZedSHjOOedYo0aN7O6773ZCMsIizznmmGNs7NixTnxGVPQVYOTIkdalSxfndiMZOTk59uyzz9rzzz/vRFuES8L8z//8j7Vt29ZZBePiApIJynSqs2fPtltvvdVOP/10J47eddddu+OGOI0AjFUt4ihW0Lw/9/CQJr1797ZJkya5e/EuWCKvWrVq9wqwF2+ffPJJlzYI3fPmzXNC+h133GHdu3e3Vq1auTQcP3683XTTTXbiiSda48aNbcCAAbvTvypxJg1Jr2uvvdb69u3rrJsR6qPgguLpp5929yCfsAofPXq0i6e3tL7vvvucdTVW47wXF248eLeooEza9uzZ0958800nKgNuOnD5Qf6QN7g0IQ1Ix2RIUG74SFAWIj5IUBYiHkhQFiIeSFAWIh5IUI4Jeysov9i7t7Xdbz+bU8k1BivlvRSU8Z+MP+P999/f3n33XXvnnXecJTACJNa2iJZY4yK4IupiFYuoiYDcrFkz5/YBcffCCy90F9/FFzBhESZ5dwThF1980d2T3xO32yEuYl27aNGiCtMHYbV9+/Y2YcIEZ7GLaDlq1Cg7+OCDnTBLfLEURhyNCso8C/ESIRfLWayx+RwBG3cVPBexG+HWC6K85ymnnGJ/+ctfdscX4free+91FtKIqYjsxCdZ5f3iiy+c4E6aIbZeccUVzmp50KBBTpzFtzP/u/322929EHg7dOhgRx55pBOUqxJnrIiHDh1qf/jDH+zOO++0MWPGOLE9EdIKv87cZ9iwYfbRRx/Z/fff794DIZfnkJeXXnqpix/vT1rccsstLj58Pyoo49ICtyW33Xabuz8QN9IbAZn0//bbb+2JJ55w6ZgMCcoNn1C2zwghKoe6LpcXQoQP9TzZuFUIERZyeSFEPAhlzp4WgjICFtaxzzzzjBPEsOrkQtTC+hZxEMvRumBvBeWXeve29kkE5OhVE0EZiN+vf/1rFz9cUCCeYsmKdSsWu7jCQLTkcyxjORgPsZXPsGLlM0RIBGbigPUrYRA7EZtnzpzphFKsdr1riupAnM466yzLyspy8fGC8u9//3v3fERTno+4HRWUWZ3l4LwLLrjAieO4jSC+iN5YByP+IpI+/PDD7h6IpPfcc48Tv7Ha9YI41ruUFQ6cwxqX/yF0J4N4YnF80UUXOTEWoR1fz1grI9CSRgi2iLw8jzhiRYyITTpVJc4IylhIk2+IyYjy0YaE90I8Rrjm+6xWIwojTGPt7AVl4ofAvXTpUrdgQD3hfUnPqKBMPLDoJj9wo0FekB5YSGPBzmSFRQren2cnQ4Jyw4fOSYfyCREP6FclMgkRPtTzvTlrRQiRXjB+16F8QoSPd9ea7nP2Bi8oIwgigmFVefXVV1vTpk2d+Hn55ZfblVde6dwGII7iNmHt2rXR4DUm3QRlrGuxZE0Ei1PSCrEUC1kOocOtAYUYM3tcQhCGw/UAgfOkk05ygjJC5COPPOJE6ooEZe8jONrxUTnGjRvn3DUgWCKaekEZwZr8QhR98MEHnUiLP2MEUS8oY7VLPLHCxaKX9+NCqCU830XcRDzFxQe/40KD98PFBYsPWOp26tTJpS/uPliI4FkcBpgMhFmeee655zoxlvKGUOzdCOAKBItqrJeBAT7xJo58rypxJq+w+j766KPd79w7mnZYPiOOIzx7KB8PPPCAK/u4rCDtsKDGotyvcLGQwOIB4aKCMrD4csIJJ7g4J7r08II2AxhEZqzKo3ECCcoNH7m8ECI+yOWFEPFALi+EiAdyeSFEPJDLi3oCsQyLUgRCREAskVmhx0KTxnbq1KlORMUqE/+vtU26CcoIjgjEiSAu4ld4zpw5TkjkdyyDEQwRHREHERaxnoVEQZk0xzIcURIBOFFk5HfyAncb06ZN+9HqCuIklrleUOb7UUEZEFuxAsZPMc/kdwRlxFF8BPNdLIDx78xFXM444wxnzYyVMM8/7LDDnI9k3F/wLliut2jRwlkvI1gjpBIHxGdEYgThZB21t3hGlOWdSCvcSfBdyh6+kxFcvSDNO2NBjOCOoFyVOCM647Oaz0jrZMItPpwRrzkgz8P3iBtiNeI+1uZYF/u8rIqgjNsP0oXyhhsP0gpra58W3IfywHeSnSYuQbnhQ16ywJPunZMQonJo571PfCFEuFDPkx3gLIQIC8bvjOOTzVOFEOFAHadfT/c5e4MXlNu1a+fEZAQ0VuwSrTn5HUETYZnvIXzWNukmKOMSAWHWQxohdGLJivUtbh+8oAy4uOD/+E/2oiMiJ2Iowm9eXp4TeXFRwcF3iXEk7RFxsRxHdI3Cs7FQ/uMf/7hbPE4mKGPhPHz4cDv88MOd9S9W54kWytwfQZjvETdcZXz++edOyOUZxPvMM890742fYhYWcCVxxBFHOGtl4oZ1Nu+KwMpz8H+cbGDO54i0+KbG3QeLGd5KmBUkLLkRqH1a0QBg9R21UE4VZ94bwRihmf8nAyEeYToxXUk7BGAslNkegYVyYl76g/qoCxUJyvyfBQes+ikTLEAgMnuoY4jFvHcyJCinB8ms3oUQ4aG6LkQ8oJ5LYBIifFTXhYgPIYzjG7ygjH9Ytv4jCCYDQQ+RlMPdEt0D1BZ7Kyg/17u3XbTffvZ8JdcD++1nd9aCoIxgibjLIW74SMaCFsEXK9ubb77ZiYwImaRjVQTlU0891Qm/WOVyUBsuEEhjXDbgixdxFWtexF/+h3CcDERuxF6saRErkwnKCKE8A1cUJ598svs+gjKrs4iyp512mr3xxhtOfEXMRHxGOMfXM/ATNxnHH3+88/2LEIwl8KGHHuqew8F43Mv7CKZM8S5Y5nI/0ol3ws0E98EfM5a+8+fP30NQxuKag+94ZwRnwrDQgdUwbiTwPVyVOCMqVyYoU6Z5F9KWvCXtcN+BhTRCM+V+bwRlLLo5gK9x48ZukQC3IMTZQ9x4D/w0J0OCcsOHTol6ne6rnUKIysFqUX5VhQgf6rl2IwgRPozfGcenu8gkhKgY6jfaDfpfsl3h6USDF5SxGMWaku3/+J1F9HvnnXfcheUsYhr/x3IT8bK22VtB+aPRo63LFVfYgEsvTXn15ucddzjXHXszKeSdcU+BFTc+exFlEWR79uzpRD98T5M++KH2h/JVR1BGbMQCHIEWYZp7cW8siREdcTWCcIolczIQnbH4RdhEhE4mKANCJ6J0o0aN7E9/+pMTlKlc3BeXJlw8EwthfCLjCgX/2sB3sE4nn7AO5u8ZM2Y4wfbII4+08ePH73bH4UX2Xr16uXfhJ4IwP3k/xFr8cWMBjOVxoqDMPbg374+wSxjSGMtoxGyE2KrEuSqCMvlC+cYnNBbRPAehm2fimsQfylddQdkL0ZQZ4kyZSXRVgl9l0hB3GMmQoNzwYaWTOktZ12BUiLCRD2Uh4oF8KAsRPt6dpHwoCxE23l1pCG4qG7ygjEUpfmSxKMX6FlEN4Q8rU8Q2xEp8xmJ1SeNb2+ytoIzohtiLEFvZhfiJJfDedBy4sUAMxrIWIRCrVkRGXBmQZrfffrvzMYxIjMCIH2G+h6UxeD/HWPEioAIFG7EYEdJPVBFYcdmAoEl6Y6XLYW6Ei/pWTgSBk+fh05g04T7cl7xDRE6EgTJiLaIu1tZABUPkxE0D1rr4V0bMRJj1AjziK2mImI7YSpz5P1bE3CuZdXtGRoZboMDnMqI4YUlHBFgsQLAIxjKYe0Str3kWfpQRbimHpB/pzk+oLM6kLwcgsgiSanLA80lf0gphG2Ea62fi562tE/OSz8iLp59+2sWZ7+Ezm+fw08PCwnnnnefiRp4mljvKyrPPPutE+GRIUG74yEJZiPhAf0e/KoQIG+q5Fo+ECB9ZKAsRPrJQ3gcgFiPQYqGMVSUiM4e54f+VQRZCV100vHsrKO8LSB8slREZo+wrf0yImriOwEIXa+V9EQfxA6Q/ojM+n7HqRvAHv0qGqI4rkIqEbgnK6UEI/piEEJVDPVddFyJ8VNeFiAf7as4uhKh/Qpizp42gTGJ7/2Eo+VxY12JJWpeZEIqgjFiIhXJ9d1DkDdbX+MHGujbRX6+of/zBhEcddZTzB+0t2ygfuEPBuhmr+YrKiQTlhg95F8L2GSFE5dCmMxYSQoQN9Zz6LoQIG78NvqK5mBAiDKjj6HPpPmdPC0EZVwwvvPCCs3Jt3ry5XXnlle7CVQEuHTjQju3/dUE6CcorVqxwLgy8v9xEKKhYne6LzgnRH+tkDpqrC7ckomrg7gR/19QhXHTgCsQvxlA+ODBwzpw5e/i2jiJBueFDHaeeUe+EEGEjH8pCxAP5UBYiHjB+lw9lIcKHOk6/LkG5jpk5c6azuMVfL1au+IPFjy9b8znwjMP6EJXxh4tgWdukk6DMYJND3oqLi6P/ckIg1qh1ac1dETwTywoqjCyp9h2UC6yTOcQP4TjR0oXygZ9tDk1M5cdHgnLDx9e3xMMWhRBhQr+uxSMhwod6Ln/pQoQP43fG8ftizi6EqD+o4951bzrT4AVlXDhwKBl+XbOzs50oyaCKhMdEnMPP8AXLgX2vv/56NHiNSSdBORWsgLD6oc5J1AQJyg0f6jh1XZYNQoQPC4DpPhAVQlQO9TzVgr8QIgw0ZxciHoQyZ2/wgnKbNm2sb9++FW7pJCMQmNu3b2+DBg2K/rvGhCIo70uXFyIcJCg3fOTyQoj4IJcXQsQDubwQIh7I5YUQ8UAuL+oJ3Fl069bNZs+eHf2Xw/vnRXgeMmRI9N81RoKyED8gQbnhI0FZiPggQVmIeCBBWYh4IEFZiHggQbmeGD9+vBOUr7rqKuvSpYs9+uij1r9/f3fhR/nWW2+1yy+/3H2O+4vaJhRBWdtnRG0gQbnhE8r2GSFE5VDX5fJCiPChnqf7pFMIUTmaswsRD0KZszd4QbmkpMSJygjG3bt3t/vvv9/uuusudxjffffd5/4eMGCAs1JOPGSstghFUN6Xh/KJcJCg3PDRoXxCxIcdO3ZIZBIiBlDPqe9CiLDRoXxCxAMdylfPcADfnDlzbOLEiU7I+vjjj23KlCmWmZnpBlgo+3XR8IYiKMvlhagNJCg3fOTyQoj4IJcXQsQDubwQIh7I5YUQ8UAuL+oRGlYSu7Cw0NauXbv7KigosKKiIic219XJxwjKv/zlL23x4sW2YcOGtL2Ki4stLy/PSktLf/Q/XbqqerFjYNGiRdavXz/76KOPotVFNADonMirdO+chBCVw/hn69at0Y+FEIFBPae+CyHChvE743gJykKEDXWcfj3d5+xpISjPnDnTubc47bTT7NBDD7WDDz7YXUcccYSdd9559sgjj9iKFSuiwWoFBOV//dd/tVtuucXuueeetL1wF4KbEH5G/6dLV1Uvyg8+zTt37ux2CYiGSV3t2BBCNCxU14WIB9RzCUxChI/quhDxIYRxfIMXlBGtEJO7du1qL7zwgo0aNco++OAD9/no0aPt6aefduLWQw89ZNOnT48GrzEIyv/1X/9lw4cPt/feey9tr/fff9+lGxe/R/+vS1d1LlzPrFq1KlpdRAOATgl/8nW1a0MI0XDAalF+VYUIH+q5diMIET6M3xnHp7vIJIRIDXUcd1bpPmdv8IIyVpFdunSxTz75xPLz83cnOmo+Ayssk9l6f91119mIESOiwWsMgvKBBx5oc+fOdX6U0/VavXq15ebmujT0V/Q7unRV9QrB30+oyIeyEPFBPpSFiAfyoSxEPJAPZSHigXwo1xPt27e3Xr16OV/JyfDiSbt27eyZZ56J/rvGICj/+te/diJaOoMIv3nzZveTg9W06ilEmMhCWYj4gMjECdFCiLChnmvxSIjwkYWyEPFAFsr1RI8ePZy7CyyUEZURj/0BYfyOpe3YsWOtQ4cO9uqrr0aD15hQBGXvj0mdkxDho7ouRDygnquuCxE+qutCxAP5UBYiHoSizzV4QRlXExwCduKJJ9qFF15oN9xwgxOY77jjDrv++uvt3HPPtUaNGtmzzz5rOTk50eA1JhRBGVN6f4pkuhdaIUTF0DGx4CaXF0KED1ZM27Zti34shAgM6jn1XQgRNozfGcdLVBYiXNDjEvW5dKbBC8q4acjMzHQHyQ0aNMgef/xx69Onjz388MM2YMAAd1DfuHHjnJhcF5OqkARlOicJykKEjXcDxAE+qutChI18KAsRD+RDWYjwYdzO+F0+lIUIGy8oe30unWnwgrKHA/iWLVtm8+bNsxkzZtjMmTNtwYIFtmrVKpcJdWUuHoqgjN9k/K/Jf7IQYUP9ZnGNui6ECBv6de1GECJ8qOfyly5E+DB+Zxyv+boQ4UL9TtTn0pm0EJRZpUM8/uKLL5w1Mj6TuT799FObMmWKZWVl1ZmFTiiCMoK7rJOFCB+/4inLBiHCxx+0K4QIG+p5uh/cI4SoHM3ZhYgHoczZG7ygjFCMcNy5c2c76aST7JBDDrHf/va3dvDBB9thhx1mjRs3tu7du9vs2bPl8iIFFFa2yqV7gRVCpMa7vJDVohDhI5cXQsQDubwQIh4wfpfLCyHChzpOvy6XF3XM8OHDrWPHju5gPoTlhQsXWm5uruXl5Tnfyu+++647qI8L8be2kaAshEgnJCgLER8kKAsRDyQoCxEPJCgLEQ8kKNcTt956q913332WkZFhpaWlrpH1/pL5vaioyP3v+uuvtyFDhkSDp4QD/wjDIX8PPvhg0qtNmzZ21FFH2dKlS91WM/yckPGcyEg8/ACPn/zN5/zN97yI6wvKvgxL2vnOqbpha/JchVVYha3fsDj3p130/harE7Ymz1VYhVXY+g9bXFzs/t6bsDV5rsIqrMLWb9iSkhL32d6ErclzFVZhFbZ+wzJnp77vTdiaPFdhFVZh6zcsc3bG8ek+Z2/wgnKnTp2sR48etnLlyui/HPgUw1q5bdu29txzz0X/nRISAV/MI0eOtNdeey3pdc8999jhhx9uK1ascM8iw0lgDglE1OYe/M1P/uZz/uZ7fJ/fufZ1WAoDBZaCUd2wNXmuwiqswtZvWBbKfOdU3bA1ea7CKqzC1n9YFor996sbtibPVViFVdj6DcvEk4nb3oStyXMVVmEVtn7DMmf3gnJ1w9bkuQqrsApbv2GZs2MEtmPHjmqHrclzaztsgxeUBw0aZHfeeacNHjzYvvzyS/v222+dv2SuWbNm2YQJE+zZZ5+1O+64wz788MNo8BoTissLCqoXlIUQ4UIdl8sLIeKBtyIQQoQN9Zz6LoQIG8bvcnkhRPhQx9Hn0OnSmQYvKC9fvty5pDjllFPsrLPOslatWjk3FFzNmzd3h/JxWN/rr79u69atiwavMaEIyuqchIgH1HEsmdiKIoQIGyyZsB4QQoQN9Zz6LoQIG78VXnN2IcImFCOwBi8o47eYAVRWVpaNGTPG+Tzu37+/DRw40IYNG+ZcVuAOY9OmTe67tU0ogjIm6+qYhIgH1HXqvBAibFTXhYgHGscLEQ9U14WIDyGM4xu8oOxBucfHCP6S8Weck5Nj+fn5TtXHh0ddZUQogjJiO9vl6iqdhBANA+p4XS2wCSEaFlgtpvtWOSFE5VDPtRtBiPBh/M44XnN2IcKGOo4+l+5z9rQQlLFAxhL5mWeesX79+lnfvn3d9dhjjzmLZfwo47y+LghFUPanMmrFU4iwCWX7jBCicuRDWYh4IB/KQsQDuakUIh5Qx+nX091NZYMXlLFExj/ybbfdZldffbU1bdrUmjVrZpdffrldeeWVdu2117pD+z7++GNbu3ZtNHiNCUVQloWyEPFAFspCxAd/ErMQImz8yetCiLCRhbIQ8UAWyvUEvpI5gK937942d+5cZ4nMti8SntW7qVOnWrdu3axly5b29ttvR4PXmFAEZfljEiI+hOCPSQhROdRz1XUhwkd1XYh4oDm7EPEhhDl7gxeU27Vr58Tk4uJitwUkMdH5HXGZk1Dbt2/vXGLUNqEIypjSc7ihOighwoY6TpuY7ttnhBCVgxXTtm3boh8LIQKDek59F0KEDeN3xvGaswsRNtRx9Ll0n7M3eEG5c+fOds8991hWVlb0Xw4ygP9df/31Nnjw4Oi/a0xIgrJ8KAsRPvKhLER8kA9lIeKBfCgLEQ/kQ1mIeCAfyvXEm2++6Xwk33333fbiiy/a6NGj7Z133nHXyJEj7bnnnnP/79Gjh02ePDkavMaEIijv2rXL+V9Ld5N6IURqqONYMlHnhRBhQ7+uxSMhwod6Ln/pQoQP43fG8ZqzCxE21HH69XSfszd4QTk/P99GjBjhLJBbtWplt9xyi918883OcvnGG2+01q1bW9u2be2TTz5xq3m1TSiCMisgrH6ocxIibKjj1HVZNggRPpwnke4DUSFE5VDP0/3gHiFE5WjOLkQ8CGXO3uAFZQ9iMRbIWCgPHTrUhg8fbu+++67NnDlztzVeXTS8oQjKcnkhRDyQywsh4oNcXggRD+TyQoh4IJcXQsQDubyoZ0hwDuDbunWrG1SVlJTY2rVrraioqE5X8SQoCyHSCQnKQsQHCcpCxAMJykLEAwnKQsQDCcr1xFtvvWWTJk1y27xI9MLCQnf4Hi4wmjRpYpdddpndf//9NmfOnDrxLRaKoKztM0LEg1C2zwghKoe6LpcXQoQP9TzdJ51CiMrRnF2IeBDKnL3BC8o33XSTPfXUU261jtX5YcOG7fah/OCDDzoxuVOnTvbEE0/Y3Llzo8FrTCiCsg7lEyIe6FA+IeIDO7ckMgkRPtRz6rsQImx0KJ8Q8UCH8tUTTZs2tQceeMAJyri3+Mtf/mK9evWyb7/91mXAhg0b7J133nEH87366qvR4DUmFEFZLi+EiAdyeSFEfJDLCyHigVxeCBEP5PJCiHgglxf1BIJyjx493Kp8QUGB/fGPf3QiLwmPGwwu/teqVSsbMGBANHiNCUlQLisrU+ckROBQx1loS/fOSQhROfTrnC0hhAgb6jn1XQgRNozfGcdrzi5E2FDH6dfTfc6eFoJy165dne9kLJTPP/98Z5FMQwsIyjk5OXbFFVdIUE4BJvXqmISIB9R1bZUTInxU14WIBxrHCxEPVNeFiA8hjOMbvKB866232jnnnGMtWrSwZs2a2W9+8xtnjTxhwgTbtGmTzZgxwx3Qd8MNN9gnn3wSDV5jQhGUEd7ZLpfuBVYIkRrqOG0jdV4IETZYLcqvqhDhQz3XbgQhwofxO+N4zdmFCBvqOPpcus/ZG7ygPHHiRHvhhRds4MCB1rdvX7vrrrvsscces5kzZzr/Qp9//rl1797d3nvvPcvPz48GrzGhCMryoSxEPJAPZSHig3woCxEP5ENZiHggH8pCxAP5UK5nUPBZnUfYXb16tfM3wupdZmamu+rK11AogrIslIWIB7JQFiI+0K9zQLEQImyo51o8EiJ8ZKEsRDyQhXI9sWvXLteoYn2cnZ3tDubbvHnzjxIekbm4uHiPz2qDUARl+WMSIj6E4I9JCFE51HPVdSHCR3VdiHigObsQ8SGEOXuDF5QRinF3cdJJJzlh9+STT7Znn33Wli1btsf38KP8xBNP7PFZbRCKoIwpPVbd6qCECBvqODs20n37jBCiclhw37ZtW/RjIURgUM+p70KIsGH8Xlc7r4UQDQfqOPpcus/ZG7ygPHjwYHcwX58+fezdd9+15557zq677jp76qmnLC8vb/f3mjZtar17994jbG0QkqAsH8pChI98KAsRH+RDWYh4IB/KQsQD+VAWIh7Ih3I9ceONN9rdd9/t/CTjQ3nVqlXWv39/u/322+2VV17Z/T0JyqnBdQj+19LdpF4IkRrqOJZM1HkhRNjQr2vxSIjwoZ7LX7oQ4cP4nXG85uxChA11nH493efsDV5QxpUFQrHf+kHCL1myxH2G2Lx48WKn6ktQTg1pRzqpcxIibKjj1HVZNggRPpwnke4DUSFE5VDPo+fHCCHCQ3N2IeJBKHP2Bi8o33PPPdatWzebOHGiO3SPwRSJj9CLoHzXXXfZihUr7KKLLpKgnAK5vBAiHsjlhRDxQS4vhIgHcnkhRDyQywsh4oFcXtQTU6dOtQ4dOtjRRx9t7dq1s9zc3N3O6t9//31r3LixNWnSxPbff38JyimQoCxEPJCgLER8kKAsRDyQoCxEPJCgLEQ8kKBcT5DIX331lQ0dOtSeeeYZW7169W7T8MLCQvviiy/cAX0dO3a00aNHR4PXmFAEZW2fESIehLJ9RghROdR1ubwQInyo5+k+6RRCVI7m7ELEg1Dm7A1eUAYO41u3bp3zl7xp06Y9Jk+4wMjOzrZp06Y51xe1TSiCsg7lEyIe6FA+IeID4yOJTEKED/Wc+i6ECBsdyidEPIjloXxxPBAiFEFZLi+EiAdyeSFEfJDLCyHigVxeCBEP5PJCiHgQC5cX3gybRg0LYfwX5+XluRVyPkNRD72xC0lQLisrCz6/hIg71HF8zKd75ySEqBz69a1bt0Y/FkIEBvWc+i6ECBvG74zjNWcXImyo4/Tr6T5nTykoIxhnZmZa+/bt7fjjj3dX586dbfLkye6AvM8++yz4wU0ogjKLA+qYhIgH1HVtlRMifFTXhYgHGscLEQ9U14WIDyGM41MKyvgm7tmzp916663uULw77rjDOnXqZDk5OXbvvffanXfeaePHj48GC4pQBGVclbBdjp/pXmiFEBVD/cbXfLqvdgohKgerRflVFSJ8qOfajSBE+DB+Zxyv+boQ4UL9TtTn0pmUgvLUqVPt/PPPt/fff98KCgrsueees1tuucW9+JdffmktWrSwwYMHR4MFRSiCst8+o1NjhQgb70OZyafquhBhIx/KQsQD+VAWInwYt3vXorJSFiJcvGvhENxUphSUJ0yYYCeeeKJlZWU59xfPP/+8E5RxFl9SUmItW7a0J554IhosKEIRlGWhLEQ8kIWyEPGBfp3xmRAibKjnWjwSInxkoSxE+MTGQnn69OnWpEkTGzVqlC1dutQGDBhgHTt2tPz8fOfqok2bNjZs2LBosKAIRVCWPyYh4kMI/piEEJVDPVddFyJ8VNeFiAeaswsRH0KYs6cUlHFz8frrr9vJJ5/s3FucffbZduyxx1rbtm3tmGOOsV69etmCBQuiwYIiFEGZ1U4OUFQHJUTYUMdD2D4jhKgcrJi2bdsW/VgIERjUc+q7ECJs/DZ4zdmFCBvqOPpcus/ZUwrKuLZASP3oo4+c/+S7777bubx49NFH7bXXXrP58+e7RAiZkARlfK+pcxIibLwPZdpvIUTYyIeyEPFAPpSFiAeM3+VDWYjwoY7TrwctKOfm5torr7xixcXFzuXFjBkzbNq0aTZv3jzX0I0ePdq++uqraLCgCEVQ3rVrl/O/lu4m9aJidu36u61b972tWYPvrV3Rf4uYQB3Hkok6L4QIG/p1LR4JET7Uc/lLFyJ8GL8zjtecXYiwoY7Tr6f7nD2poJydnW2TJk2yxx57zLm4eOONN5ywGr2aN29ugwcPjgYPilAEZVZAWP1Q5xQuW7b8zV57rcSeeabIPvhgg61YsSP6lSqzc+ffraxsl7v4XaQP1HHquiwbhAgfDvJI94GoEKJyqOfpfnCPEKJyNGcXIh6EMmdPKig/+eST1rhxY/vFL35h//zP/2wHHHCAHXTQQU5YTbyaNm1qH374YTR4UIQiKMvlRTiQhd9993dnkZw41igo+N6OPTbLfv7zDGvUKMsefnitrV+/y32/uhQX77RJkzbZxImbLDt7u23YkFxY5vnEY9u2v7mfYt8jlxdCxAe5vBAiHsjlhRDxQC4vhIgHQbu84NCHwsJCGzdunF199dWWmZnpBNXohSuM0A+DkaAsGhrr1++0mTO32OrV39uOHT+IuLi6OOigBfa73y20gw9eaIceusjat1/pROXqMnnyZjvyyEz7xS8W2AEHLLC7715ty5f/2OKZ569e/Z2ziOb5Yt8jQVmI+CBBWYh4IEFZiHggQVmIeBC0oOzhhFH8Jaf7S9aEUARlbZ9JfzIzt9tTTxXaVVfl2EUXLbPLL19hQ4bg33yHbd78N/vyy822//7zrWPHlfbYYwXWtm2u/eY3C61z5zwbPLjIpk/fYiUllYvLubnf2WOPrbP/+I8Mu/LKFfarXy2wSy5Zbp988uOJDGLykCFFdsYZ2TZiRImtXRvftqKhEMr2GSFE5VDX5fJCiPChnsd5PiZEXNCcXYh4EMqcPaWgnJeXZyNGjEh5zZ07NxosKEIRlHUoX/rz+uvr7cILl9kRR2Ray5a5dvzxi+3cc5fa888X2bx52+yVV0rsv/4rw554Yp3Nn7/NPvpoozVrtsJOPz3bGjfOdsLyX/+6pyicl/edffXVZvvmmy3OrQVuKz75pMyaN8+xo4/OcpbHiNdnnpnthOMoiNw337zKfv7zeXbFFSvs88/Lol8R9YwO5RMiPuzYsUMikxAxgHpOfRdChI0O5RMiHgR9KJ9n/vz5duONN+5x3XDDDXbdddfZ2WefbRdccIG9+eab0WBBEYqgLJcX6c899+TbCScstmuuybEJEzbZI48U2GGHLbKrrlphr75aYn37Fti//3uGO5gPi2X8ICMOP/DAGjvttGznX5l7eDhwb9So9c4tBqLw8OHF7r5858QTF9sNN6xyFs133rnaWSD37PnjOjB79la77LLl9rOfzXOuMfr1K3AuOarLwoXbbNGicl/NombI5YUQ8UEuL4SIB3J5IUQ8kMsLIeJBLFxe8IJYICdeM2fOdAfxtW7d2l0ffPBBNFhQhCQol5WVqXNKU7AcbtUqx1kaY5HswSoYsbdbt3y76aZV9p//meGskKOL2rjGwMoYMdofrvf111vs2mtz7J//eZ79v/833/7t3+a5w/wOOWSRE67feqvUtmz5mw0cuM49F1ca3JcDAfGdTJymT99sJ5+82AnZ//f/znVuOD77rKxaB/TxXQRtLKi5n6gZ1HHcFW3b9p1bWNi0SXVeiFChX9+6dWv0YyFEYFDPqe9CiLBhzs44XnN2IcKGOk6/HrSgzEuySha92IZRUlJi11xzjQ0cODAaLChCEZQxqVfHlJ4guHLgHe4uLr54uX388Q8WKl26rLY//WmJE4sRlrEsnjJl848EZUReLInPO2+prVjxnROVsTw+6qhMa9as/J5du5ZbIh92WKZdf32us3CmyIwaVepcayAWIybjHgPhd9Wq75xFM4f/8b9TT13i3HG0bbvS8vPx61m5qMx38MPMu51yyhLn61nUHOr68uXb7YUXipzfbSFEmFDXtS1WiPDROF6IeKC6LkR8CGEcn1JQrgi/pfryyy+3Rx99NPrvoAhFUN65c6fbLpfuBTaOYA2MSIxwjNCLf2TP008XOhH4F79YYL/+9UJr0mSZzZr14+3P2dk7nAuLk05abO+8s8FGjy61P/95iROZ33tvg5WW7rIlS7bbV19tsUmTNllGxrbdlsyTJ292bjXOOSfbZszYYi1b5ti11+Y6/8rjxm20//mf+U7YfvHFYhc/ROpOnVa5e1YGAvWcOVvdO3D4X7duq6Nf2YPJkzfZsGHFNnZs1bZ9bty4y1lic0ghcXzuuSJbsOCH9AsR6vimTZvsvfeKXb7hD7ugYKeluXsmIUQSsFqUX1Uhwod6rt0IQoQPc3bG8ZqzCxE21HH0Oep8OpNSUK7oUL6XXnrJevToYZdeeqn7O2RCEZTlQzl9wW3BSy8V2x//mOkE15KSHxodDt67+OJl9pOfzHVuJ3BLgT/iKLg9ePDBNXbMMeV+lK+8coVza/Hww2tt3brU2yyWLt1hN964yj3/oYfW2C9/ucAJ2L17r3W+m//jPzKsf/8CJ9QiTuOG4+CDFzrRuqgodQO5ffvf7NNPy5zQjR/mFi1ynJuN6BgKS2biiVX16acvcT+rwuLF2+2uu1bbKacsdpbUf/nLMhsxomSP7/B+CNXLlu3YLaKnM37B7/HH85zfbNyVsAjx/ffp/25CiD2RD2Uh4oF8KAsRD+RDWYh4EAsfyhzK16lTpx9d7du3dwfyPfDAA/bNN99EgwVFKIKyLJTTFw6qu+uufCfoPvpowR6iJyIuLib222+O/du/ZTiRd8WK5NZqWOfiI9lbNOOmYty4yv3xYeWLCP3f/53h/CXjK5nnYaXcs+da++//nm+vv15ihYU7nZuMl18ucX6YsY7F+jgViMeI0gjd3PPss5c6gTcq7G7d+jd7++1SJ4L/wz/MtYsuWmYFBXu61UAwJQ4zZ25x4vCmTbucdfXRR2e5cLgD4SeWyomMHLne2rVbaSNGFLv4JIM8qOh/DQ1voXzbbblO/McVCVbnWLpXBAsO5B3fURMhRPpAv84J0UKIsKGea/FIiPCRhbIQ8SAWFso4hEcwrugqLS2NBgmOUARl+WNKXxD6mjZdbmefnW2vvFKyh4jqxd7/83/m2H/9V4azvkVoTcaYMaXOWhVBFlH40UfXWU7Od9GvJaVv3wIXhuf4n7jgwGUGB/rhS7msrNynAiLyVVfl2EEHLXQHBEbF4UQQfQcMWGeHH57p7oml8vvvb3DvgMsMLJgptvhZPv/8pe6eP/95hhOHEZgRmgExeeXK75w4jGuOnj3X2DffbHVuOTioEEEesf3885c5C2pcbTBOI2589xe/mG+tWuXuYf3NPRGSiQtW1LNns7W8PBzP3bbtbz96N6zJSQfiXZvgroLncf/oM5Oxc+ffrHnzFS6vjj8+y959t9SFTwZCOa5OcIWCRTdxr40xLOWUdNrbe5Hv69fvdGWc/EoneG+uqvgRryrcqyp5L+IFfbsmnUKEj+q6EPFAc3Yh4kPwPpQrOpTPX3Fo7EIRlDGl5xTJOORZaCBocthds2YrfuQ7mOx88slCJ+pGhd0oU6dudj6OERl/85uF9sknnCpatQZs+PBiO+KIRfZP/zTXWSkjXvO8X/96gR1wwALLzNy++15r135vQ4cWO8vlhx5a6/w3VwSCbffu+Xb00ZnOF/MJJ5S75Ljjjjy7/fY8F0fcZnAwIM/p3HmV8wmM1TFuLwgP8+Ztc+G4x89+NtdZYvfqtdZZdCMWv/76ehs7tsxZc59zzlJ3sCAiJX6jO3Vaaf/8z/OcmL1u3Q+CclbWdhcP0v7AAxe4tMM1BkLhG2+sd+49sIROBNckjzxSYJ9/Xrnld3UgXrg34f65uakXARCTly8vsfPPz3IiPZbthEOMTgZ5S5ocdNACu+CCpU4490J9TWARgEWMvb0XYnLbtrkuH2fNSm3p3tCgfPDuHKZZW+DypaoLQCI+YMXEQclCiLChnlPfhRBhw5wdoz7N2YUIG+o4+lzQLi94wa+//tp69+5tXbp0sVtvvfVH17hx46LB0gYyLyMjw73jtGnTkl5PPPGEHXroobZy5UqX6ZikczAGgjqrCdyDv/nJ33zO33yP7/M7174M69/V+1CuTthUz/V8802ZDRiwxp55pjAhdcu37FQUtibPjVPYsrIdNmfOFvvTnxbavffm2pw5m38U9oMPSuzSS7Ps1FMXWnY2FqblloxYtSY+Nytriz3++Fr74x8z7M47cywrC7+6yZ8bjfO775ZY06ZL7dhjM+ypp/BjvNh+85sMO+KIeS5ua9awyOTjvN0yMjbaeedl2g03LLeJE8vLnY8z17p1Wy0/f5sTDRFqmzRZbBddlGlnnpnpxOU//3mhNW680F5+udBWrdphTz2Vb8ceO99GjSpxn7VoscRatMjebVE8blyptWix1I48cpF16LDMzj9/iXPpcc01K+z00xfanDkbLTd3s/Xtu8ouvjjLRo0qdELntGkbrFOnZfbLXyKyL7CMjDLbvHm7e++pU0vtvPMWubQ97rhMO++8Jdav3yqbMqX8QEPijJ/iuXM32d/+hruNbdalS46df36mPfzwnm41KsrfaDpHywbXp58WW5cuK6xly6VOKG/ffrm9+mqBZWeXu7BJDAvffbfLvvlmtZ155kL77/+eY+eem2VDhhT9SFDm/UePLrTWrZe69LrwwmyX5rfcstwWLdqaMs5RonGePr3UHnxwpV177VL77LMyW7due5XCJtaFVau22FFHLbJLLlliH320fo8wb71VZA8/nOd+JuLDRq9k6Rwl1ftGw0bj7GFRBR/mt92W4+rYxIkbKg2b6rke2tj77suzO+5YZXl5W2zbtsrD1uS5Ctvww3q8D+XqhK3JcxW2fsJGqU7YmjxXYRtmWPA+lKsbtibPVViFVdj6DQv83/tQrk7YmjxXYRVWYes3rB/beR/K1Qlbk+fWRdiUgvLChQudaIzP5HvvvdcJy3369LGHH3549zVlypRosLQBf2Rjx461kSNH2muvvZb06t69ux122GGWk5Nju3btconLKctYCpDIJKI/ZZ2/+Zy/+R7f53eufRkW+NwLytUJm+q5nrffXufEtSuvXO4EUMQ1/8yKwtbkuXEKu2bNFvv44w121lkL7Pnn8yw3t/z7iWEXLCizwYNX2YMP5lhp6U4namF9i6ic+NzCwq02efJ669VrhU2eXGSlpeUicLLnRuM8Y8ZG69cv3zp0WGyzZ5dYp045dvzx+OedZ61bL7aSkvLGx8eroGCT9eyJCJplL71UYIWFP/yP+L7++lp77bU1tnTpFrvwwqXWqhUH7S11QvF//Mc8O/nkeXbiiXPt6afXWEbGZnvwwRXWpMlCmz69zL79dqO79yWXZNrcuVucMDpyZKE1bZplrVrl2EcfFVibNsudX+YTTlhk7dotttzcMtuwYYuNGLHaWrXKssceW2llZTvtww8L7frrF9tvfzvX/ud/MmzcuHW2bt1ml+5vvLHOzjgDAX2l9ey52q6/frldd91iu//+HCc+n3POQmvbdrH175/nfFlPn77RWrXKtt/9bq41b77UVq/ettvlQUX5G03naNmYPXujPfBArl1+eab16LHCOnRYbi1aZNkNNyyxwYPzndi+eXP5dwkLW7fusjFjVtmJJy6wQw/loMMsJ8jjXmTTpu9s2zb8qf/NLVR06pTt3uGJJ/LtrbeK7aGHytOZ31evLr9vRXHeuvU727KFDmjnHnGeMKHE7rsvxy68cIGdccZ8u+++fFuwYOPue23f/p3l5m6xLVvKO9NoeeY9Nm7cYnPmlNovf4nVeoYNG7bGtmz53rUtxcXb7K67VtiJJ8631q2X2bJl+J76IZ0Ju3TpRnvssdU2cWKxrV2L/+gfpzOW3Js2bXcXv1c3j3jOrFklNnNmqWVmbrLCwu1OtH/xxWK3CHHllZn28strk4aNvu/69ZttxYoyF4/E5/K+69dvt0GD8uykkxbaaadl2tSpRbZxY+p2o6I4R5+rsOkb1sPv1Q1bk+cqbN2H5e9t276zrKxNlp292fXVVQ1bk+cqbMMN6/u3vQlbk+cqrMIqbP2G9ePivQlbk+cqrMIqbP2GhURBuTpha/LcugibUlCeMGGCHX300TZ06FBnybtqFdZReZafn7/7woo5XUFxxzr5888/t88++yzp1a9fP1koV/Bcz1NPrbFGjRba2WcvtuzsclEEUoWtyXPjFHblyq02dCiH6c23V19da8XF5d9PDLtx4w5bsmSjffPNBvvuO/y2lvsGjlooc5WUbLXMzI1WVobYuavC50bjvHbtdvv66002ZkyBrV+/1QYOXGtnnZVlJ5+MtfMy27ABIbs8LBdWyl98UWwtWy6xDh1W2Mcfr9/dAGFhfMUV2XbttUuc9e0xx2Ta9dcvsUGDVtkDD6yyQw9daNddl20nnzzfHnwwzz76qNSuuw6L5EybPXuTi8uIEWucRTbuGjiEcNAg/CNnWf/+BbZy5Sbr2nWV/frXC+13v1tgvXrlWkHBVtuyZbt98EGhtWuX7YRfrJuff36NE6L/8If5Tsh+5pnVlpOz2WbP3mwPPLDaTj11vk2btt6++WazE9TPPHORey6+o/v3X2233rrUiYf4Z+a66KIs+8Uv8Fucae+9V7jbb3FV03nr1u9t3brvbNGiMisr22JPPrnWLrtsiXXuvNTmz9/orlGjCuymm7LtyisX21NPrbP33iuyjz4qsoULtzgfzwjHTz+9yv70p0wnQrZsudgJvBs37rTPPiuxd98tdn6q+/RZY2ecsdCefDLPCfubN++0GTPW2wUXZNrdd+fZ1KkbnFhdUrLNFizYauPHr7eZMzc4oRwh+/33C+3NN9faO+8U26RJG23x4jKbN2+j3XBDrl100WK76qosa9Ik0846i0MBS1zer1+/xVmvDxiwyj79tNxXdrQ8k1ZFRVtt3Lhi23//DPv1r+c6UX35ct4Pq/L1dtVVi+3AA+fZ8ccvsieeyLO1a79zZZ6wLAaMGrXOuWS56aYVNn16ibt3YjqvW7fDZs3aZO+9t87y8zc5q26s9bdu3b67Qy0u3m6rV29xP6P1d+PG723q1PXWrdsKu/nmZXbvvTluAWLRou3WokWOHXvsAjvppPnWs+eqH4WNvi9lYOHCDfbkk6ud//H168v/t2MHbTaLHkW737dRo0VOXC8t3Zay3YiWq2TPrSjs5s3fOXcl5HV29ibbuLHcvVVVwtbkuRWFpd5StoqLv3OLGORPVcPW5LkNPayH79CWVydsTZ5bl2G3bfveVq7cvLsvq07Ymjy3IYVlhwx90McfF7l2r2/flW6xsipha/JchW3YYcGP2aobtibPVViFVdj6DQv89N+tTtiaPFdhFVZh6zesr+vBWyh/8cUXdtpppznrXAJw07gRkg9lLyjXNrfckufEm1NOWWITJ26q9QPJ4gw+UzkQ79//PcP5ZcWytCHw7rsb3CF5uL24++7lTlBOBn6Qf//7RXbttcutqGizbdmy1e6+e5Xz4YwF8eOPF7iyg7j89tuFTuhs126lOyCO8nTttTn22GMFzn9z8+ZZzuUH4FsZ38g33rjK+ZXGt/IJJ5Qf6IeI+9hj6+yoozLdNWTID/6Dv/xys7Vpk+sO98P/MeH//OdsO/VULKMzrGPHVc5lAffHZQZxX7mShvNvNmxYsXM5cfDBC53/ZHw7v/pqoXP58dvfll9YbR9ySIYdcsgiu+mmVbZ69fdO4MWvNXlX2aFqCHncu0ePfFu0aKM1b77MjjtuofXqtWqP72GRfdppC5yf6l/8YoHzHX3nnfmuvCBCYlV93XXL7eKLlzkL8KuvXuF8WyOEE+Z3v1vo3o3DDfEL7S2p8dPLZ+Qtz8CqfcqUTda+/Ur7wx8WWcuWufbqqyX27LNFLh1Is5//fJ4de2yW9e271rUFHLCIqPr880V26615Lm7kbVnZVsvKKnM+kf/t3zLsjDOyXZlO5mPZ++HmQMX99ptjl1663B2MSFo+9VShc4vi488CBGlG2mGZj6h7ww2r3DMOPXSRPf30Wtu4sdx62B/yOH58mV19dY4dfvgiW7oUFyd/dwsMK1dut6KicuGadBk1ar37yf+JJwdF4qZl2rTN1rJljiu7++/PYkSGHX88LlDWOX/b1Nd/+Zd5Lr3ZMZCq60REQwD/13+d59KZ8kcYyhfl9cILl7l44uMaf9g337zKxaMieL+qHgZIvP7XIGY3eXnf2QsvFLtDHfv3X2ezZrHY8OM8qgwWNyry0V7+XE42Lj9okjrr04mf5DPpzT2oQ/36Fbh6vmpV+Yp5VSAduC/pyH1ChHcsLNzgLNyT5bk/eJRyn/h/PuczyjJtU2XtEr7qCwt3uu+TX6nKc03AVzyHrbZunevagDoYrjR4WGR7+eUS57ufNoz2k36yorok4oN3eSGECBsEHO/yQggRLomCcjqTUlD+9ttvrXXr1vbSSy85y2QJyulLXQrKiEc//elcJ3ZgMdpQRM8Q4NA4Dp9DbPrgA/Iv+o19A4faIfYedtgiGziwwAlAyZg+fbNdc02OKxtPP73OicpXXrnMHQz4y18ucELhz342z268caV9/fVmJwAhWiAmXXzxcidsIrL913/Nt65d82zx4u2774sgecEFy9yhhIiDjRtnW0ZGuRjHwgaCMGLxN99sdYIgILhyUB+iKtbMCJJnn73UCZAcynfmmdn21Vdb3IT+9NOz7aKLljkhhaYPAfqtt0rtySfXOfGRvFi0aJtz6fCTn8x1V8eOuXbXXaudCPi73y2yAQPWOVGORYHhw0vcAYWpxBv8DV911QonpJ5yymLnhqNFixU2bdqeB/Hgs/r55wudmHzuuUvds3h/xNYVK4hTlnXrluNE7SZNltuf/rTEiahnn53t6uo//dM8J3y+9lqJOzjOi00IlYjsiP39++c7C3KEZL6LSI7VNwIqz0XQRTDmGaQdIiriMs9jwQGBd/ToUvvVrxbYAw/k2/z5ZTZxYokdf3yW/eM/znXx4BBARNsoWJ174RlB+bjjsmzQoEKX7pQ73rVPn7X27LOF9t//jXC80NUTxE8EYOL805/Oc9cNN6x0bmPwI83BjAiMlBnKH4Iz/yNfsDAn/wcNWufKAGIwB0E2a7bc3XfMmA122215bkHikkuWO6GHQx7JMwTPww7LdOWK92rSZJnLP9J73jy2CVWc5/gyZwGBOnHkkZk2Zcpmd8gl74dozwGYLMx07bra5TX3pExWBPUHMa4q4G8dES9RVObwzuOOW2z/9m/znFBOmgwevKev6qowadImmz8/+WFxCLyrVn1nr7xS4vKFhSDqNumE+xjqDMIiwn3nznkuH4jT0KEFVRaUKSt//etG+8tflrn2IjRof6iv77+/2j79dF3SPEc0ps2j3CNUJn7+yScbXfll8a2ygz5p0yh3lH0WG/ZmgaEqkE8dO650bQaLisXFFZfzUPn4442ufaHNxYUTC5UdOqx0fY2INxKUhYgHEpSFiAexEJRnzJhh5557rh133HF26aWXWrt27ezmm292V+fOnd2FD+KQCUVQpsB60/Xagn4OyyXEk//zf+bYIYcstAcfXGMbNyYXF8UPIKgwwUc4qkiMBcQVLHYR8rDQrMXsqxHkMYIXgiCWgxVZpfO9F18scuLvyScvthEjCu3UUxc7600EOYSif/iHOXbvvfkuLRJhMo3lK6IvQh1iKdaTgBUqQiaWzgiMCMeIv5RHyiWiGoLWRx/h3qP8M0CwRmQ6+mgO2styccAS84kn1jmLUwS8zz8vc4IWomr37vnunsA7IuQhhHkBlsUTnoEQiEiK5e4XX2yyHj3W2H/+53xn0cw7YLX7xz9mOZESkYw4JcNbQZMuLCIQP4TOqEUqwhtpgUg8c+YWV+9IY96J98DlwpNPFrj4XHHFClc3X3ihyOUBf48YUWIjR5Y6MZmy6MsV74NlMHFo3HiJXX31cidokD5YAZMevA/PQQxEMCTfEIW573nnlQvEWDoTRxZESEdE5ueeK7RBgwqcZTl5x/eJDxa3HtKaOJC/nTqtcqIK+X/yybj9WOXqDM9nsQARkjR4551Sl67EibqC+Eq6IUzxbNIeC3R+5+fdd+c7kRjRnvLDAgPvTHz4DOtnBGsWSxC2+HnWWdlONCddyGusBxF3EV8pa/PmbXNpgyiMwM0BpcQfq/k330xuhe2ZMKHMlUHqAfWCvEHwPu20JS6+iOZz5261Dz7Y4Mo6InjiwgTPZ4HHL5rwPN6dfEj1XMoO+dCqVa4Lj0hI+iIes2hA/EnP009f4urWuHFlTrREqPWuXJJBeaIOsJB0xx15NmPGluhXbOnSHa7MkrfsIiC9H3mkwLUXDz20xqV1+WJPtss/FkRoAy++eKmNHl0SvV1SEKh5Pu9CHeLA0kRmz97qFomA5z7wwBonYq9cuae46i2l6xLa+blzt1lBQfniFX0C7Yw/dDQZxGn69C3uMNJWrZa7+hCFd2axgkNEEZB9O017Qv6ySMTiC3WLOEQXPvibsk29pi5S9imXfJfFiJrC+02evNn1IbQZY8Zw4Gm2W5wiz1hYikK+UbZ9f0hasaOE9Et3ysr+5hanaOMQkWlfWNChbWfxTzQM6KdYqEkcC9QH3l+hECJs6mLOLoRoeHgXE+m+eJRSUF62bJnzIXz77bdb165d7b777rOePXvaQw89tPuaNGlSNFhQhCIoMxDlEMLKOicEppEj1ztBbdSoUjdxrMjiGEGDSTtiC1aETNyvuy7XCRxxBUsvLFER+VIJ64gWiE5Yg2LVjcCSjG+/3erEMwQ1LBcryb56hXdEgEHUSzWpQnRExEMgPeecpc4yFGECsQwRjbKDtTCTs0S6dFntrGAR+XAtgKDpBZb8/O+dQFpunVouimA9l+heACEomXDrrb65J9bRCJrjxm20hx5a64Tcnj3XODEbFwYVuWRIhIklgiuW1F9/jc/dnS6vunXLdyIVwtn99+c7MRABkzqCmIeoQ3nhPRBSli/f4UR6xEqejzCMMIjFWmX5jmV227a5zjr2V7+abx06ZNvUqRvde/E80pD05N73348PXg6V+0Fo9yBKIl4iYCDq8P3LL1/uBEzaAf6HkIzbCyx9vajJ7wjxH364wbUhPr7e4hmxF9EQEbZctN/k7sFiFGIlwhHX008XujKFeNm06XInrNx8c56z+MYFCulc7t5jtRO6AHETQQqLdizhKQt8h3S75558l4+UI0RnBGLcRyAaUwYRiNleT97xzt4Vyz//8zwniLIwcP31uU5Ux1qe/Bw4cJ2zlsYKmzTh4Dx+kudYfCLOUW8Rqrk/6f7uu6VuISMqagLpwCILgt0//uMc91wEvHKXMOtc/aJc4woD0Zp2lvJD/rHAQb2gnJA3CKSkDffivRIFSfIFC3t/IVgh7lMPKDuIwJQXPicdEOxwd9Kt22onjGM1eccdq93fWGVXBHmOUE0cyD8WghJBCOXe5AtCMfmMeIwlMe+FZTfpRl6SRwhqtKm4o+H75JW3qqfdJC7U06iAzsIN90XkJz0R5IEyjsU5+YI7HSzaSQ+E6yuvXOHSACjD3I/yTp7zeeLiVG2CSwPylnJMeabs0h75uCSDMsfiQ7Nmi+3UUxe5RblEKDPUSdKRNKDusGsAUZk2mfKFcM//yV/aHt9ecm/KFz/ZrcECHKI06UPdQrz2/Tzxpe2iDaNdrg7Eg7LLAg/i6RNPFLpyQ/3DvQ7tGkIz+ezTnjaCnS30KV5Up0yQn9TBVOCjnH6L8tMQof+49tpc1zdSBljkYWcC+US9jjP0lbSBdQ3tAwtr7GyKLuR62AFFP4p1f7IxRl3h/RoKIcKGObs/z0MIES7UcfQ56nw6k1JQpjHjIL5UV+jbr0IRlKvi8oLBMyIJkxkEBSbyCDJMchO3xXuYzGEFyvfZ6o4FGaJRqu3Y9cGmTbhNqP+KifjARBuLO4SnikRiQOxgksiWciy+EJfz8nDI/ncnCjGxZALF1vuzzlrqXDsks/RLB7xAgqUnQgGiLVaRCLmIyVxYiEYXIhDTSEv+j/DFBM9bRjLRJg0POGD+but4JnjRMpoMJoCUWyyGcalAOMTMDz8st1xG0EKkZqGkMncFwAQU0QPxwy8iEE98v/I3FnRc5B+iN/UEFxuIYAiTCKxY5SGaIeYhtCFw8X6UAwTFqowpEX6of5deutSmTePA1O3O8hSXAQjNiPkIqywWcb9k9/QWf82b5zi3GKQH961oUaky/NZ6xE3cciAWNWu2wk3YKee33LLKtR+87+uvr3fvjvsSxFislxGbKRsImeQJAuO//muGvfhisROxE0Fc4/35PwI29Yf0Q6xD1PdiKWWFOocIhZhJPeS5xAP3PYiMiLq0e9wDoRXxijhioVtR2pHXCFZc/E58EEARNRHEEc/J76ys7U4YwTKTNMASk/dCJKM8k0aUdwRyFj8SRXsWH1gcoL1AHMRaE7cjtCMIt+QV4hz5jWCI0Ed4yjxiP/GhrCGeEy/eHaGceyLskT58h/aGNp+yjaiMSI5QT1llEQbxcvPmXa6+ISJSTxAEEWex2MdHN++BEI/ITpvs04yFI8oguw6wSiZfWHTg/gjbLDwRj4cfXutEVXygE77cGjdnt6907sM74yKGOGNJTR2kzFH/EDhZFEEApc7RnnihFHcqlEcEbxZ6KGekAXEm/2lf/OIKuzBYiGBBwi+gVcdiGVEf4ZT6zGJTossbv5sCX+f4iUfUpR+mXlBOWdxKFMlpp3ALQbx4j/vuW2OdOmXa6adnuIUfyqdvA/kd63bKAgt3tLezZm11dY+yiSsVxEoWTSgDlAXKJWWOxQ8u7sF3WFjC7QXW65Q1xGm/AMhPyiPjBVzcVLXvJX0pK5R12hrEOdpFfqddZhEV4Y548D/qC20TVvPkFfWJxTzKEn0Lecf/aGe5KPt+9w9ljzwjfRFmqduVQfxSWeLXBQjq1E/6R8oK5YM0ZbGF9psyxLiiskXO0KBOsPBGW5mT82O3UeQv+UXZ29u+CkhXdsfQzrLThYUnv/PD43dnlbvhydrDlUxFMIZgJw8LjdVddCEsfQbjiaIiDkmtvOyK2qU+dqkIkYhcXggRD4J2eVFWxuFHm2zr1q1WVFSU8uI7IROSoEy+VtQ5MWhFOEHwYsKIuMFke//9F9hJJy2xl14qdoP6xOAMsthezfcQnpjwMElH6PCiC5Pb+lh04VkICUzesVLCwpH4JRN+6gqsOBFA/umfyi3imIx4iAcTHQalXFjLeeELC0EEnmHDSv53y/da9zfuChBoEIYQPLCsSlcQzhD1EMxwf4AwgX9hLygzaY5O3F59db1Lh//v/5vjFjiiwipiB75zf/KTOU58rI6fV0QcxAdEZW9B6a1pEbYQorDGI89qqwxRxxA5EMV4Hw5ZQ3hDQOMdeR7vixUv6RWdNFcGAiAC47x5W6ywcL0bkOJ3E/EP0R0BD+EU0bGyd6IMUq+Ja7Te7w3sdEDEw/ou0QUEgiIWkli9IvAi/CFsITojRmIdzEIC9fn668vzi4u2KvoObEOmTCEqJ7oq8ZCeiDHkMXHBJzlCNYIjIhbtF6K2b7ui968uxBmrXtLeH16IlScCMOItFrHUCVxtYJGLKMcBigh9vDu+uaMghCGmYQGMQIEFKuEReSk/rVvnuDYFf960K59+utGlA2noFxZwc0A7jcjPAiKW3ojpfB+XG+QHwlaiKx7KLYIslvYsSiD8IiLT3iL4Yk1PvmH5jY9sX38QeinTlEvqN3mAQIj4yQIB4jt1jHenPmBJSzpRRhCRo1BeiDsi9dChJe6ZHLCJoEj5xpIYgROhEdcB5OsllyxzuyIoX4hFCHXkC4JQudiKT/G5Lg/IJ8ocwjQiPAIWnyNWEj/yhXaG+llVgWHChE3unqQLIjf11Ndt3EYgmmJ9T/wRfVk4oL0nDSmrPIuyiLiJL3beGcGR+5DG117LglSGE9SxpmZBF0GcssFzaV+4WNSg3yG/yS/80uOnmDYCgYznY/2L4Epc6cMQr885J9stwOCOhzpDGnH4JuWP/p26SBrh8of70mdVBYQ48p32nzpyxhlLXJtDvFhgoS1A2CMNSH/EZtoRxG/aSxb+2E3FggLfZbES4Z96zEUdp9wTR9KbXUG8E4siLCKmgrKHiMdCQFUWKROhrSRMsjaTfKQfoE0lP/13/PiA9pa0ZuHJQ/7TPlL2KCcs8vu03xf4wxy94F0fcDgp+UzfTDsUtQomf3Nzd7j2kfK9N2NO0pP2gb6PNpaL8hcVjP3CFuWWdoX2prK+gjYYC3rG1a+9tueZAZQHykKy9oT0pT1A3GZhNSOj1M3NKsOXQVE70A6wGzNuCzli38GcfcOGDRXO2YUQYUAdR58LUlDu1auXDRw40EaNGmVNmjRJeb355pvR4EERiqCMSX2qjgnLJKyimOQzKUR4YXDNBJZJHp9jaZgo0iA4MIFnMo+FFSIHh3VhHcTAi0kZol/00Ke6gEkOlm5YVjJhZHJdme/S2obt2og7CBRMbBESPEwWX3+9xFnGMjlCqGAygtUNQsdpp2W7iTyTByb+iEpY6LGdm8ky4ieT6XSFCR8iD+9GmUGwweLTC8pYqkUnZaQnFqQITFgLe+tQD2IWohguALDg4h5VhUkcEwRvJQpUDyb6iNsILFURXqsD9yIdiDcHxZH/XkxF8EEUZBKLxWSi646qwgQS0Y6wu3YhhDPJLj+E0Is2iDF+638qmEDh2xfBL0WzUWWIE4slvHviQg+TZERHRGDaGNKAsk/9QbhCPMFNhBcxmNxzVTT55n8IZN4yNwqfeXcfCAE8HwELgYqyhAVZddO9IkhD3J7wHlhRIgpgFUx55kIwpAzwE+tO2s2+fdc60QThAbcQUWg7sNBFpEXYwGIWAQoLVO6F6OktibHyRFTDqhXR96ijslxYxF3CIpghZJA3tNG0RQiQCM/RwyP5nfaedKOuUY44TA+BFEtaRF7aXC7igZse+gtEFOKD0E94yiMLHJR72jTaO9Kbsnb11St213V2ZiTLB8ouz6fOsziC5SzCMXWWxSXSjTxkURHRFZEcwZZ7EjfqdPlC1CLXFpHulDUW7Wiv+ZvFKdKLXQfkF2WT+LOoymIGFrUIv8SxKiBAkx/l/rU5DHTdbt/ApAn+sllcoH6SbpRh3guBlr8RbMknXJtQV7gP+U97h1Vz06YZdt555a5c+Jy4Pv98ketXvFsRLkRf4oLQjDhJ24rgSv7Td/LZMcdkurTlGfTrfsEFAY30of8irRDkCYtIy/sQV+oQaYMoXRVYcGXMwHuTT5RXfzAlZYR6w+Ia8WaBBFGZMkee8CzKFdbTpC15Sf2lbLDAwEUe9+y51tVz0g+3Mwjl3AshPhW8A2UGtxtYlFZHnENoZbdRsgMFaftoF7D4Z2HFu6Tx7kuoy6SJd+cD1D3KMweCUm9oH0kHyue+AH/VGB5gsZ/sHesC2mkWvViEp0xEd6cgMNN2kr8sFuCLvLpQlil3LDR5Qfmuu/J/5Jub8k474N28cZhwZVbRLPKw04xyzqJYIozrEMKxPo9Ce0vbyAI0bdtf/7qhSlvgq3Mwq6gcdsyw8yfZAcJC1AWVzdmFEOFAXa9K396QSSoojx8/3qZMmWIZGRn28ssvp7zmzZsXDR4UoQjKO3fudCdERwsswgwWRUw+sWzDCoSJsrekRXRA/PRbqv2haIC4jAhKOCY7TOz5HoIhYZh0sHUagTrV4UJ7CxNF716DATQWjI0aLXYTYyadbOVN5ce4tkFwYBLLZBfLNwafTDSYsCNaMkHF8gzrPibzxBMhn8khFlV8hhUy4gyTXqzAsJBB8EJ0ZCtyOuN9lyIqYUGH0HPYYZnuQqiIwsQbS0RECoSuaBlKFGMQExDKqgrVAOtAJqLRAwWZrCL41KWfTfKd8sGiB/Fm+zYTWMQ53KXUpF+hjmPFRJ3nXRCXvHBPOlXmZxQSfajWJYgqlHvaDaxJKfsIfAhLia4dqgriy44d5dZelaUh32FhAwGBtEE8qMhn5t7AghqWhLwj9R/hgPfB0pIt/Ah/tFNYBWORzbMR8HFz4C1No3jrUtoOFlxoHxASESqwsiXdEEVpe3EXg9sMLPpwI4K4yPcp8+RrtNwjUBFHFhL5X0Xph8UoAiVuQRBWEZBxE4HLCyxaiRfvQZtMm4hF7XHHLXZCNSIUIiiH7SFi+jjk53/nxE6EVKwzo/7UPbSBWBCSZrSLWHpTnnkeAjLpgvDKcxGQsehEKKIvQCgmnUeMKHbphQU4dRDXM4iNpD8CJGFwO0B8KYsIVNyf9gDhB2GBRVZcYZBXuARJtsABCG4sitAvkAdYd2MliwAOpBH9AW0cZZA4E3/+ph/Boh33LvTD9B0IZvyPdoJ3p9507brYHn881x3syOIE5QFRFgGWvpkFJSzLsR5HlEKwJJ24r2/j/OGvCN4IyIi1CMcHH7zIfvrTec61BmUZEZl7sCPJH3qKuIyoS7tFGN6P/h/hjTacskYdRhhj1wkLDbRLWEdTPlnkoH1HNEMs5T1IA+JBG8BPFhoo3/ST9BdY2ZfvVsh0cWb8gVsl4sciLOHPP3+Zq18sitOWIRby3qTz2Wcv3f0+LGz6vqN8F8N2tzDMIh99C/Un1cG5pGGieyvem7rBz0Tov3A7Q3qx8EP/7t1YkR6I4eQ/9YD+MRHGWpQBny7UQcYKvANlkIWmZDsyKqrDUUgHygluTUi/aNuQCDunyG/qKiIo7RzxxyVDXcH4h3JNXpOHLLIkWinzfMaa1AcWF5IdUEn63X33atdmsTgSTS/cuNB20hdjjU8dY0GHdsr7VWb8QvknLtQR4sNZI1GBOwriLnWfhRfqn1/EBuoKi1aMwYljoostvkfbxWIL7fkLL+AC54dxDvWWRTYWA2lTWLDwfT71ub6NKtIZ2n8Weigf9AksJJEX9Ie0FyywkVdxgLaKup1sXF4ZlD/miZXVCZEaxu+M46NzdiFEWFDH0eeo8+lMUkEZ38g5OTm2evVqy8rKSnnh9iJkQhGUoz6UGSwxUMaCjckPYgMTciY8XozhYiDN4BzLYyzsGPAySUZwY3LPJJlJL4NxLGwQNLCyYeJ7wglZbtKBFQeTlNoSd3kFJuII1wgkDLoZ7DOZZeDHxJsBOlZVURGyriBNECiYxDNBJh0QjBhYMVBlsuu3lDOZZHLPxAUR58svN7lJNJNj8oPJA5NeJjNYYCESINYjxIYEVpAM0Ln4PQp5zEQSkZHvRLe5MthHYOM7lIN0G8DyPpQbxAMm6dQVhCwmhzWBOo7vNVxeYJmHaOYFZQSDhmTpjpCDGOTjx6QaQYDfmazjkqEu67C3QkU4YhJe2wYhtKEIO/7CchoRibrMhRDLO2MRybMR3xDh+F+yuNDuevcEiB5erKTNQ5D3iwa4z6Ftpu7QHiHq8hzum8xyuzrgk5o2nnsjWHrfrsmsOBG9iCP+cGmTuRBQKeOJW+bpZ+hbEIJTbS2mrlAmcBXDxX0Q3unPcIGB2IaYziIF/QEW0ghHLJrSH2C5iuCJpaO3VqadoW8iLnwPwQerWIRlrCLxre4FxXKf4GXunRDFEZZZhEX0wV833yMPyWeeS7qwAMC9EFAREWn7cXVCucYyHNcNlD/6B0QnXKIgoGKtz3cROOhb6VsQuTlkE3HDLzz277/cZswodmK3b08RT6nrlCvaSP6HoI4YTV+PqEk74IVDfM+y8EGaEV/eh+ew24aLfCG+5BHxYxEGq1G+RxlA4PSiNGI2F+UO3+OI8Yi2pBMW1AhyiM/eTQphEcOIH6IZ5Zt7+YUe8gKrVKzwEQy9hTRW8ojMXCxCeN+01DnaPQRz8hqhEYGIsocQTjqTBqQp5YP/kx8IR+WLlOvcO5HGLJyQd8Sf8RLlg/pJu+H9h5M29P38D2tWhOF/+7dy9zaU1XJ/+t+5skqfzniIMQAuPhD86Ld4fwRMdomlcm1FWUd0ps4hWLNA5V3QEC8P9YT/sVhNvrLIQzy9UOYpt9ze4Ba5SFfuRTsRPc/AQ1h2XVB/fvWrhc41DvdGBCc+/qwN4oIYlRgnD3Ud8ZndDeRzVDxPxO8aouxQVsjDxJ0XwDuwK4H6wFgJoZcxAZ8najEsYLNoQfqzYEBaUP+pAyx2sEBEmaJcM25j1x35jx9y2myMJ6gT7BjzCzM8DyE+1diMeHCWAe6+WCTivtRHP36hv2PxgjpTbl39g0U8xh20tYwnKfu9e+e4cTz/pwyyuEbbT1ki/tQDxp3cE9GfulWbi6S1Be0IC4GUs2T9XG2Ar23yrbJDo4H+hkUVygd9CAsL3k88brBo5yl3tG+pYPGSNp97pTO8A/0H7WOiX/6qwAIHi3jUL7H3yIeyEPEgaB/Kn3/+uY0YMcJZIL/22mspL6yYQyYUQTlqoYyFh3cXcPrp2W5wzEQ5mWWKP8AM6zIG7kycsNphoM1glwkUohWiqd8qyMCcSSODcCzYsAxh63ptwISEATqDaJ7DZA9xmwlOx46rnP9U/GYyQWXCXh8gJiDMMyljSyMTDYQyJtNMfHBfwUQWUYD0YdKDmISQgXUeYj2fM3lm8sBEGhEGCy4+Z2JYlxaz+wKEFyy7uCqyhMXfINsNmYBVdEASacw90nUhn4kllmadOq1yQhV1rCYkWigD9dILtizCVMfit67xflT9tnd8oiLO4A+1fDtxufucusL7yeVKtuW4rmEx7Ntvt+z2k1sZiHoIQAjKCHsIp4iOTOBYkMDCE1ECoQJxAZGFhSoEJ6wbawMWGFkMo51i8o24Q/1LNu9BVGVSz+4WhMIXXih25bsii96qQF1BMOJCBCwXEMvFGdKA/gaRHRHKW1tiRYn4hWUrZQtRCNcPTJQT0x3xBQta3ol+BFHBC1eJICAhPNHmIwjT3tOG007xTLbfY7lIu4/wjIsFJub0u4jUuPfgdwQ1xEXiilDIfehDsGRE0MQFBf0Yvsd5J/KQ/g4R1NfpYcMQzfcU7hDpSkvLF6t4R0QVhCfyjD4GcTEq5FEXyCPGAQsXbnduP37+8wxX1hAlWYhAYCEdEbcYPyBiIZwiKpLOiIT0ewi+vCdxRvQi/qQ5Ai+iMvnk+zsWRhBiCOfHIaQV6cACLO0/5Ye+E3/5vAcCMGIZAh1iHHUiWqYQP+mLEQXZHUScyQdvbYigTfywdEc0RhynbDOm4aJ80R5TxnlP6hrvTLkg7xGCvQsW4saC/L33rnGiNe+KKM1zadNod6kzCOYs9FBu+J12B6ETgZN6jLCcauHd7woj3UhH0gKhizxCQGe8Qz5QF3hH0pm8oHwRLxbPMBrw7msY23m3IuQjeUY4RO1k7S5ueEhDnoelOBb/9FukHxflgHLE+JD0Ja289TTlkIv6xOId4jCW77jfSfYsYKxHe8FCK+/ADgJEb9KV+kOeMy6iPFOeqEOIf4wLEbO9tS9jB+oNizSUK3YeMLYiHONZ8oT8ogzgmqv8LIs17l4sULFAQ1kkfRBrWcB+7bUSt0BDmS1fjPAu3r534xkvwpEnjGNIM55PfWZnFc+gneEZLHDgEgNRmf4aoZX6SZwpfwidhO3adYUVFv7gAodFG8aSvC/tEPlNvpSf0bDQfe4X2uk7KBdYZ9PuJPNRX1V4vj/zgvekHydfEXErW9jnvVmAoP7Sv0fPzkiE5xDv6p7jQBkkf3AtxgIRh5hG27tEyDcWYek/yQ8WdyjPpDFuf/zOBuo6C6HsMKNcR/sG2gPaMdrRdIa2hPLERT+ZbF5YEbSbtCG4biPNff9KHfeLv9URqJNBGWPhmYXbUKnMQhkjHBacaHuEEOlL0BbKzZs3t5/+9Kf2s5/9zPbff38nqP7+97+3ww8/3I444og9rueffz4aPChCEZSj/pjY9stgAVGWySIdNBPGZB092/yYDLFtmcEokyAmvr/+9QJ3MTliEu23A3J5v48MupjEMKnj94oGhYmWfBX0n7thsM6EjgkYEyEG/kzksaJ+8MG1boLKFloG1ExUK3pmbUJ8mMwweUPwYELJZIvJMYInkyHEHSwcmAQy0MdCw0+CsUBmso+w9rOfzXUuM7jHH/5QvqV3zJgN9eavsCHB5INB6N74FE43mOQhLCZued1bEv0xUTewZGRChLVNqonVvgCRAhEQK30mfsOH4+83003iOGjpb3+reXpUhLdmZLJTG+le1zD5pn1BhKRdRVyhbUUkQvRg0Q93GbwT5alTJw6vK95ji3VNwUc17hZooxAuEGRSuQSobeijyC+uRGtrRBjEH/oEXOVQrhL7MyZfiBgcNIvYRVmraZuCUIZ1I0Ip2+ARuvgdC2Pae0Q8BCSESQ/lHCEIYRCBnYUUrL5JU19P+cmEHPETIQvXE94/NG5a2LmCmIrw/OGHpc5nemXw7kz0eY63yE4F/TVWofT9/oBZ0vijj35wR0H+I9pEXaQgomGhhpUx30VwRbRDiGdXAiKx9xVOOaXuIQBSthGDsJjGMhtRhwUn8oq8JS0Q7rEaxxKT92c3FO5WkoE7EkRgrJtJV4QeFqxoX7CyRWSmHhGX//zPclcf9LfUJayNuS/Wirynv1joQpCkb8dinDBYSWPJzZiDBRxEJRbUeXcEXy6ETIRwBBUvBiLOUjZ4JpbBle0eoV5zMCJheR/EcOo/4RE6uS9pTJrRfiKYY6lKvBHKWEwh/fx2dtKf8kccqC8IfYhpvH+yXUP9+xe4PEH4RATnfUkPyjtiJnlCOAR40uS//7tcoJs0abPLV8aZtE+MG4kzF2mYzJIZ6KsQt0g7hCrGTMSf+/IsFjgIy3gPMfC55wqdVaV39eJ3NSF0srhAfvAd0pp34F0RCUlHyqRfVKRteeedcp/blF2+S1oi9vJMFmvoVxGCqR/EC3GUsSfvxyKaXxhAdEQ4pr7QXjNu5VmkE2NqxHIW/9gxgRjMeJo6QpknXxgH+vNNOnbMtcxM3O/scGWHfKVMs2BE3tPeEF/KN+lOfae8kY64p/G7NHh/2hHGn7TdUcGW36nTvENiv8jnfB9h2o+taQNfeWW9iwcLaMQj2TzCQ1tC20Z5YWeWH4/wHO6NgMyzuTeGIpR30po2JVUfzff9OBGDk1atclydJM8Zd1OXuTfxpX0hj308EScpV5Qh8oGdFdRrwjGuZ+GAtobf2alAG+oXchPHUw8/XODKCm6R9nYnEO9BP5+qbyLee3v/qkDbRd2gvFJvorsDK4K4k+60Myx40Yb6PKO8s0BCn0fZSVx0SQb34rmM/5n78H1fRqmH9IEsVkbLbm1DOhOPxPJSH0Tn7IkQDxa/WPikr6msvAghGjbB+lAeNGiQNW7c2A477DD7y1/+Yv369bNJkybZihUcGFOwx7V5c/KBfCiEIihjSs8pkr6DYjDO4JNJLR12Bf2Wg0kekzsmDliesD0Sv4p+OyyDK29pQMfPhX9a6gYDQp7BBACLgYoGJlWxVvUwgKATRVRhYscAfPDgYjc5YULE4J7OFoGZSVIqi5/aAh+VdO4Mchj4MknB4ofJBeI6fkOZvCE+IMAwIErckonQx+SFSRjWZ0wYmYwj2jDh4x71Kdo0FCiXHOiY5u1slWDgXZUFlcqgjnM6tN8+g3CAewBEKoSYmt6/tmFywfZzJnzUbSb1tBkIFpVZO9UGpIe/GjrEEWsw2hbaO9phfMViqUO7g6UVbSzfozyRnrSntTn55L5eIEFsw0IwVf9RFyTLL94R8Ybt1IgoUasqxBOsrRC7EDtJx5rCe5O+iCQIPPSRCHmIe4iVWBUiCtMPeLBOxNKR/gvxke9gmYoIiGhEPUXMYCKP8I2QwX0JVy5m7XLCFZ8jtI0du3YPv6oVwWIwE3rErqrkF+IxdREh3m+bJxyCJQtALH4isLAAFM0L2mzcGrDAgaCDNSppQB4xTuDe9NPeP60vr1xeUJk3b6s78Ix3Jq8IzziCPp57k2YIzIw/sBhMBnlOm0dfiqiM1TjWzCz8kn6k91tvrXeCPsIyCwK4bqAMEZZxDOMjyjgXn2O1jksL3E4w/mDBgAViBF7GQ4yV8CWOyIfFMwveCLQIbd56FUGShWXKCAIgomHUL3AySCfGDbhN4HmIu/j/RgxjQQPRFfENwY48YszFIsRXX212YjVlkXEfceddGVsQFoGQ+kKe0LYg9iXzn4pwi4BNGMorbRDlgHxAvES856BQ4sUzEE69Gw2ej4sPyj7phqU7ohOiKGmWDIQ/LKBZJKL8Y1VL+UWQ5jPciBBPBFQsrSmvCIKMxTCW8H7osbhmQYXnkh4ssCFGIa4iJhNvxrB+gZ9yytiV9KLc8A4sRNAfIeZQRqnz3rUOvncpU7SJpCliLgsy4AVv6jsuM845J9vVb9KGhQZ2lFB+EZGx5KesMh4kfSmTiMwcHkx+tW692D79dJW9/TaH+pbvEuD9iRPj3PHjN7m+lDqCex3uxX2xqCZ9MAShPvLe1B/6XKznb7999R6uMRjDU45YAGH872EMytzBi+Dlzyxz6cO9uTCk8K5PkkEZ4F3IdyzYvS9r0om6hyCJ1T6fs0uC96d+UEZSWWNSdxCGaUPYPYnLPdKcBTzyBKGXuQJjCxbBiIc/uJAyRR2mPSPf2HHJzhJ2PTKP4H8IyNwDn+W08eSd93nuwZqZNCetsXTfm36XtpGylcpym/4NX+91Rbt2ua6No24wDquKMQt1gvrK3IfFTuok+ecFd9peyg15Qb2njKfadUl+Ms4gjelH6PNYEOA5lBsE73I3QXl16taFOSm7Sdlpkiq+tQ3jd8bxUVHZ7whgFy7zRepSZZb+QoiGC3UcfS5IlxcrV660GTNm2Mcff2zDhg2zPn362M0332y33XabDRw40LnEQExO95evCiEJyt6Hsj+ghoEwq8WVWSz6k9wZLCOKMihgQIVlBn47uVfioDORRP/BiK1YRURhwsiklME7V/PmOc5il0lZMspPzM52W13pULFG8b6GGSSzpd8LzM89Vz75rGuYMDBIwmclA2Hiw6SCATkTYd4fkZtVetKfgVHiJJxJAYNdrKZITyaETNCYoDKg9dYkQlRGog9lYLDJBAchYF+4dagMhAwGyEwgmIBRf5gYMhHWIPnH0KYisjDZpX2gTS63nimf1EXFvboAazfaOKwHK+s/6gsvSlJmKhIzSDsm6wgJtVW2eC4iITt9mHjSByDUYF2I0IJlbeKBoTyf/gLBj3p5xx15TlDCXQTCK30aYiPbp/kfAjOio3dDQB1hURKRA2vMGTPWue1ylcG7I4hVdWGS5yDgcSUKI/68AnbUIOZSV5NBvR43rsyJj/TDiQf6AvGoyFevT1PKFvnEhYiCyIWgzd+MS3AlQHqmWjTm+1hCIkIgarJjiHRj/MBPxi58h7aRtpL7Rv3veihf5APCH/mHKI1YiohKWrBAgHBCG8Z3eT8WexAlEGUol/5CCEEoQ9TGErI6W8GxoKQ9R8DivuQBQiXjIoRKhC+EHYQy3oW05ELEweqcsRKCLGUUMdkv4pe7NFnnLDJxR4GAh4jy+uslzqcqLliwNEcoJx28T+4mTZbvFquJG2MXyi75hXsX6gGCLqIri+UI+Ii6iESEYxGdvxPLGeUFURXxlXfhmbRvjJ0QQRn3lbvqyHYiHuMr7kG8EB8RE8eOLXPlnvYKUQqLYO5L+aEssHuDMRo+bxPrBXlPXWNMxiIGY91of0S5wXKYNPjNbxY4gwCegbED4z3SgXEbZYp8oc4gxiICY8FJvuNTm4UE0p98xCqacsVCHWIyacvYmzEvu9xatsyyp55aZi1aZLv3Qzz2Yh9pQ7mjbSNPsZ5lDMwCCu0NQj5iLe5G2D3BAthll63Y7SaDdssfhkraUI7IR8qMr6e0HyxgshBCvebdcEfD37Rz7M4gf2m7KnJRxg5HygNpRPqSn9QZfievEf3JP4Rq+hi+Rz4TZ6zZk80LaD9pe8knxtu4M2FRA1d7WCvzbpQhXPfxrtyL9EDMp/3gWVjyk04I21iHU94RVLmoJ+QbAibhfP2hvHtXgJQNn7fUzcQdiBVBW0PbyPvS/mDRS9mm/ccYBoHWw70oK7RjlBuszRFcCZeq/UsGdWDkyFKX39yX+QcLLJQ14kQ9RTBn8YHyQfuVWDf9jhLqhBdZ+YzyTh/GYpc/TNuXHfKAfKdtIt1Y9KGOVDQmpcyzKMRck7xhgYpFDOLH+7MgQdyoB+Qt+cDCyd66OaStpD1gMYOFRKAtoQwSb/KbRYiqiOu1QdSHMs9lLku7RH9De8NuVoT7xIWZuoayVpnRF+hwRiGqRtA+lD3btm1zVskTJ0604cOHOzH50UcfddcjjzxiL7zwgs2dOzcaLChCEZR37dpl27fjb/LvTtTEyhjLmspO9AY6MlwuMDhlsEfnihUCW9FY6UcwrujgLAYZDEYY/NPpR/14MmFk5ZeBIIM1BlIMxliVZnCG0OxPWwYGPwx2sbhkoMGAhwEnA3D+5n0YyNLhMuhjMIClSV1BX0/6YDHkJz1+myYDawZBWEiQdhzKVNFghEknA0nCsH2drYPkD9Y/TDCwdqiKVZkQ1HHabuo8MKhjksUVFXVE+kH7gtDCxIyJPBP/ZBa7dQnliMnk3lphhQh9IO04k3Q/4cZSjvYci1QPEz/cJSDE0E+Rjiym+EVF3AcgNiJqYKVMv8gEHyHX5zGiEaIN4kpBwZZ6HYgiECCiYumND9qKhCP6Ky/gV+Rju7ok7lYhjZncIuSkujfjm7y87924gXQmnxD/8X2L8F9dMQaRhzEP4heHKZLH5A3iGtaxVe2rsd5DfEFsRPisKB2TQbyxNk909YGogAhJeWFMlHhwHSBWM5ZisR4Bi/KX6GcYiAPlzseLre/4oOV3xnAsYvC+iDoIBYiDw4eXuPEO4hEL4oi2iBwISKQL1p7/7/8tcAIQAinP9uIx90Ek5N4YAyCWIPgj3LCwzjjQuz3x/lIJx++IUSzIIHBydobPS8ZYCNWMm7BGZfzH39wLEdWPwRhLIj5hdZ6YBokgriPCIrQRt8Q2lrgjEGNowTiNhT3egTrJuA8DA8RbRGLEY9wgIBKSL6QPAjFCt48PcSC/vE9uxrPeNQbvjFB99tmZdsEF5b6xERQRMpO5hKKcUxYRBRHaKRekFYIZ7j+wOuUejOfxK3/SSeVjbsRn6iwLVpRtFrMQjskT+h3SmM9ZTGJhgXynHhFfrOEpL4mHoSaDxRPG5givLG6QB7R3GGAQT8bApA9jd+YDCHksCCEi8n8sxWlTEPRpaymz7DjhXpQ/0h0jDPIacdCXe9pLBElcoZAHiM7MNYg/8WUXyGOPrXOLS7TXjJe8oIxwT17zbvS5LGBgqcwcBWEP63naZMoAZYHvsdjlF8XIJ8o08UQoJT/5yWe8L/MY5lLUDd6RfGOhg3LORbkizqQ5Z6vwjizCUJ8oB9TDquxwAPKXfGYXDYsFxJv0ZfGAOYf3I4/oS70nXWjvCEee0s6RhuQj70+ZQlQmH+jreB9EXvKNek38iReCNc/g7AfSkj6N9GcXDvnCbhXylDrM4g79IUIy8yfeESEfP+O0J7hrpGzw3pwPgbUuAjafEf/qQh9BG8OiHOWLONBukAeUK57N/emfiWd0oYBy6A8Y3ZtxGOWTeTAXv1NusrK22rhxhS5utLXkFW0ebQoGR+Q9dZZFHPKNtjzZXJ588QYaVY0f3+FefoGT57M4SJ9B+pBfCPCJUDYKC38Yh1Bn2DHDvJYFu9pawA8R6gd1yO+oAdr9xAN0axPGJzwTPYZ2I9kYiDro+2LNG+sW5uzoc37Onq6kFJSjIKpitdy1a1c79thj7eSTT3aH94VMKIIyKyBMOim4dNQMKLEM8YPVVNAhMSCiQ2XlmYEokxI6VVakmWCm6qSYwDEQogOkM0yETokBAZY9WAQw6GMigrUDHTmDKwatTEDokBIPpbr88uW7T8BmAkXnymCeATbCMhMYVq0TrcNqG+KEBQTbRDmUhwO2+MxboZFWDG4ZGDHgiA5EPH7bNC5FsLBmGy6TNywQEfD91jwhKoM6Tl33lg0MCr2FWlUt4ETDxVsUMcmhbWCilqr9FfsO+s6qTqToH+gDESwQKBjEM4lDWPPiRDI4yKM+B6JeOKCPqsjVREOHCRQT8KrmTRS/y4txUHRiXVUYlyDMcA8md1URoVNBWfGuMBCo+DvZVnDGUgiXFe0sYCJJ+UPgY/zC2AaBj10RLCBgtUw/wriR+1MeEGURX/xBkQiq3pcuojJjGcZAjJEYmyWCWIvlKNbWTGBxH1YuYHPGR7aLCyJotI1DpEBow7Kf8WmiH2/GgYwHGUMihvkD9hBXk02eKwJxnfjyM0q5RfEGN/b0h5PyGenKOJfnMf7Eivl//ifDCTEIO9yPfP/0040/EoAIy65B0g/xKlEcQ+xs3JgD48p9MVP/Uln/sTuAtgRjC+KHKMcBiLQjGGqwaMD/EN3x/YsojLiKwMBCFzslcLlGHpDO5AFllXxEDCaOiIMI1YzTcRWBYMr3EQppvxLLNL8TXwRz4kW68UzqIeIi8xH6MkRp/JkjaDIvQLT0PqsRz7BIJ56kJ+Nl8pdFCQR44oIAisjP/xMFmkTKfWRvcKIyIic7BViASKwzuPohjRDbSRPaPOJOmpBuuJEhnxHzEEUpg6QJ5Z8FBIxCGLezeMhiACIo30XoZ6xPGvNupANzIxaoiDtiO3HBnQriLYIO74XwT3x4V57LQd24UPGHn5Im3Jc6QJ3050IwXsCylf/xbuX9TPnBx4THQpi0Yh5FuiFqcz9ES/KD+JEntBu0dbwL6UWcWZAgTRA7eQaCI/lGuiKQ8z6Ud9oMygp1mrLEnJF6y4IJdRR3Iiy4UD9ZgMFiHJ/cpAMLb8wLuR/lgnJM+af9RfzHGh+RF+EZEZv04f6+7JEW5ANiNVeywyi5D/UUNx+UQ8oN70S7xRyTOSgCOnWa90/cacuz+C5W7LhXYo5a2Tg7UbClzlOGKRtcLDKRJyzcsUtk1qytrqyQPvj49gtBLF7QJpB3fM7CXrJ5InGlnpD+7ARA4E+1eEmfyBz0vfdKXXvF+1D+qaP0A5QN6rt37UR/weIabZV3JcbFApDfXcBulezscjdS9Ylf1K6sn/c7X2ifKhpn1SWkI4uepCFlggUKFl3Ir2R9eE0hPWivKEMs5iXbOU59p0+jTFI+Kzo4t76oal6mI9E5e7qSUlDm5VDN8e1RVFRkCxcutDFjxlj37t3tnHPOsSZNmthbb70VDRYUoQjKiS4vaPTxD0ZjQscSHagng46KARur7wzqGAxUtewzgGdrGQMNtqUlhqMTZtDI4JlOyHfEDE7oIBmEMeB78cUit1pHZ8ggh4EPgxe2UXoffgyAfMPI4AmrZwY9bD2LUpV3rgo0sjT6dJpYciR26AyKGOT5g41SDf6jYAnCAAlrNQavFQ2MhYgSdXkhwsKLNEw4aRsYiIr0hzxl4orlOZPwiiz8otCvV8XlhWh4sA5Q2YJ+VWGyhSCDlSbiVPmhadW/t29fGJMdcMB8NwbDSjmVqxTKKuM1xmIIaojPbBcHxkiISCyWIDJH3xfBDBGnUaPFTvSg/DNmQjCqyg66ZDBOxIIU4RIrOQwoyq1GS2pNMGDszKIA41PG0ky6wYsTWDYjJCPckY5YcjKuTTVupjxgsYvoyPgx8d0Zt3ftutSuvnqBsy5lrJlqHMuiI8IbPtqxNEY45t4+fuQp9+QzBCTG9ZQbBDMsPwmDawjEKwRnrH29sIm7JfKI/ofvUFYQ3RFG2L2AEIihhV9Qo2wi2lEOvBUyYh1CN20enyEU4uedcoNojcDJuBoLRw+/I3Aw/seohLQl/f2uSZ7PogX5gSVrZSAqMzbnPux6pNz48kkdQNzEGpPPWcCgfCKS9e27drflMHlBWmDogpBOHcBCFwES39ekK3FFhMV3Nc/BwAZrW+LNe1MvuA9iHffweUH+YD1NWOoUwl6iwET5oJwQFkt+Fiqob4isCEaI+uyYwK0G1ruUCYRxFp5w18OcjDRFWEYoZx5FWeUn9QcxnHgQV37nvYkzCz6InPgOR+BE6EZMRZwiz5jvsfiE0NmnT4FLJ/KFxYBEa1Xix04LhHXyEaMlrJoZ2yBUk460Acx/uN/Pf57h3CyyCyPRdzWQDoiupAN1kXuTh6QDY6Sbb85zF2ItIm5iPWTnAM8k7yjvCHq0pSymYSlPmcD4ijKGqIzA7ufOlFnaF9KMd+fZiHEsLiUKt7SrPJPL5xHPQaRH4Ke+le8IWO2EduboXbvmud3Ep5+e7dKZtMc6HmEdsY/5Lj70qQ+kb6IwSNxYUGARiDjTDlDfyEMWhyoCP//4pqftYpEQgbtnz7XOap6yypwdcdmfH8BuBsRP+gnm27Tn1D3KBAI0n1H+WQSpbYtbFmJJ52SW+aSz3w3GQkI0PxLhc3YtUaZZ1PQuT+oL+jrqGXN+4sliAv0gu1i8L36PX8ytCfTl1HvqHHUZy/goLJjRFtEO0x/U5sHeqaDM0sbRtvk6SlmmzrJISntWV6IyzyP9/c63ZJD+iYvXtUEsXF4gSuDuonfv3u5wvvPPP986d+5sr7zyis2fP9+JrFU5DCadCVFQxiKExp4BSlUrBWIoW1zpVLC8TbaiVREM4OnQGdCzZSfRL9hVVzGwynbbYxJXdfmdZ9IZ0In6ATsDeDpvBl4MAhhAsapMvFipZWst0IGwUs3gj9XrKDRaNW2UgY6MARPxYQCWeE8aHRpGBuy8S6qJRBRWc1mRZ0CGJXZFrjKEiCJBOXxoHxmgP/NMUbXaYtFwIU+xdsLqlwlnVfsLCcoCKC+IKt5yujqWuFEoi1gFIpzQxnCvVOWR/zFW84f0Mcb022QZY1Kemdwnm9Aj8CC+IXCxgI6Ig6DKM/d24saYE+tOxLF///d5TjDkvpUddlYdiBfvhAU1h30mLvqTHlhtkxcYYiCMIeYlEz6iICoT/+i7T5myyfr1y7G7717ifFpzr1Rpw7viFgEBDiEJ9x1+IwPxQ1Twvvf5HRED4w5EMcbkWMpi2cjfCAuMu7E4RexCgERMIr8RSbEAR2BFMMLQg8+5H0I1ghnGFgipCMe4kGjZMteJjuQLognpg5CN4I6ghW9n4uzdVni8KwTEecRgBC6ELQQz4ooFJGI54+WqWNRRHhFTMEbBQjXRpzt1gHt4H/LkL9/F+hbRif8h8GKdzDwDYxnmOMQbi3ss5L0LEOYilHMEYgR4hFM+J10oJ4gl3AsLaeY5iJmIhAitiPgI98x9KBeJ9dBbuuKugechFGOMgu9hxDyEIFx3sAiAEInVLzsBDj54kTs4jzrH/IK6wRyKsoqAxO5OxhfErUuXPJefuDrhMEwsdmlnqJ/Mb8hH7sfZN4iglBUWCfxhjYi8lA8EYoRv8sa/g09j8owFEsKxuIT4yTNZnMCCfedOc+njffdzLwTAREgHfLNTznBDgsCJCMu7sMDB/bgog6RXooEPdZhyTttFm4GIR7qQjnwXKAMIpcyDeUdcPlJ+SFMWSFhkoS6QtzyP+sIigwfxmGd691b+cFQWDyi//pBBwlL3jjtugT300BI74IAMJ/ZTT7CEJo1YwEHI3bx5l8tv3P6Q34kHqTLHJf9Ic+KHGM5BlaQHInhFYE2OoRZnDHBPFgFws8LPhQu3u3pAWfQHM7P4g5954siOA+oDdZn3Y7cJZZ76zQJbbY9VcQlGOvMzCvEkv7wIH82PRCiTLChQ/v2hoPUJC0yUeeowO08Q7H1ZjS6c1MaBnLwv5QF9AZ/yLBhGoT+nP6adoB2mj6sPWGhhoYrn+fbY9+eI7JQt+ra6gHTBfQ4LKbTxyaCdQlPam4XuighaUB47dqz16NHDOnbs6Nxb4Dt55MiRNmHCBJs3b57l5+c7y+V0N8+uCqEIyokuL1jxZlsaHUJVYeDAFhc6DHz1VWey4g+TYGsWAwQ6LL/lgoESB9wk2zbKYIPGk1VlOnsaElbV6MAYSGIRwdY9Bg10bHS0/oAIVqaZlNC5s6Lqt+YyAMAagHfh81Qda1WgwfPuObACSDXArw40oAjkdIQc9lPR4UVCRAll+4xIDRMUroq2rov0gypLf1mdfoS6Xp8uL0TDBWGGRXUs0Gq6YI74gVUSbUxVyiMTPibECAtM5JOJx8lAeMbCzbvLYFxaU2sob53GTjrGiiz4IygkboWvDfz2ZMbHUT/MWLmRF2xjRpRCKK1JnhD3L79EcCz3e8vzUuWLF4awnEQAwxK0Ivx7IG4hIiAAIRzOm1duwIHIhtjFfbBE5fAzLIyxqERkRmhFwKHtwqKRMTr/R5QgbxECmDtgMc7vGILgsuEf/mGOC4+wgYsIwpe75ChxQiplgbF8IghyvD+Tf+LHggffX7Ro78Qq7o/QhRFKNA8T4X88l3mLt3AlXLdu+c5yli3+iNv+vBjmHohwWMwyNyAMz/roow2uXCK4IvhRTshHL9AiwmMZjaCEuIgAzYIL6VJRfhMP5lbkE8ZCpDP5fvjhi5yYiHCPVSt5yqIB8fTuAkl/rCMJx0IB36UeY1XMM5lnMfdCmENgRGyhbvl6xHwK62feF2HR+zFGdCRNCEcZ4v4I96nKLfM35nTkPe+PtSvliu/jfgFrYYROdh0gNEdhHomISRy4eD67RFngYicpP71AihDuLdKpJ8wjERRJO8oic06EPb/zAKjDlF3SlLpCGiEwe3/zxJ188G482BVAO0h6YIjFfamHWBOzk4RnMXdFOGRuy4Vojsh399159u23Zc5tDvNkyhDPJ40Q3Sgr7EDB+Ih3IR9ZPCBvEOlJH57vRTgsvVn0QPhm0ccv+HlrVXQBFjQQqImPr6/EkzhxyKfPd+5PueCdf/nL8raBNCDfCMcCA20F8SFP2AVAPNABUkE+Ex/6D+JS2a5e7zKGsoVwnbiIxE4H4kOdYIEBS2naJFyoRMfM1GusdakPfB99hHykLPkzmKgLuIoi3RPbceJLG4cV98CBhT9y6ZQMdg9xACfGZvSb5C+LO+xEIL9xk8nfvBtW/7wX74fQinEdZRr3RXvjQsSfQ8X78gzaCdIxEe++BrdHtM3UexbxoiC60hfQv1EeWODYG0hP8p504bn0PyyGsmhCfEl3FsdYaKG+0YbWNhg60neRB5RXfo9Cn8riBWWdxYnKymdVCWXOnlRQRkQ++OCDbf/997dGjRrZFVdcYXfeeaf16dPHHcaXeE2dOjUaPChCEZSZcHJQF1eLFstdhWALUVWhU2QgScfFlqnqDIy9MExjziogAykadBp2VjHp9BKd+SfCKhANNGI0jRoNL5MDP4Cl0tPw0PDyPS90E44OlRVgwiA2M8liVZtBAgMtOnzEbAZ3qawZ+B+DGZ4VnSQRBwZfDF64T0UDpb2BAQQr/gwCqmLZIgRED+UTQoTLjh070t6yQaQ/uDTg/ItOnVa6iWZV3W0wpmJshYjCuJRF/tqw/mEshgiAiMGkl/HZvugSGT8i1ibuwNtbCgq2WU7OZvdulY01yQ/GjkzCEbMSD3CsCEQlRExEIQw5EG0ZazPuR9xF4EN8wbUE4iALAAiJ3r0FIMxisIElJDsQEfAY5xOerf2IL1jrIsb5RQTG9IzRgbkFAgL5hRhV2VwDYQyRbW/ElZqC8IJ16//9v/Pc+2IAguUfRiCINVhjI6b6XZLeopi0qki89oIPIh1nqCDmJbr9SAbzKSzQEfLZsYmgXX5wW5YTj5l3YWWIcIwlJBax3BPBkPT3u0fZKYqAhJWpt3YtPydmq9v18MQThbtd2XgQNNmdiXUvFwY2WPiShwiopAniFdaxCMKVQV1BpEa4Zc7m85W5HfdFTCM9kxnZIHiyyIAgz8WCBvFFqKIe8hOLT+aMpAHlkfKNuE7bgxUwIhrW96RD27YrXV4kwoICgjZpjfUv5Z/6xfk5zAepG8QdURLxj/qAVT91ijknghiLBOQJYiFitl9E46J+cHn/xMxZeRfukwwWERGssYxnRwT1indkEQIxn7JAXSL9SAueff31K50rSNKL+TgCOPUei3kEPURV3C8w76b8ML9lgSBxdwfpiaEWQiplDzcZGEFRZrkQzREEKQdYcXMfFn4oL1x8Hq3b3vUECwE8P5krBqAtpd6T/tQx+g5+5/2oCyzkIYDzToiwiKHEDS2A9oj7Is4D70E7wzujF1BP0CpYCCL9eC/KJPlBu0Y9Ycd1uT/ucgtxygsiPCI6LkooM4n1m7JKWuBSg/RllwC7FvidtEHboDxRX1kYoB5xPz6nHCEmI46TTwjziOO4Rtkb/8rePzgLNiyM0PbyvrTrvo/Cfzw7pGkfyAfqL+mXuFOavpVyRjoRV+oAQq9P18qgHSSf6FPwBc6YAY0Ja212S9BuYPSHUE18/GI178/CTW2DxkP5Z0GVZ9AWJkJ8MVLkXVl0i7qYqQlBH8rXs2dPu+CCC+yiiy6ypk2bprxGjRoVDR4UoQjKTDjXry+11atL7fzzF7utUawAVhUWThA1aVgTtyxVh/ItUUtdpaQhpCNlaxirxtGOxcNz6Ajp2Ok46JQYrNH48T8aIVZJaWzxcZXY4SUeLkMHxcoSjSMdKlYrdPY02ISlc6qoLtPxsf2LrW6sDPuBM3FmAEBHwAofHUZtwuCJ57LVcV8MlkV6IpcXQsQHubwQDQEsLRHYsBRlzFaZ4JkIVmBsu2Wi73eZ1SaMFSsa36UT1HPqe1XSljE2ghpi2bPPFjmBuTIQoxgPMy4fNqzEjaEZ9yNaJR5mhqUtB20hmjL5Jt99nPg+YhXCDWI2Qhfjd6zx/IXog8s6/o94gpCTeABhuoCogiDiRTQEKERTXFZ4sZyD1SoSAysC0QeBE2tc5i5V2YLPd5gbIZohQCKAIRojqJG2XAhSWGFiBYkYwtwIARXBkLzHAo/nUV6iuwQKCnb+74Fze3y82wIXAegf/3GO28GK0IhYSR4jtGMFiVjGXK8qUF+Zy0XLOSIdhkJVPV8gGVgiIhbxzpRzBDvENURf/GVjZf2Tn5S7A0GgjYp2zMWwKsWaGzGZOSnvlWhshGsIBF0EO87/YZ6JmM93ccHD71g44g+WeStilof2DwOrHTtwe1N5O0qa0H7ikuTCC5e6eS0CJ89EKMRwzPtMLi9X5S47MFhCDKXMkEcIabgJQfD2h/wheFKe+Zlsjk5ZoFxQ5zds2OkEU+o7acd8m/ejL8B9AW5XaAcQz1mAYIGCxT7i5P0CMw9nQYL0QQxG4PfiLMIvfQtpj4EawjOCN/6ly3dRlLt0IS0RTNEasERHZKaeshuAZ2KJTrpQNmmH0BIQnMl3hHHqERbSuGnhXRB+qRssEvBepBXpiw966hhnOlEOcO1C3WOHAuXBnzlAWcXYDY2A52L5zi4BFnH4ibsZ2lDcmJAXtIflvsfXuoUd4sB9eT8EbcokFrSkERoB7TJpQ30lnfmZzECONpt6iasgxF/Sl90GCLiIwry39x1NPtImE0cs6kln0jhR46BN69hxle2//wIXP4z62rbNdXpFMqg35LXfhcfCDH0+96b+0U6ywEKdoe/gou+iLcWVDWlCOiP8RxfYKCPE3/vgT9SBKDvkAflc0UI13yEs7SFiMRbitAWJkHZoVuQH7Ty7GVj4Iq15J8qS99WdrK6kImiXF6WlpVZQUFCla/Pmyle905mQBOXi4o329dcb7c9/Xuw6w4p8xNQVNBZ03v70Yzo1GlgarMqsN1glZACAdTErwb7BoDGlMWFAE7Ue5p48B/GYBotVL7ZS0GgzKGHLCIMIGil+Z+Dgt50lNgg00qxaEp5tFwjMQCdKI0RD6gdRQuxr6Jw2bNiQ9p2TEKJyODQ59LMshBBY02119b2qIKQwdsYisCqTXAxGsArDyhbBsSIrWkBgYVKN6IHQmAjPRbTzfn2THZDHoU+ICQiciG+MwdMRDorC6hdBmTkNQgRbwL2PYsStRDG+KiCAcIgl4hcCUqJ/7opg3oJIg/jlBSUEFIQ+f2FQg0UiFrZ8H1cICGTMgxCTvZFMZT7To2Bog19sRB92KfjD1xCxEMsQK1moIC0aAswVESYRxBA6EZAozyyEnHkmPpzL3Q0gpCaD+SfpxNwSwTGZ4I9YhoDMHBfRnnknVp/sOsWdAnUmlVjMDg9E5VTf8SBiIfgxlyWtTz21XMjOz/9ujzrMnJVD+RCbERKZt/Ke1HdERcJTZok3FsmIosQhVTuQCOWPOTrW2Oxk9vN0ygFinXehwUIJrj6wtGXuTnkrP0BvoxM6ERMRFhHu2rfPdSI783wEVcRLxHgEa3Y+YFCGcRz3R0CmjHF4JnWH7yTu7iXP2G2BcRpCORoIAjR1jbKLJbc33mLhizRBWG3XLtelL2Ii1sWkHy5PqD+428DyHIt+XHwgEPO/ciO18sUH8h2hEoGUdyBeWNpjcUs7QRtJWHZpoFUgGLOLA7Ga/MAPPpbms2ZtdWmJZTCWzFiak0+kDSI9+YcAi77hXaeRB7Qf9ANYT592Wrar86Qj2gbpQR3FKp4448YBMRsxmbjyGe/OO5LWlDXuTfuOaN+kyXK3g4E4E4b6T/tPflJ+aFP4Pose9ANYa5MP7IYhPTHwIz7kNX+TpyxoYUxHe8p74lbF+yWnbPKu3nUOQi7tF4Z9+E8n7dmJQNoTD6ygKR/eqtzvDuF//h68Ey6YvNsR6gR5xP+5WITib+LjRW7KMj8zM8sX0LFyJ704eyJZe00a0ObyP8pkYn/MnJ1+Pd3n7EkFZV4O0+uqXJhqh0wognL5Nni2t2x0q2ustOA/qj6hQiIoM3ikIadhoGNlla8yqPwMWtj6kLhyzU8qPI1EsqJIo0JjQgOJGMzWSkRmKjcrqzRcNAw0pjQEbOugUcCaw1d4GmJ/GASNCXEAGloGHIRntbcitx1C1De04aG3zUII1XUh4gL1vDp+FmkWGDtXRUwGxsslJbucaOEn2xWBdSEiXKKA6fHPZeyNSBe18gS2MiNwIrRgtegP1E43mL8gPDE/QExDIMPCD3ECC0Ss+lKlYzKY4yBEIc5gtFKVLPdWveRF4vyIz/1FfuD+BetMvoclMwIMczOfh5SVqjwvEcRR7o2VJuKqF+X4nJ2pCEVYPtf0zJrawgttiGeIYaQHghdGQYjMWFQzT67I5QLhSSfej7LtLTsTweoVURMxGdEQQQtLYcQuBPeq1MmqlhsEKqw4ETqxQsd6FqGN+px4D/IFq1as3xEuEc/4PpbKCGrnnFPufxtR1O8CJnxV44FYiIUq4ijv6cORRgioiIZYSCPmduq0yonKuLxkbs+FlS6GW1hV067wN+I0Lg4QbxGNuQcGcSxkUe+Yw7Ngxtydd8JiGctzLK0RLhPTmd/JAxY3yBtcAtGOcQAjoipl18cZQZS4kaYIjCzEYDGN1TWLPFgaI3IihiKOIlbiF5kwCLuvvVbi3D8gUhMXrL/5DmlBftEusLiAqIywjwhMeO5FvaQNfu219c7imeez28Qbu1Fmr76aQ1IXONceuOHAQp3FBJ5N2pKn1GkEZ3QXhFvemUU86iJ5RDkk/RBxSTeEWdLGH3TKbnLKEWWZe5AXLD6UH0bKwazl4iqCKt8lrojcxJv3wJIYAzz6AHQfBF++RxjEWdyUIJxTNwiLdbYXhEkjXGiQzxgCkg/cl3qJbkRaEjcffy7iSFrxGbtmsLLnPWh/WDAg/7AqzsjY6t6JNOcetOHckx0z5AVlgYUirNq5WBDABRH6DwuGfOYPXqWsYoFOXlJ3SBNclEQhzagD5W5My9MlkRDG8UkFZfEDoQjKO3eyXWmzffLJBlchKdgrVlS+Ba42oQFjtY8OjAEMlZefVdmKB4jGfhtJdaDTp/Jy0eGxTccPKBgE0UFh/YwVMp2E37bmt1UhNtMgsSWGBgOBmf8hijNYoqNh+01tnR4uRE2gU9q0aZOr80KIsMFqET/KQoiwoZ7X9W6EqgpIWG0xdseSL+oGwcN4G2EgmUCJgIwwg4CEtVt1DvpuSGDJjb9ihHG29CPkIJIwp8CiD5cG1YX08i4GSefagrkQIlK564q/O8GLLeIYFyXLo6rC4gP3RLwiz3354R0Q7diej1iFENOQIJ7MKyl7/ETIevzxdW5uigVvMsvjqoJIjZ9kDq484ohFNmECFoh/d+keFXqTwfidcXxVRCbuiyCL9TFCmXdxEYU8Zu6KhTriP8IeQhcWmoTBjQ3CGWLg3rgVQewkzxFDE0V2v0CCBsCcG/EeEQ/fvFidIpay2MBcGncsWHsi9iPoI9yhWRAvhM5f//qHyx+M6P0gI6ZiAY2IiBWrP/AyEfIZ4zG0CNyDYECGGImVML7gE7/H4hAiIgsMWEz7A/2IO6I2bRcW7uxSQOxlJwLx4VBCLHYRflkUOu64cs0lcWGNNOfAR8Tfzz/f5Mog4bGYxoqVNCOdSAOsdfnMi+PlgjS+m5c4zcL7X8ZojvRDnGWxD40CjYWdJOwQZ6GLtol66g3rsPZGREbbQHBG8ETIZ4HCH+6LOMv3eAfSFiEVFxyUb96B8owVOXlJXW/UaLF7JvdDOEcwRvBm0Q0fxP45uBjxbkfYGUObiRsObzRIm0L7xLMxBiRtiCvP9X+X+8Ve4uKLuEsZwpoba29EYsoY5zpwkYdcLKgQD3Qe2iTKJe/E5/hnx0Ke3QcI0nwHH92I0XyPPo82mbTGwp70QBxncYE8Rz9CS0IT8hB/2hPKMKI6aYG/ZnbpAHUcd1bpPmeXoFwJoQjKmNKvW1dq48btO0GZ7RV0YqwUsUrGihkVDUuGfYU/iZiVWrZWsApGg0OFRzimQaZzpdPgAD8GjfxNI0eDQWPF6ib3EaIhIB/KQsQH+VAWIh54H8ohgGCFtSSHeiHKVsVisyGCGIsIgrjEIW9sP0cgQfBg/pC45T5uIAyRBvhHRYzZG5GyPkHwQ1DCshzLTwS9vQULShZMECPxWRs93K8yGL8zjq/KjgTEN39IHosQURE1CqIi78n3qXf+QgT3Vru1eW6PF+79dn9AUEUYRLzDaAsxEOtSrFp5B8AIjN0LfM51ySXLnMUqwiQXoi7Wr4n3w+qZOT3vkAySk0UPFnsQItEhcHmCmJ7oy9of/MczyUOsafHhjHiP+IulP4I2QiELEb79QthngQnxG8EUVyeIvrwf4mni/akPCO2I58mymTTjfywCRd2Cci9cX6BXICij6VBesYhGLEXURFT2h/lhmZusLWJhD8GXBR/E59dfL3FaDWmR2CaTZsSVgzl5bzQSFiRIIw/Po+5gOU2+4gqIdKb8IzAj2CJco6OQLomH2s2atcWJ0/xMxLun8BfpzWIAPq45IwthG5clHMZJW8N7o+cgTmMVzk8WG7jIY1yUkD6kGwsJCPZYJZNH3BPBmDAI3uzkx9UHojWuVBDNvTEi1s1YGiMicz9EeNKYd0Vjw1Kd9ON+WGejeXGQH/XLC9r+INqgfSh7SkpKbObMmftcmKBRXbBggX3xxRc2btw4Gzt2rLs+/fRTmzJlimVlZdXZhCoUQdlbKLOFgILMapVvtOsLtp9Q8WnAacipcKwOVdb51SV0BDjQp5Hj4kAA/BaxKop/IAYErHbRCDFAZDWKxoDBBm40EMfZXlTfaSlERchCWYj4wNiHE6KFEGFDPa+ruc6+wFviVtVHa0MEIQtLxnILRvzWprcoUBcwz0uHORLlkHhi3YpQmUyAqyqIhQhMCJEjR5Y6a/DqUB0L5doCwQ7ry0S3knUFouz99+e7OTU7fTk8EhEWq3Cf7ojaCJu4xsFilEUJ3AmwYxhXIizkeBEYQR0fvRx+hwvKZG52EmExC+GX+yBCI84mq7uIjVgpo10kugFCDMUFA4fcJbr8QQAmHlisInzyfoirWCvX5i5m2k4seLGoxw8ylt98RrqSBojIxJt4IDbjI70iSG8WQPCXXZn1PO+KpTMHHCI8JwrhCM7UHYRYrKpxB+IFb3Qn8g+XGRdcUO4zem8WETHowyIYkRddhvtj3Ee8Vq/+zlmEk5/oOaQ9eo4HsRrB/Kmn1v2vi5QMl1ZoPaQV1tTbtv3dicMI48SZspZ4dlYi7M758MONzme+P9SQtEFwv/ji5U6A9n0DZZjdK1ihE0cEbMo/5TQWFsrTp0+3pk2b2sqVK/fZi5LICMedO3e2k046yQ455BD77W9/awcffLAddthh1rhxY+vevbvNnj3btm2r3gpgVQhFUKbAbt68yx2AR0FGzGUgVN9Q8angNEQV+T2uT1jlY7WWbQp0/FR+LA6wmsAfE5bJBx200K160VHQsOBfB0tmVr/YdkMjFfUhJ8S+JAR/TEKIyqGeq64LET6q6w0TXPFhWILVWm2KRiK98QclItQms0BNRXX9pacbzJnffHO9E/0wMkMAxV0Cgn7iayM6LlmywwmiWDhjaYqYiDEX/nixnE0EUbGq2ob3c41Fa6KQnQgiKQsD/KwqCI1YpOLTGEtqRFTKQH013c8+W+hETHwS4wYE0buqaVJTyC8OAyUfEFURdvEnj9V4uUuPH/Jyb8CCHQ0L39MsQGDdjmEgoCmxW5z85JkIw9Om/TjfvO6D1TT3wWIalxblfsfN+aTmf+Qd98IdS7KykQz6AFxtsIiAyI+FPZoRuhcLJPQPuFZBdMba3lvYhzBnTykoZ2Zywuy99vzzzztReV8wfPhw69ixo3Xr1s0JywsXLrTc3FzLy8tz8Xv33XfthhtucBfib20TiqCMKX1BwQYbObJknwrK3l8VDU5DqDvEgfjQsVCxEY3LHfd/51YXWenC7w2Wypy6S6OCzyNW/Vi54gRf/EU1hHcRAuiYNmzYkPbbZ4QQlYMVU10spgshGhbUc+q7aFgw/kdUruwgQxEvEEb31tqX8Tvj+FBFZe/3GStT/Exz4BsCWzJdgjk53ycpECpxH4FYicVnNHmwsI1+VhEc5oc1M24KsCaNupUA8g/dojoLRegEWPDiexdBEuvmvSkDewsHnrLbGpcT+PlFcK3Iz31d4NtDhG0Eey7cafA5+ejzcm946631ToxFTMZnPS43vKUz92cnAGUDq2h2kicz9uN7uCXCHQiuiogf3/V5hCsNdDKEZvxU40O6qvHl3RCPjzkmy7nEwK80h11yTgD356IsYaTIosMzzxS5Ol5Who/19J6zpxSUv/32W7vsssvs5JNPtosvvtjatm1rt9xyi7tuvfVWd+GCoi7hGffdd59lZGRYaWmpc7/hlXx+Lyoqcv+7/vrrbciQIdHgNSYkQXnt2tJ9Lig3RLxDeToB3zDRgbz7bqlzdI+zdlZCPTjkxycOfnJYHdubgwKFqCvkQ1mI+CAfykLEg5B8KAshKqY6PpTTkXLR8W/OpeR++81x5xFhfVrZfBorT1xTYPldmVuLymCej0Bd2zsLEBVxiXHWWUudpSqHu9Un7EbH5QSHDj788FrnfqU+BW1AV8HaHJcS+GeeNKl2FkLxY42vZlxf4EYk6usbY0UOeWQ3PnlQ0Xuj95A2HOJHOhHGM2pUqXODcdBB5b61q1vOnnqq/CBGFkjY/c79OQgyEVym4roD9yCx8KG8bNkye+SRR6xr1652++23O9cSPXv2dNdDDz3krkmTJkWD1SqdOnWyHj16VGghvWvXLmetjNj93HPPRf9dY0IRlEmnkpKt9vLLxc4ROSdqVtWEP47QhyO441eJ1dBE/0NsXcHXDk7aOWghnf2/ifBgsQ1LJuq8ECJs8KuqxSMhwod6Ln/pQoQP43fG8em+Db4y8O+Le0msNWv7MMB9BVmGWI1LD3QCfIjXNwivuFyobbG8unDQI+5E9tbFRRTcUiAUz5y5JemOEO+XHxEdcbkiSBMsudHCov6zcYfB4X9Yd+MGNZmVcyrwrX3GGdlukeTnP89wgjqGiIngexlLahZUVq7cYVu2bE/7OXtKQXnr1q2Wk5Oz+0JgXrp06R6fsSWjLhk0aJDdeeedNnjwYPvyyy+d1TT+krlmzZplEyZMsGeffdbuuOMO+/DDD6PBa0wogjIrIKWlO1zFwZ8Lp3OG0HDXNTRMNGCBLhKLAGEAykpnqJYNQogf4HyLdB+ICiEqh3q+r86zEULUH4zfGceHLiijSeBeEn+3BQWMZaLfEKLuWLhwu+XmfreHMI24zEF7uDrFgj2ZK5RUfPZZmfMZjR9nrocfLrBly/Y81A+hv23bXGelPGVKmW3eXO59IZ1JKSh7YYJtF+vWrdvtu3jHjh3uM1bK6zoBli9fbn369LFTTjnFzjrrLGvVqpW1adPGXc2bN3eH8nFY3+uvv+7iWNuEIiiTj/n56+355wudoPzAA2v26aqVEKJukMsLIeKDXF4IEQ/k8kKIeBC6ywsPB5Q98cQ656JBiIaC99u9N8ydu826dl3txGQO/cNiOeoRYMWKHc46/5RTFtv48WispWG7vEAw5uC79u3b2/HHH++uzp072+TJk61du3b22WefOUfSdQmr8TwjKyvLxowZ4/wk9+/f3wYOHGjDhg2zsWPHOncYHFRRFyv3oQrKnDwZ+MKnELFEgrIQ8UGCshDxQIKyEPEgLoIyhm34TWYnsBANib3VyDiTa9CgQicm77//fOf2I1qNYycoZ2dnO3/JHIw3dOhQ51YCn8a4urj33nudK4rx48dHg9UJ/gA+LKRXrFjh4pCfn+8aXLaB1dW2kFAE5XKRaYf178/Jo4usd++10a8IIQJALi+EiA/Udbm8ECJ8qOfpPukUQlROXFxeCBEauJMdM6bU/uVf5tmZZ2bbjBk/NvjwgvJJJy22ceM22qZNgbu8mDp1qp1//vn2/vvvW0FBgTv07pZbbnGr5PgzbtGihfNtXNdggYwl8jPPPGP9+vWzvn37uuuxxx5zFsv4US4pqZtTNEMRlBmIFhZutX791joL5b59C6JfEUIEgA7lEyI+4IJMIpMQ4UM9p74LIcImLofyCREiHPjHYXxPP13ofDRH8YLyiScutr/+daNt2JD+c/aUgjJC7YknnujcTeD+4vnnn3eCMtbCCLgtW7a0J554IhqsVsESGf/It912m1199dXWtGlTa9asmV1++eV25ZVX2rXXXusspT/++GNbu7b2rW5DEZQZiOblrbe+fdfYscdm2WOPSVAWIkTk8kKI+CCXF0LEA7m8ECIexMXlhRAhsmHDLps9e6utXPmdbdv24zqMyNy5c7mg/PHHG6ygIHCXF9OnT7cmTZrYqFGjbOnSpTZgwADr2LGjczWBqwsOxsOPcV2Cr2Se07t3b5s7d64Tslmhx18yjS1W1N26dXPi9ttvvx0NXmNCEpRXry61Pn3WWKNGWfb447V/gKEQYt/DAHTDhg1p3zkJISqHMya2bt0a/VgIERjU87o+t0YIse9h/M44XoKyEOGRn/+93XZbnhOUP/pogxUWbkz7OXtKQRk3F1gHn3zyyc69xdlnn23HHnustW3b1o455hjr1auXLViwIBqsVuHwP8Tk4uJit2JH4+q3gPA74jKNLgcH4hKjtglFUCbNSku/t+7d8+3447PsySclKAsRKontpBAiXFTXhYgH1HMJTEKEj+q6EOHiBeXjj19s7723wbZsqbuz4OqLlIIyAi5C6kcffeT8J999993O5cWjjz5qr732mi1atKjOt1p27tzZ7rnnHud2Ixko+vzv+uuvrxN/zqEIylh05+eXWbduq+2EEyQoCxEqdEqbNm1ydV4IETZYLcqvqhDhQz3XbgQhwofxO+P4dBeZhBA/JlFQfuedUisuTv85e0pBGfwBT7ib+PDDD2306NE2efJkKyoqqhfz7DfffNP5SEbMfvHFF93z33nnHXeNHDnSCd38v0ePHi5etU0ogjJ5tXLleuvWLU+CshABIx/KQsQH+VAWIh7Ih7IQ8UA+lIUIlz0F5fW2dm3gPpQ5cbC0tNRmzJjhBNzhw4fb0KFD7Y033rCJEyc6X8p1LVrwjBEjRjgL5FatWjkL6ZtvvtlZLt94443WunVr54Ljk08+cY1vbROKoOwtlG+/Pc9OOmmxO3lSCBEeslAWIj4gMnFoshAibKjnWjwSInxkoSxEuBQU7LQ77lhtxx2XZaNHrw/fQhnfxBMmTHAH8zVq1MhOPfVUO+OMM5z/5FNOOcUJvatXr44GqxMQi7FAxkIZUZtnv//++zZr1iw3yEL8rouGNxRBmbQpKfneOnRYaaedtsSGDCmKfkUIEQjyqypEPKCeq64LET6q60LEA/lQFiJcSkp2Ohe0jRpl2ciR623z5p1p37enFJQRay+//HLr3r27TZ8+3YmqXNnZ2fbYY4/Ztdde61xS1Af+AD78h7FCz4UrDiyk6zITQhGUMaXPzS219u1zJSgLETC0lSwGpvv2GSFE5WDFxFhICBE21HPquxAibBi/M46XqCxEeCQKym+8UWwFBek/Z08pKGOdjGXytGnTnN8ubwXMS+fk5FjLli1t0KBB0WC1Dof/vfDCC9apUydr3ry5XXnlle7i+bfffru9+uqrzjVGXRCSoJyTU+IE5bPOWmrDhhVHvyKECAD5UBYiPsiHshDxQD6UhYgH8qEsRLhEBeU1awL3oYyf5BNPPNGmTp26x0oZfj6WLVtmHTt2dAfl1SUzZ860J5980u644w6755573OF7vXr1sj59+thDDz3kDutDVCYemZmZ0eA1JhRBmcWANWu22LXX5tjZZy+1l18uiX5FCBEA/iBV6rwQImxw+aXFIyHCh3ouf+lChA/jd8bxdbkDWwixb9iwYZfdfXe+HXNMlr36aomtX7817efsKQVl3Fycd955dtddd9mYMWPs66+/dm4wsFx++OGH3YF4iL1z5861+fPnW3Fxca0r7L1793aH7w0bNsy52mB1nkEVCV9WVmbz5s2zZ555xh3Y9/rrr0eD15hQBGUWAwoKttsVVyy3M8/MlqAsRKD4XSSybBAifFjgT/eBqBCicqjn6X5wjxCichi/M46XoCxEeGzatMvuuSffjj46y0aMKLENG3ak/Zw9paCMUIyLiQMOOMBZKjdr1syuvvpqdzDf/vvvb+ecc461adPGWSpjQcyheVgy1ybcv2/fvhVu6aSxRWBu3759nbjfCEVQpmNavrzELr98mQRlIQJGLi+EiA9yeSFEPJDLCyHigVxeCBEuiYLysGFF4bu8WLVqlbMMfv75523IkCE2dOhQ9zfuJfjspZdesuHDh9uIESPsjTfesMWLF7tD82oT3Fl069bNZs+eHf2Xg0b3m2++ccIzcaxtJCgLIdIJCcpCxAcJykLEAwnKQsQDCcpChEvsBGV8dXHYXVUuBFcGO7W99XL8+PFOUL7qqqusS5cu9uijj1r//v3dhR/lW2+91S6//HL3Oe4vaptQBGU6pTVrttkFFyx116hR66NfEUIEgFxeCBEfqOu1Pe4SQjQ8qOfpPukUQlSOXF4IES47d/7devZcEx+XFw2BkpISJyojGHfv3t3uv/9+59OZw/juu+8+9/eAAQOclfKmTZuiwWtMKIIyA9G8vM129tlL7C9/WWajR5dGvyKECAAdyidEfNixY4dEJiFiAPWc+i6ECBsdyidE2PTuvdYJysOHF1tJSeCH8jUkOIBvzpw5NnHiRPvwww/t448/tilTplhmZqYbYKHs10XDG4qgzEB06dJiO+usJXbxxcvsnXckKAsRInJ5IUR8kMsLIeKBXF4IEQ/k8kKIsPGCcixcXnhQzb1Y61fN6tMCjoaVQVRhYaGtXbt291VQUGBFRUVObK6rk49DEpSXL19vjRsvtssvX2Effli7hycKIRoGDEA5HDXdOychROUw/qntsyuEEA0P6jn1XQgRNozfGcdLUBYiTBCU//jHLBs6tMjWrk3/OXulgjKi8cqVK3dPWNatW+dEVi5+rw9mzpzp3Fucdtppduihh9rBBx/sriOOOMLOO+88e+SRR2zFihXRYLVCKIIyCwJr135nxx+/2C69dLkEZSECpq52bAghGhaq60LEA+q5BCYhwkd1XYiwQVA+/PBMGzSo0MrKdqb9OD6loLx69WobOnSoNW/e3GbNmmULFiywJ5980q6++mp39e3b17799ttosFoF1xaIyV27drUXXnjBRo0aZR988IH7fPTo0fb0009b586d7aGHHrLp06dHg9eYUARlLLhXrNhoxx6baZdcIkFZiFChU8KffF3t2hBCNBxY7JdfVSHCh3qu3QhChA/jd8bx6S4yCSGSUy4oL7InnyywgoL0n7OnFJSxDL700kutW7dulpWVZW+++aa1bt3aWQQjLLds2dJeffXVaLBa5Z577rEuXbrYJ598Yvn5+c6HGInOyh0DKyyTP/roI7vuuutsxIgR0eAp2b59u40dO9ZGjhxpr732WtKL5x9++OHuOVhr436DOPBsGnruwd/85G8+52++x/f5nWtfh2WbXFZWoR1zTKZ16LDUJkwodIPTqoStyXMVVmEVtn7Dbt682YqLi93f1Q1bk+cqrMIqbP2Hxc+i/351w9bkuQqrsApbv2HZAo/7v70JW5PnKqzCKmz9hqWel5SUOK2jumFr8lyFVViFrZ+wPXqstGOOWWivvJJna9asdy4vqhq2Js+tq7ApBeXPPvvMuZWYN2+e81WMRXKLFi2ctS4C5bXXXmsDBw6MBqtV2rdvb7169XLPT4Y/gKpdu3b2zDPPRP+dEoSXIUOGWJ8+fezBBx9MerVp08aOOuooW7p0qROySVwaet6fZ5OI/lAc/uZz/uZ7FA5+5+L3fR02O7vEjjxykXXpssymTy9wBaSqYWvyXIVVWIVVWIVVWIVVWIVVWIVVWIVVWIWtOKxfPNqbsDV5rsIqrMLWT9j77suxRo0W2MiRK62oqPwsuKqGrclz6ypsSkF5woQJ1qhRI2epPGnSJGepjLUwL42I26pVK2epXJf06NHDcHeBhTKiMs8tLS11F79jtYyVcYcOHerEWjoUlxesMOTn77Df/nahXXNNjk2cuCn6FSFEINABUOeFEGFDPVddFyJ8VNeFiAfUc8bxQogwweXFH/6wyB59tMA2bgzch/LcuXOdi4uLLrrITjnlFLv++uvt7bfftuzsbCfgciBedd1MVBfigJB94okn2oUXXmg33HCD3Xzzze4iPueee64TvZ999lnLycmJBq8xoQjKrCIsWVJihx0231q1kqAsRKgwCMW6gTovhAgb/Cxu27Yt+rEQIjCo59R3IUTYMH5nHC9RWYgw6du3wI46KtMeeWSt5een/5w9paCMiTOH8WGF/PDDD7vD8FatWuXcP/Tu3dveeuutOhFxE8EtRWZmpr3//vs2aNAge/zxx90BfDx/wIAB7qC+cePGuXjUxaQqJEF58eJiO/zwDGvXLte+/HJz9CtCiABgAMruDfwaCSHCxm9LE0KEjd+GKoQIG8bvjOMlKAsRJv36Fdgf/5jlBOW8vHIfyulMSkEZcG+BRfKiRYussLDQ/Y27iW+++cb9jUPm+gB/v8uWLXP+nGfMmOHccCxYsMAJ3GRCXW3xDkVQJp9yczfZEUfMt44dc23qVAnKQoQI7SCLa/XVNgsh9h34L9PikRDhQz2nvgshwobxO+P4utA1hBD7Hi8o4/KiqGhr2s/ZUwrKDF4KCgqcePvll1/a5MmTf3Tl5uZGg9UqCMXFxcVOPP7iiy+cNTIiLxd+ladMmWJZWVluG1hdNLzhCMp/s9zcrU5QvvHGlTZ9ugRlIUKEdtAvsgkhwoZF/nQfiAohKod6Tn0XQoQN43fG8XWhawgh9j2PPFJgRx9d7vJi/fodaT9nTykor1271h10d9lll9lZZ51ljRs3/tH18ssvR4PVKlhDI+p27tzZTjrpJDvkkEPsV7/6lbsOPfRQF4fu3bs71xx1se0zFEF527bvbPbsQjvssAy77bZVNmvW1uhXhBAB4F1e7NixQ4NRIQJHLi+EiAdyeSFE+DBuZ/wulxdChMvjjxfYccdl2sMP54Xv8gLrXw7ju/vuu50P46+++sq+/vrrPa7Vq1dHg9Uqw4YNs44dO7qD+T799FNbuHCh85e8fPlymz17tr377rvuoL5bb73Vxo8fHw1eY0IRlLdu/c6++abADj98vnXtmmezZ0tQFiJEGICWlJRIUBYiBkhQFiIeSFAWIny8oMw4XoKyEGHSv/86O/74LOvdO89WrSoJW1CeMGGCHX/88U44Lioqcm4lOCQv8apr330Ixffdd59lZGQ4a2WeRwPr/QsRL/7Xvn17e+mll6LBa0xIgvKsWQXO5cWdd0pQFiJUGIz6dlIIETYMQuXyQojwoZ6n+6RTCFE5jN8Zx8soRIgw8YJynz6rraRke9rP2VMKytOnT7eLL77YJk6c6MTcfdGwderUyXr06GErV66M/svBACsvL8/atm1rzz33XPTfNSZEQbl799U2b9626FeEEAGgQ/mEiA9YMklkEiJ8qOfUdyFE2OhQPiHCJlFQLizckvZz9pSC8jfffGNXXXWV3XTTTc6XMhbLkyZN2uOq60P5Bg0aZHfeeacNHjzYHQz47bffOlcXXPhNJk7PPvus3XHHHfbhhx9Gg9eYEAXlHj3ybcECCcpChIj3oVzXu0eEEPseubwQIh7I5YUQ8YDxu3woCxEuAweusxNP9C4vAvehjGB7wQUXuAPwOAyvUaNGdtppp+1xDR8+PBqsVsFXcp8+fZwvZw4GbNWqlbVp08ZdzZs3d4fycVjf66+/buvWrYsGrzGhCMpbtnxnM2eucz6UJSgLES4MQDds2JD2nZMQonLKysps61a5sBIidKjn1HchRNgwfmccL0FZiDB56qlCO/XUxdarV56tXl2a9nP2lIIyq2O4vZg8ebI7oA8L4alTp+5xrVq1KhqsVtm5c6cbQGVlZdmYMWNsyJAh1r9/fxs4cKA7sG/s2LHOHQb+nflubROKoLxx4y6bMGGjHXbYAgnKQgQOg1BtlRMifFTXhYgH1HMJTEKEj+q6EGGDoHzCCYutW7fVtn7992k/jk8pKCPQItT6q7i42FkBI/By8Vl9bavmORzAh7/kFStW2JIlS2zx4sVO0K7LA6hCEpTHjy9zgnLfvmstO1t+2IQIETqlulpgE0I0LLBalF9VIcKHeq7dCEKEj9df0l1kEkIkB0H5+OMXW5cueZafX5b2c/aUgjIOorFSRlTFl/FDDz1kDz74oD366KM2cuRIy8nJqXMTbSyjMzIyXFz8Vm7ig5Xyvffe6+Lz8ssv27Jly+pE3A5RUH7ssbW2fLkmoEKEiHwoCxEf5ENZiHggH8pCxAP5UBYibLygfMcdqyw3N3Afylgkf/zxx9axY0dr1qyZXXbZZXb55Zdb06ZNnS/jV155xYnKdUm3bt3shRdecI3r9u3b7ZNPPrGbb77ZLr74YrvkkktcXK655honKmO5XNuEIiiXlu6ysWM32h/+sMAGDCiwnBwJykKEiCyUhYgPiEyMjYQQYUM91+KREOEjC2UhwubppwvtxBNjYqHMoXyIyDfeeKPzpcxWKxR03Ez069fPrr32WmepXJcgGD/wwANOUEbgvuKKK6xLly72xRdf2LZt29xngwcPtnbt2tmoUaOiwWtMKIJyUdH3Nnp0if3+9/Nt0KB1lpcn60UhQkV+VYWIB9Rz1XUhwkd1XYh4IB/KQoTNc88V2WmnLbGuXWPgQ/nzzz+3Y4891hYtWuRWxv1gBvcT+FBu3bq1Pfnkk9FgtUqioFxQUGDHHHOMvfvuu26VHnGbz3GDQVyeeuqpaPAaE4qgXFKyw95/P99+//sMCcpCBIx3DZTu22eEEJWDFROL60KIsKGeU9+FEGHD+J1xvERlIcLEC8pduqyyVatK037OnlJQnjhxop1wwgk2Y8aMPbZZISivXLnSWSg//fTTe4SpbRCUcXuBL6HCwkI788wz7b333tu9FQQTccTeq666ygYMGBANXmPCEZS32/vvr7Y//CHDXnih0NauTe+CK4RIjnwoCxEf5ENZiHggH8pCxAP5UBYibLygHAsfyvPnz3f+iu+44w4bMWKEffbZZ05kfuedd9yBeLfccosTXOuSDh06OLcbvXr1cpbKRx55pHXt2tW542C1Pisry/r06WPXX3+9jR49Ohq8xoQiKK9b95298UaBHXrofHvppSJbty69C64QIjkstNE2svAnhAgbdo9p8UiI8PFnyQghwobxO+P4dN8GL4RIzgsvlAvKN9+80tau3ZL2c/aUgjKrY59++qk7gK9Tp052zz332P3332+33367XXnllfbqq686f8p1yWuvvWa33XabtWnTxpo3b+4O47vpppucOw4fvxYtWthzzz1n2dnZ0eA1JhRBec2a72zYsHX2u99JUBYiZBiAstIpywYhwoddWuk+EBVCVA71PN0P7hFCVA7jd8bxEpSFCJMXXyy2P/95iXXokGuFhdvTfs6eUlAGBjB5eXnOzQT+kvv372+vvPKKLV682B3SV58wkMrNzbVly5Y5MRn/Qlgqc/F7XRCKoExhffPNVXbooRk2dGiRFRZqUCpEiMjlhRDxQS4vhIgHcnkhRDyQywshwgZB+YwzltiNN66w3NySsF1eePzWC/wWc/kD8fbFyhmiMheNLBeNLlddNbohCspvvlliZWWyaBIiRCQoCxEfJCgLEQ8kKAsRDyQoCxE2sRCUhw8fbiNHjnRuJe68886UF36VQyYUQXnVqh02aNAaO+SQ+TZq1HrbtEmCshAhIpcXQsQH6rpcXggRPtTzdJ90CiEqRy4vhAgbBGV8KLdpk2Pr1gXq8gIxGRcXU6ZMsZ49e1rv3r0rvCZPnhwNXqtgGY07i+Li4kqvunDBEYqgnJe33Z5+erUdckiGBGUhAkaH8gkRH3bs2CGRSYgYQD2nvgshwkaH8gkRNsOGYaGcbdddt8LWrAn0UL78/HwrKChwh9zhL3nRokXOb3H0evfdd+3bb7+NBq9ViMOHH35oL774or300kv28ssvV3jNmzcvGrzGhCIor1mzzYYOzbXf/S7Dxowpta1b03slRAiRHLm8ECI+yOWFEPFALi+EiAdyeSFE2IwYUWLnnJNt11+/zHJyAnV5gZ/kwsJCJxj/+c9/tgULFjhBNXpdd9119vTTT0eD1ypjx4615s2b23/8x3/Yv/zLv9gf//hHa9SoUdJryJAh0eA1JhRBOT9/m73wQrmg/Ne/brSdO7XqKUSIMABlV0e6d05CiMopKyurk91ZQoiGBfWc+i6ECBvG74zjJSgLESZeUG7TZpnl5q5P+zl7UkH5ySeftMaNG9v+++9vP/3pT+2AAw6wgw46yAmriRffwT1GXcKWj6+//truu+8+J25jLY31dLJr8+bN0eA1JhRBeenS7Xb//avtN7+RoCxE6DAI1VY5IcJHdV2IeEA9l8AkRPiorgsRNgjKjRtn2xVXrLCiovT3l55UUMbNxKRJk+ypp56yc88910aNGuWE1eg1bdq0ehFasZjm8L927dq5LSD1SSiCcm7uNnv88Vw7+OAM+/TTjZbm5VYIUQF0SrSZO3fujP5LCBEYWC3Kr6oQ4UM9124EIcKH8Tvj+HQXmYQQyUFQxodys2bLbeVKDD3Te86eVFD24Et5zJgx9s0339iKFSvcVisauIULF9rMmTOttLQ0GqTOWLt2rX3yySe2ffv26L/qlFAE5by8rfb008vdoXyffSYfbEKEinwoCxEf5ENZiHggH8pCxAP5UBYibF59FZcXS+2qq5bb8uWB+lD2ICDPmjXLHn/8cfvoo49s9erVzrfy+++/bw8++KCNGzfOuZoImVAE5RUrtlrfvjnOQlmCshDhIgtlIeIDIlN9L7QLIeof6rkWj4QIH1koCxE2b7yx3i66aJm1bLnC8vLK0n7OnlJQnjt3rjt479JLL3W+krESRmSePn26tW7d2lq0aOEO7guZUATlRYu22c03r3Q+lMePl6AsRMjIr6oQ8YB6rrouRPiorgsRD+RDWYiw8YLytdfmWHFxoD6UPRMmTLDjjz/eCcicNrpr1y7XwHFQHi4wrr76aneAX8iEIihjodyv33I77riF9sUXOiVaiFChjaa9TvftM0KIysGKiTGZECJsqOfUdyFE2DB+ZxwvUVmIMEm0UM7NLU37OXtKQXn8+PF21FFHObcXiQdBeB+dCMr9+/ffI0xohCIo5+ZusccfX2YnnLDQJk2SoCxEqMiHshDxQT6UhYgH8qEsRDyQD2UhwmbUqFK75JLlTlBesSJwH8q4vGjXrp11797dubyYMmWKs1bGdzJ+lTt16iSXF2lCVtZW69JluTVqJEFZiJBh2wyWTOwoEUKEDX5VtXgkRPhQz+UvXYjwYfzOOD7dt8ELIZLz1lul1qTJcmvadLmtXr057efsKQXlkpISJx7jR7lz587Ws2dPe/jhh61bt27WvHlzGzZsmHN9ETKhCMoLFmy1Dh2W2wknLLLJk7VlTohQYQDKSqcsG4QIHw7ySPeBqBCicqjn6X5wjxCichi/M46XoCxEmCAoX3jhMrvggmxbs2Zb2s/ZUwrKwOAF0Xj48OHWp08fd+Hm4ttvv3WCc+iDm1AE5WXLtlivXtl29tmZNm2aBGUhQkUuL4SID3J5IUQ8kMsLIeKBXF4IETblFspL7eKLF9vy5cVhu7zwIBozkCkrK3MXh0LQ2CEqL1u2LPr1oJCgLIRIJyQoCxEfJCgLEQ8kKAsRDyQoCxE2sRKU8dW1fPlyZ5385JNP2oABA/a4WrVqZa+//no0WFCEIijPnbvFrrlmqZ1xhgRlIUJGLi+EiA/Udbm8ECJ8qOfpPukUQlSOXF4IETbvvLPBLr54mZ111pLwXV5gfdy3b1/nP7l9+/Z2zTXXWJs2bey+++6zZs2aWcuWLe2DDz6IBguKUATljIwt1rZttp1/fpZ9/fXm6L+FEIGgQ/mEiA87duyQyCREDKCeU9+FEGGjQ/mECJv33ttgl1663M48c7Hl5QV+KN/kyZPtxBNPtMcee8yeffZZu+222+zWW2+1Tz75xHr06GG9e/e2qVOnRoMFRSiC8pIlm+3ee5dYs2ZLbOZMCcpChIpcXggRH+TyQoh4IJcXQsQDubwQImwQlC+7bJmde26WLVsWuMsLhOM//OEP7lA+3F+8/PLL9uCDDzoVnUFNly5dnDuMkAlFUM7M3Gxduy6xyy6ToCxEyDAA3bBhQ9p3TkKIyuFci61bt0Y/FkIEBvWc+i6ECBvG74zjJSgLESYIyk2bLrNzzsmy5cvXp/2cPaWgPGHCBDvuuOPsq6++stLSUmelfNNNN7nfS0pKnA9lfCuHTCiC8vTpm51ZfZMmEpSFCB0GodoqJ0T4qK4LEQ+o5xKYhAgf1XUhwgZBuUmTZXbyyVm2du13aT+OTykoL1q0yLm5aNq0qU2bNs3eeecd69Chg3N7cffdd9tf/vIXGzp0aDRYUIQiKM+bt8natMlyB/PNnq3tsUKECp3Spk2bbOfOndF/CSECA6tF+VUVInyo59qNIET4MH5nHJ/uIpMQIjkffbTRLr98uZ12Wqbl5GxM+zl7SkGZ7RZffvmlPfroo7Zw4UJbvHixvfrqq7t9KQ8cONBmz54dDRYUoQjKixZtsjvuyLI2bZbZ3LkSlIUIFflQFiI+yIeyEPFAPpSFiAfyoSxE2Hz88Ua76qrldsYZmbZ0aeA+lIHGrLi42K2K08Dl5ubayJEjnWVyVlaW860cMqEIynPmbLJrr8201q0lKAsRMrJQFiI+IDKFPg4TQpir51o8EiJ8ZKEsRNggKF9xxXI79dQYWCjzcqyQzZo1y/1EVMZSGTGZa86cOcEfEBGKoDx58iY79thMu+YaBGVtmRMiZORXVYh4QD1XXRcifFTXhYgH8qEsRNj89a8b7bLLltvRR2eG70N5+fLl1qtXLzvmmGPsiy++cIfz3XXXXXbGGWfYWWed5Q7o4+C+kAlFUMaHctu2i6xz5xxbsECCshChwiAUd0VyeSFE+GDFtG3btujHQojAoJ5T34UQYcP4nXG8RGUhwuTTT8usRYsVdtJJC23p0pKwXV7gP/nMM8+0wYMH26pVq+yll16yFi1a2FtvvWVjx461li1b2pAhQ6LBgiIUQTkjY5PdeOMi69o11xYt0uRTiFBhAFpSUuIO8En3FU8hRGrkQ1mIeCAfykKED+N2xu+M4yUoCxEmn31WZtdeu8JOPnmhLVlSFLag/Nlnn9mRRx5p8+fPd4LyQw89ZK1bt3aNHO4vWrVq5Q7mC5lQBOVp08rsrLMW2u2351pmpgRlIUKFwSiWTOnuj0kIUTn4VdVuBCHCh3ouf+lChA/jd8bxMgoRIkwQlLFQPvrohZabu8l27doV/UpakVJQnjx5sp1++un29ttv2/Dhw+3222+3nj17ui1X3377rTVv3tyeeeaZaLCgCEVQnjSpzI45ZoHdeqsEZSFChgEoK52ybBAifJh4pvtAVAhROdRzLRQLET6M3xnHS1AWIkwQlJs3X2GHH77Q8vK2pv2cPaWgnJWVZV27drXzzjvPTjzxRLv55pvt008/dZ/j7qJZs2Y2evToaLCgCEVQnjevzDp2XGT33bfKFi+WoCxEqNApcYiqrBaFCB+5vBAiHsjlhRDxgPE74/h0F5mEEMlBUL7mmhV27LELbMmS4rBdXvByBQUFNmrUKGehPGPGDOcknsP6nnzySXdIX+iDm1AE5dzcLfbSSzn26afrragovQutEKJiJCgLER8kKAsRDyQoCxEPJCgLETaxEpSBLVbr1q1zgiquLvgb/8m5ubnu79Abu1AE5W3bdjmT+pKS7+3777WFRohQkcsLIeIDdV0uL4QIH+p5uk86hRCVI5cXQoTNxImbrGXLHDvkkAW2alXgLi8QjhcvXmxvvvmmvfjiizZ48OAfXd988000WNpAY52RkWFff/21TZs2Len1xBNP2KGHHmorV650mY3/Mk5fZfXQCzf87Rt+Pudvvsf3+Z1rX4YFPse6obpha/JchVVYha3fsMBnmzdvdn9XJ2xNnquwCquw9RvWwzjNf7+qYWvyXIVVWIWt/7DA39T36oatyXMVVmEVtn7D+jk74/jqhq3JcxVWYRW2/sJ+/vkG69gx1844Y77l5Gxw4aoatibPrauwKQVlXFs8+uijds0111jr1q2tbdu27mrXrt3u64MPPogGSxsYmI0ZM8aGDBlizz77bNLrtttusyOPPNKWLVu2O9HKysqcdTaJzD342w/y+Jy/fcLzO9e+DAucDI2lubcwr2rYmjxXYRVWYes3LFDHcVVEna9O2Jo8V2EVVmHrN6ynuLh49/erGrYmz1VYhVXY+g8L/E19r27YmjxXYRVWYes3rJ+zM47XnF1hFTbMsJ9+Wmxduvz/7b0JlBVF1q793X/dvvf7bs9t206toLYzioqztrM2Yiuo2CoKgooKKCitCDiA4jyh2OAAItqOOIEiiKCAgIDIWIwyFENBUVAUM8Xo/tezz8nqIq06p6AY6sR5n7VyQVZmnMyMjIiMePeOHbnWsOFEmzZtYcaP2VMKyoMGDbKjjz7aHn30UffWnTlzpv34448uNEcbMX4yFTKBOND9+/f30BZlbY888ogdeeSR/qxkHCo9GRt5+65fv973+Zd9/s4+53E+/2fbk2mjZ6UjijVhe9JW5rpKq7RKu3vTAnW8oKDA6/z2pK3MdZVWaZV296aNoA8WnV/RtJW5rtIqrdLu/rTAPvV9e9NW5rpKq7RKu3vTRmN2+vEasyut0oaZ9ssvC+2OO3LtH/+YZNOnL874MXtaQblWrVoupqKc4/pM4tIbjV2mQibxAnk2Mq2s7ZNPPrFq1apZXl5eSZpo2579VMfS7ac6lm4/gv9H76q8c+P7qY6l2091LN1+qmPp9lMdS7ef6li6/VTH0u2nOpZuP9WxdPupjqXbT3Us3X6qY+n2Ux1Lt5/qWLr9VMfS7ac6lm4/1bHy9oG6Xvrv5Z1b3n6qY+n2Ux1Lt5/qWLr9VMfS7ac6lm4/1bF0+6mOpdtPdSzdfqpj6fZTHUu3n+pYuv1Ux9LtpzqWbj/VsXT7qY6l2091LNqHqK5vb9ry9lMdS7ef6li6/VTH0u2nOpZuP9WxdPupjqXbT3Us3X6qY+n2Ux1Lt5/qWLr9VMfS7ac6lm4/1bF0+6mOpdtPdSzdflnHor+l68enOpZuP9WxdPupjqXbT3Us3X6qY+n2Ux1Lt5/qWLr9VMfS7ac6lm4/1bF0+6mOpdtPdSzdfqpj6fZTHUu3n+pYuv1Ux9LtR/D/dHU9vp/qWLr9VMfS7ac6lm4/1bF0+6mOpdtPdSzdfqpj6fZTHUu3n+pYuv1Ux9LtpzqWbj/VsXT7qY6l2091LN1+qmPp9lMdi+9//fVqa9Ag16pXn2y5ucW2det/zoufm24/1bF0+6mOpdsv/f+UgvLo0aPtyiuvtA8//NDDJUSJs4lQFuVD/I8sD0KIcKGOR5ZDIUTYMCUNw7gQImyo59R3IUTYRF6AGrMLESbffrvGGjfOtUMPxUO5yDZtyuwxe1pBuU6dOnbppZdamzZt7LnnnrOXXnppm23MmDHxZEERiqCMd/nKlSsz2qNclIJA6IWFtqp/f1s7apRtZfGGjRtt3Q8/2Oqvv7a1I0fahtmzbevatSiM8dQV4idi48yZY6sHDbJ148bZ1tWr46eIKgh1nGmxTEMRQoQN33WMxUKIsKGeU9+FEGFD/51+vMbsQoTJ8OFr7JZb5tkRR0y0nJyltmHDfxbbzkRSCsqTJ0+2pk2b2oUXXmiXXHKJ1a9f3xfnY7vhhht8+/jjj+PJgiIUQVkeypnPluXLbcPMmVY8daptnDfPit5+2+bUrWt5991n63NybMuKFZZ3zz0299prbd7NN9vihx+25W+/bauHDLHiGTNsy3YMRDYTl3PwYMt/9FGbU7++LXrwQReVy2TrVv/tnzZldmMYCvJQFiJ74LtO2C4hRNhQz2U8EiJ85KEsRNhklaC8Zs0amzFjRrlbTk6Or0IaMqEIynyUZOnMbPAUzmvTxubfdpst7dLFph55pE345S9t5l//aoXdu7tHcs6BB9qkvfaySfvs4/9O/MMfbNrxx9vC1q1dIN6yatV/fnDrVvds3rxkiW1atMg3vJ4Rrlf26+fpJv3xj36N6SedZAWdO5e+HQcv5s3LltmqgQNd7EbU3sqqoHjHqiO0x6Cub920yd/3Nu9cCBEUpWOZCSHCRXVdiOxAY3YhwiarBGUatPgifKU3QmIgLIdMKIIyIS9WrVqlD1QGs+DOO23yn/9sE371K5v4+9/b+P/9v11Anlazps39xz9cZJ609962uFMnW/Xll7b83XfdY3nGmWfa5AMOsGknnGD5jz9e8nsIwUv/9S+bcfrpNnn//X2be8017t088+yzbfK++9rijh1t/s03u6Cc27DhNvcDG2bNskUPPGA51av7OQtbtrSi996ztWPHJkRlsduhjq9YscJWTZhg+U884Z7qQogwiVZiFkKETbTyuhAibBiz04/XmF2IMMkqQZnpVbNnz7YePXp4/OSnn356m61Bgwb21ltvxZMFRUiCsmIoZyYIs2u/+85mnnuub3n33mt5bdvakqeessUPPWQ/XnCB5Rx0kM085xwXnFd8+qmHoNi8dKl7Da8ZMcKFxR/PO89mnHGGLXvlFVv5+ee28O67bcZpp9m0Y4+1OVdc4dv0E090cXjGKae4mFw8fbqt+uILD6NB+pWffWZLnnzSCl54wdZ9/72t+fZbTzPl8MNt6tFH27QaNVzg/vHCC12s3rhgQfxxygQBHC/nTXl58UMJCKuxfLlfE0/t9RMnxs8oH+JN43X9+ed+nfg9EYO68I03bO2YMUGI4FEM5bzOnW3mWWfZ7L//3YV/vMnLg/JCvuCl/tOWLfHDQogqimIoC5EdKIayENmBYigLETajRq215s3nZ4egPGvWLOvUqZM1a9bMmjRpYtdcc401bNjQ2rZta3Xr1rVrr73WPv3003iyoAhFUN6yZYsbCHbFdDmm1G/MzbWN8+fHD4mdAGIfAjIhKBCTiZfscZTnz/f/z7/1Vhv/i1/YpD/9yWZfeqmtGzs2/hO+uB7xkBGQp59yis265BIXfmdfdpkteeYZF3PZEIFdrH76aReTiYu8uaDA4zRPOfhgTzf1mGNs+gknuCC9uEMHy6lWzRa0bGkFzz1n+Y89ZvMaN/bjM88801b27Zsy5ALiJULmgubNbfbll/tvIITzfOsnT/Zrs7DgugkTPI5zboMGNrtuXVt0//0uPqcTP7cUFXkMadLyrHOvu87F49LHeX6E+oX33OMhO0qO4fk3ZYpvmxYuTCxwCMkFEbnPkr8lWdmnjxU8/7yt6N3bf5tzdxaeV/Pne0iRVHDe6gULbPb117snO57jq/r1s63U/y1b7KfYPW3Kz/dY2wvuuMM9zHmn5PfWDRu2OW9344tCzp7t7zmez9kIdfGnPfxORNWD77oW4BQifKjnipcuRPgwZmdGwq4Yswsh9jxjxqy1O+7IEkF5yJAhVqtWLXviiSesS5cudscdd1iLFi2sf//+1r59e+vYsaN9++238WRBEYqgjJUTL+Vd8XHCw3PpSy9ZYa9e8UOikiAisaDe9JNPth/PP9/DSXhs4lIbnsoTf/tbm/i737mYGffAjVg/frwtfvBB9ygm7jLCb9EHH9iWwsJtzsObd9Pixdv8bdmrr9qUv/zFxv+f/2PTjjvOJu+3n0094gibXquWx3Je/fXXLhz/VFzsInf+I4/4OQtatHAP6dJCGEKrC7WTJrlYXvTRRx6OY9x//Zf/9tKuXW1R27YermPVV1+5sQIPa+JCc3zKYYd5fhT27FkiNCKyslAh18KjGs9pBHHE5NxGjfzeEcKnHHGEe1tHnrh4POded52N/7//14/j+Yzwyu9SrhHS2ZY8+6x7OCN08z649rJu3WzFRx+5gM+1+a059ep5GJJZF13k74rzt1cMJa8IRxKJ0eQRv0Nca95vUe/etn7CBM9HnoFn4druhbxxo23duNFWjh5t0884w/OU91Pw4ou2dfVq98JeM2yY5yllh2elDODFTMgTPMwn/Pd/uxc6z4SoS7poi3twc6+8d2JxR+BJTt6vGT7c43a78L8DgheCfsEzz9iy115z40Jp2F87cqQLziWQX1H7lhT9d+S6FYF6Sf5zffKJZy69KCXPTB0ifysCdY7yRt2lDpWwZYsbVdb98IOXP7zzyZedaaiIEz1bRYwXqaDspDP4/AxmIhQVefkpaYO06GdKCD/G4FMIETbUcy22K0T47MoxuxBiz1NaUJ44scCKi3fNeHV3kVJQRjg+7LDDbM6cOW4V79mzpz3wwAPeqWHaVatWrTwcRsiEIijvSMiLigoCix95xEUrPEC3EstRH8CdBsJi0Ycf+gJ7LMhXnJPzs/wtev99F4inHHKIrf3++8Q7KAdEGrxoEXNLi4DpQLBceNddHtZi+VtvuRhNmI0J/+//udczC/uVBu/dHy+6yIVchOFIWEUUQiSe37SpzWvSxEXu+bff7vceieKIuxN+/WuPEb2oXTtb/c03LqZTxgp79LD8Tp3cW3vGqad6SA8X3adPd9GXe5n0hz+4aE7MaTZ+c+7VV7sn8pwrr/S0GD+4H8Rr0nBN8pjf2DB3rucPQrL/fe+9/Tfw9J3frJktat/e40vj/ZtzyCFe7hG8Z/3tbzb9+OM9hIiH/jj6aM8zRG5EQRfFENZT1A8ESARrRGNPs2qVrRkyxBY0a+YCPV7iCL+I4Cu/+MLfJyFMuDaxrN2jt7DQ5vbsaZNOOsnG/8//WM7BB7v3MZ7I5AP5hgc6++vGj7fZder4e0V4RyTPOeAA9wLHu5zf5/rRtuHHHxOezhs3+jsmnxCNEY/da7uwMBFOpVUrzy+81zFGIE56W8KiQlu2eN5T/koWcIzBOXjVT6le3Q0XS7t1S4TsQARfvdrm3XSTx/4mLAt5xHU3Llxom5L5jKCL2E9ellUf+Bt1i3IbvRPKEX/nftj8d5cv999zI0NxsYu5XIt8IH8WP/CA5yV1irLIc+HlzjMv69HDiqdMSduGep0YNMhD1mCYc4MQiyoWF/tzLP/3v73c8t5nnHWWrR09usw8iyBPfXHMHWyLea+ULeqCe6rH86+0cF8W5GVxsb8/Nyak8aomTxHkvUwUF3tYGjzlC998s+QdkD/FyUU/Sz97VI7KvEZU1ihjad6BlyvKY9KLP5OoSMiLqO78jMgwmY5U523dmjAs8W52VPRPlqmobaAM+m+VdU2ux/ml+jLuvV8Boc3f7Xb0gfYE3g6xWC5tT7TIbQWeTYSPQl4IkR0o5IUQYTNmzDq78875dvjhE+3775fYunXlj+sygZSC8qBBg+z444+3kSNHWlFRkXsp33bbbf7/wsJCj6FMbOWQyWZBGY9HvB/TkcvU+l/9yuPuIib9TIAQOwziJoI9YiuhGsoKH8F7QuR1cW358rIH4Ul8wI5oVt5gvRxcYFuxwkVID0Exdqzl3nCDTT3qKBchEflK48LQwIEegoNz8Nwt7N7dvZdZ+A9xFOGVBQARPIkDnf/wwy76Ih4TTgMxetbFF3tID0Td+bfc4h7EiKZ40E764x8t98Yb3VsVYRjvY9Lw+/yL4EtMaRYYRPhEoF3y3HMudCLQISgiTLLPOaSZduKJHv6B2NQI2IjNCIeE8iAeMUI394KAv6BVKw+hQfxo3g+evdzrik8+seXvvOMxpxGpCUXC+Qi+eE6XKX4lWTVggM296ioX6xG08fQmzAhez55HTzzh3sTkGV7dCOYu7P/qVy68zmva1Arff9+m3nuvTbrlFptar54/G/fCIo0/nnuu5xvPNqt2bU/D8yA4u1doXp7Nu/FG99ZGPOd6iOfRhhEAwQ/DBSI28bZJzztG5GbjN1kEErGd43iVL+vevURcxKN3+ZtvuuiKMWTduHHxbPB2B6Hchftf/tI93YsRs/FafuEFF8Ajb3nKPaFQfOHI66/3d4fITxmj/PH+4vCOOEYa3gm/S9lChMZTmM1/t0kTf28ImmyIxyyAicGAfJz4m9+4sYH/k8d4rrvh5aijLOfPf/b8ck/vFCKlGy/++U83zvC7eJBT11b17+/Cvs8GOPJIF5TJT8LelA7NEgdjBIIsz70jbTHXJ18pu7PIv88+2+a4C10pFoZCTMbIQPmifq0dMSJ+yjaQp9RtPNHdEHXxxYk6du653vZRZzE4USYxqpUuL5QjRHi81ePQZmFkwAOfkDWpQMAj3I/Hcc/Pjx+u0hQtXWprUohMHjpm1qwyDYhuPKmACJzqPAwulJkFd93lZXm7ScbH9/e1YIG3FRi5+FaU5eHvBqOk4SiCb4DPukgD7QrltyqD8ZUyjYGPuo5BmTZECAnKQmQHEpSFCJtx49bZ3XcvyA5BecqUKR7m4rLLLrPhw4fbhx9+aDfddJOHvbjnnnusdu3a9tprr8WTBUUognJFps/gRYgYQTxcBEAEEhZXw5uU6fvx6c8MMBn0ISwhpk059FD3KC090Ms2EHAqsrCZC2sLFnioCAQ6xCwXiZiqv2yZe0AigDJARzTF0xOvwbJ+16+Zn+9C6+7yZEKcwFOSMAybmKYfv25y6jrexYhAxFOedswxLm4igCIIItYikuEFjAiHKEQZ5HfxLEUcRKydfOCBLjAhPrrn2oYN7vWLsIewimhHOcUrGZESsRtPZtLPrV/fBTH3jt6yxYVCxFPCZyB48duIdnhjEscZ8ZfY0pTlGSef7LGQuSZixYoPP/QBPh7ViIvrp071UAQM+BEd+V3ep3vqFhS41y6etdwfgjKe0Tw/YUd4lwiZCJCRcMDCi8S5RjyetO++LqJxHwjZiMseEmHuXPcWJyY0caoRGBHCcxs2dMEZIXfaySfb1PPPt8Wvvmr5Xbv6Yov8nftGxCffEVMpU6RBOOXa5CtlCbGV+0QUxZuZ94ZXNiKPh0s588wSkXvOVVf5c+P5zHtl47fJT8IzkGc8N8It4jsitcfvPu44Fwg5Rr7jCc1GXlJmyBtE4sgjG8MCwiLe7dwT+Um7E3nmu6jNopCERDnkEBei8fglPAqe8gjvGC+ijXQIphgd5lx+eaLNu+oqz1MWrmTjuT1UytFHe9xxNn4PIZ/2EREYI8+yl19OGCZOOMEFYfKFa3s4GIT2Bg3c6LJ66FA3EFGWEFwRQ2kDMGDMOPNMF44xDODRT37PuvBCvwd+u+jddz20DcYWfhfRqcRTF8/OZP0rnjbN3wd5QP2gLEbQLuORzrtmwwjDTAPKH/lOmcVQgHiPlz/CrtfTk0/2esR51BXynbQuAm7e7J7DiNc8D98P/k9ZQWQn/xD447h4mJvrsdB9IdADDvAwNpRjN3gcdVQiRM2hh3qe+sKfyXdBOVr+3ntuVPJyeuSRni+0My7eJ4VP2lDqJYZO3i9tRmmY7YEQiuDMM1M3uAeMWqUXByUdoXN2dI0A3jGGIvKnvPA3tBMYb9YMHZqog59+6t/SuJhfGv/+Tp5suS1bWm6LFn4ubRwiemRIwEhEvlDnfNbDsmVez/lW5D/+uLeRPDsiLuFweEaMwoTWwSjG+6XN4V4oK5TB+OKlCPwY6NzY0aaNzzqpKPQfKK/zb7vNv3U8w6w6dWzyPvt4O+khbRhQl/ruYWjC6MX9IzjTlvIclE3az/Xjxv3cg5/v0apVXt5og1Z8/PG2x6sIvHeejXaRtoyyS3vt35z+/eOn71Qo87QrUT8kFR4WpwLnZRp86/n2IOgvfvhh74eUBX082kr6beUZWnYFzA6lHy+ECJuKjNmFEJkLgnLr1guzQ1BesWKFDRs2zB5//HHLycmx6dOnW69evUpiKT/zzDP2ww8/xJMFRSiCcrpF+ehEu2cfXnunnuoDdAaJCE4IJQxImfJeWixmcIwghuDAYJJBP8JeJMAx2EXg8LigZQihOxMGyQz6GbTjrcvA3O91Nw54oqniCE0MxkvHIXbhZfp0H0AzIEccJSwAYh/elAyqEfLcU65bN/fQZWCPdx+CIiJeXBDZ0zBodw+yFNOhETYQHAq6dHHPYbxXWXyPgT8i6YRf/tK3Za+//jPPMfIBEQ/PTcogZSkSChDKGHwj8CGMIiohvEVi/qYlS7w8INaXLgeI3PyNOMoIeHiXLvznP72sIvLhdT27Xj3/t6Bz54Qgl0zL/fn7Gz06MTU+OfUab00GnojLpT1HOYYnHe+NMokoE9Un3vmc+vXdY5j7Z3Nh/LzzXDRD+EC0RFwhxId7/kX5/NNPfh+IttRRhBWEbOIkc+9zrrnG5j35pK2ZPNnrNQLKhP/5n8RiirVq+W+Td3iGloSFSApdnneLF7t4iAiNEEw+ELoB4wGiknvKHnSQl1nKKO+XYzwfG7/pHnXJMAKIVYiAiH+II4SqQCBB5HPBumZNDw/BIJ6yQd4jMiMq0h4hFCG40i4h+vLeENQRQd2j/eKLXRRb2qWLLe7UycUphC2EQjxfqT+UI8JFsLnn+emn+z156JYDD/T8529cK9oWtm7tYjtiP/fEPRPbm/vkuT0GOCEZli1zY4h7sZ9zTknoCheamzRJiPBnneX3zm/wPni3/I1rUA7cu7pxYxdNXYhGyD3pJL8+79DjCk+Z4vmLeI7hxL0tly1zAR6hD3GDMsBzEC4GD3GPuZy8R+4ZwZayT110MR6v/GOOcZEYow55goiFsYX8Y4FGjAWUS+6X7wLXp53Ho9cNkM2b+/l+/IILSsRk3jfiO+dyj+75PXp0whDVt2+JJzce99QH94pOGnTwTKY+814QesnPpS++6O/BZxRQT445xn4855xEPSG8zuGHe7uCaE+dpIyTlvdLu0N5XTNyZGL2RP/+7sXNO+GZMEzxDOQHBojIWxqxnPuknkVlGzGd9ozyR7vhs0ZSfGe4D8R9jCI8F/cQtRPRTA7yzet9u3bezvjsD0Lm0Dbl5LjQy7eWa2PE4L1SbynnU2vXtpxTTvF8531hPMEgQVngX/Jw/H//t+cTZRLjRCSgR8Yeyizv3t9lnTr+DsgP8sFF/1q1/BtPfeW9eKx54tbPn+/tA+/N24sTT/SFVfl76TjwbkRJevlHXsfcP/UV4xkb4j/GHn4HYw/tJM9KOaRuExsfgwjvAoPHzDPOcGMMeUtZ4B1iEECQ9bjrxJlPzuiJ3jll3heRbdHC3wHiO99jvi0eI572Lz/fyyjfA54zjoupKfoW3v+ZN8//jcN9uNEU4yDCf3K2SmTI49loI5npQb6y0T64EfDvfy8xOviCr8D3oIy+lRtdkzHsvc59952XV/IQw1EcPNjJY94/xtjyDB9AnvBtpu0tb6ZCtA5D/Jse4V7zhAgqJ32cKOwNs1NoC2h3tulfJb+1lA//nlXwd0tDe05+U57Ib8oUbZy/S9rZwYMThsB33vF6RVuabrZIBO8XYwnfufiiybTrGLb4tyzo89C3wLBTTNz+UjOcSIOwXdo7n2fnm0x9I+zQz4z9VYCy1unY4yT7K9RP2v3SszP5XtEOYXDJFuj7ljasit2LFuUTImyySlAmrMV3eDIxsCKe46ZNVlBQ4Iv1ffHFFzZ//vzgreWhCMrxkBfRYJDBBh11BnIMxphmjNBX9M47LiDjock0fjz+6DwzCIhgUMMxF8jq1rW511/vHp909hE4GAzntWvnnXSfclvG9NXKgAcaHWY60AwC3RP0jDN8w6uazv/OvmZ5MKhY0aePiy9RXGHEZfeMxSNszpwScYo8Q8Bx79O//tUH9AxeEHoQF3gPeE5yLoMXBvIMXnZoOnEVgQG4e+B26uTCli+g9+23CTHp73/3AbbHxSwFA1feI6IxMYRLBtFJ2CfEA/nji+C98842x8sDkcE9lfHsa9jQy6vHrVy3LjEI//prH5jG40JXFgZQCCAIHohYeMFiqKHu8Yx45Xl85IYNfTCDNy5CLeW8LBAGuFcG0tw/ZYwyv2roUFuWl+cDT/6G0Dn+F7/wDVEJQT0dCJZ4xiNQuTCSfDeUT8QYRFEX+JP1i+szSGQry2OLd43XI6IRYgSiH3WWe8MDlXaHeoBnLWI17Q2iUv6TT/ognDyJvMbxRnRRf+1afz6EGDdasZgh8Y3nzCm5Z4Rerks7hIDORqgShAn31B0zxkVsxE9E6kg08MUEEXzWrk3Emh43zu/ZZ2mUY0DxeMfvvJMwJuXlJcr8iBH+zIgU/ownnpiI/530go5ChlAOeC8IOu4FfeyxLuRRZiJjHNfGsxLREwEWEYL7pN3jN/BsRrx1z96//MXLEm0wBg3aJowECH9+bcRzDFnNm3s698iuUaNExEd05HqUQ65DzHHyjL/TTrkYWbNmQgg98kjPP56BfRek//Y3D3ETGQZIg7hP28eGIc1D2iBcv/++i33kE4YzRGHCm1D+eW8YTKJFD6mfCKakZcNLmTrghs0zzkiIQF27uniDUY4QNe6RfvbZiRjot96aCCVy+eUlz0AbzPeLvOV6iOfkAc9M+eN9RWFiOEaaqccemxDh8VLv1cvfHfWU7wDiE2013rXuIXzPPS52cn+Ua4wK3B/CF+UPwZCyzXcDUZ77i0LRcD3KAd9QvrMIu+QR5QkPShfcmzWzabfdZlNPPz2xUOoJJ3jscX6T/OBvCMZuSKHNufhiL2NR3HVEaRcyKQPHHuu/T/nguRG1EXhpr6h3Pqtj33392gi2lIcoBI+31bzTiy7yekYbgqjli/a++KKL92zMdqId4XuIgQdDAKI/+cq1KLe8j4m//rW/J4xuPAvvhDabe0SA9hkUZ57pRkHuAUPSnKuvTnian3RSIlzE++97HvM+EMLdaJEMp0I+I6J6XPx27fw90pZwr5QTvuX0hRAAeafUaTeeff65/66LTosXe9+GtpDvERvH6P/gSY34SzqEKtol3jvHqAsIspTdyFjnxkZi/2P4IDRS0mC5+quvvMxjnKFtxNhAfaa8YWwgrRszI/F8/Xr/zXm33OLPwHthwwhD+0+8d9o0X3gzN9fLIcZJyp7nzZlnep6VJSqThndL+eGd+KK5CJ3TpiXWSVi/PiGO9+njRhe+dxhdPNxKcqFUvq3cA+GcPE5/qnA0zL7YsMGf0WcsYQA74QQvzz6rorDQ2ymujREBIz1lmmO8n9JiKu0xZZYNg7PPBJs9298v+U098Dpw3HFennhG2kjaE8osRji+Q7QXHtIIQ9Vhh3l6f+41a/xdRwJ09B10L/958/y3SEdZ47q8L+4FT3zeKX2jkrUGkkIy7S9tPO+f9nfZqFEecnADM8RGjUp43N9+e6Id/OqrxIyLd9/1fMBARB3kvhD+uQd38GAR2aTxxEnGQC/rm5aWpEF93ZgxPnOK9s4NSSlw42bfvm64KP28ZcH75d1Szre55wrg7yM/f5v+S3nwrjg3GrsseughN4STV2xR+0hfIhWcS9+kLEPUjkL5wfC0w+9oB+A5aMf4rrpRKJ5/yXrpjhUxgwXtEkbT+ELKmUq0loUv8lxG33ZXkS7kRfTtqXKGGSFEhcgqQXnEiBH2dzpWU6a4oJyNhCQor1q1quTjRMeSQSoCBINBOuoeH3XgwETngS3ZeaGT6lPBTzvNp237wlRLlvggzT3QGEA++6wPNBjAE7eWgUk0pZz/0+Hl4xfvEHpniUV4EKPo5BcWekfb4/yW51mRDKeAlwjiA4MfOrPuIVWzZmKq+uGHu/ehdyZ3QyeMgSODfGKqMiBGHPDB6IQJLkTh6UI+TPzDH1w4ZPCMJ7MPrvr184EfnpcMlJj2Pu7/+/9coGFgS3xeBvAMSEPCp+CPG+fbZsTiMt4THufzb77Zp4zHjQMMuPDOQTDCK64sj7B0IABR3uLlclfjYtKoUf4v+YBwi3jDYJWBcWWgjhctX24bWShr5UoXSiJBmcFsRbxsyopTuiug3iAUjPtf/8tjIruAdM45LhIR7gJBlsE/Xp7E2EaQoe7vrPcVlSFE1x0NaVBRyHeew0WupKcu4TB474hatHlrx451IwntZVn3w8AaoQgPTcR4hANEadoU4tjj7U94CtoLDzNz3HHuBU2+Ij7SRiGekO/RgpYY5Gj3C19/3dspD53ATIAy6iNQX6lzvCMELgQcwkfQjnPPiEzu8bl2rQ/QEQQ9zjRerMTiJn56jRretvnioIj0fKPy813k84Eb1y9nIMWAlWdni4wtfDtYvNBjdiMonnqq5ysiKuINz+ShX/bd19te8gnDDuILbTTeopQprs23jHzju+ixyo87zgUFD7FTrZqLTewjWnocbRbn/POf3Xud++eZKdOIEghBPD/iLbMwEGrdAHbxxS54e3x4woucc45fh/eI+O2zALj+QQclvqX77OMCF4IsaRGz+MbwbZj32mu2ZNo0y//6a/dg5ZncSHD66f7NRgRB9OJ5qVNch2+Tf4+T3o60gxhYmEnBtxRDDPfPe2OLFotE3PKQQNWre5vFcyJY48XNu8ezlvccxY5HQPNZFzVqJMrA3nv7fdNH4BkRyDEYYKRyT+r/+39deON+eXc8H3lA/4R3RjvB9RHgeAfs83uUXV+YMzfX7xVPag+RcsQRLoLntW2biGWfNCwQbz+Ksx71UzweOgvD0mfhGf74x5IQPoTuIWyNh/Y44ACbevjh3v9AdKJN9dka/fr5hjDL73hZw7u+a1dvXxAM/ZmSMdeZNcJ7R+ylH8U1+c2yhBgXuz78MOGdTbz2Cy90ARQxkXRz6tb1WQDUZd4rdcPL5h/+kKh3+++fCB+1//5u3MFIR53wNuTuu/2+PLwMgvsf/+jCfUk4h6TgyEbd5h5oqzmPvKUPFhkZaZ8IBUUZxSCA4Eq58/Z14cISb/3onjCeY2CMezq7Fzj9TMJ+5eT4NSn/vD/un+eiLmAAoLxS3vk9f5e//a2fS/64uJlc7JHvLf0srk85p55ShikHlEPKAoYThE5EmoV33unv2Wf2nHqqTfzjHxMe/bVqebn38Dx77eWGEYRhntE9t596KhH3Otmm8A3F4EQdZpFcyl9kvPQ2pXp1L9uUFdoexDze9/opU9wogRGVskmZnffMM1aQm2uLR460Geed533e6B1Tt8lP6pavH5EMFeUe92PGuAGDcpr/1FMlIXwib3ryuEKCWVJIdHEXQXHt2sR6Chdf7GWBdgBjgf9OWd+PrVvdIOMLAR91lNdVF7xXrkz0/5cu/Y/RdutW7/fhTMDYhHtGYPdwPrFvA/nM3/mdyDmA7yuCKI4GGD0oSz6+SBp+fFu9OuFcs3BhwnkjmXeUXeoC75KNdxP1yaPFW/2ely5N3DPGl59+8uehvWPsUW4elMLvm4V8yU/i1JO3yRlFkYDsdSA529Pvl0Vs6beSJjlG4t/K9Il8tiEL3CYXsMV4wQLTlCfK7jZ97+Siu9wP328v56W85hd16OD1hX5KlC/RNUoWOk6WH79v/r5yZeLdRc8TLc7KO0uOC0uHXPRFS5N5z2/6VlTkf69MPmwDCyOvWVMyI8Nn3s2d+/NwSjuDUm2s/3/jRiteutSWsRBx3JCQzH9m72AAp1+RbpbUDlH6mrH7qwjePqxblzA67Kx3InYvycXKK/rOdxpp2s1QGD9+vf3zn1kiKE+dOtXatGnji/HlVmDBkxAJRVBm2kxpS+fSl1/2QZ4vmFa3rn8wy1sEB68DOooT99rLB0cIx3ihMWBiYEGHz73gPv44EcLg1792zzQ+wAy4/Nz99/cpuAxKS4NIiuDFoIPBLx1sBl4MPPAwKQs6DlwzEg/wTKLTxwCHTjOdcDycXJDC06ZUR2RXweDFBxoNG3peMJh3L6k2bfzeGLAhcDBYQZAhT+kURmEj6Ij6oPlXv/JBiw8699kn4cH4xz96zNAdEUyrNMmOUyrxyDvbWOmj0Bql4WNHZ5TjDEjL+Y2URMaT3UzUkfYOdDK+J514BkBlCYnbC3Xdp8oxgOvbt0RQLnzzzRJPtpQkveN2dd7Q6URgpR1hEMLgxT1T77vPhVXKfMlgMWlo2qn3lCxD3lnexZ1eH+jiycagLVnuaf/cm5WBypYtifLMQLccIwe/QduB+DY5KXrh1ehi1dFHuwDmcWRzctzI4sLVr3/tIsvsSy7xtG6sSw7mvE7xbSguTgwoGSyTx/G6Vgru0cNsPPusL/TIoC8aPPu7YgCR3McYwPv0mNpDhriojuDlXnIYBkoNuqO0/n5TXX/z5pJBZInRETF42TKPs03bT7gP2tFIrPIp58R2rlfPv1G01R4Oh2Ol3/3WrT6ARKCK6gxiJB6gHqd+xozEIHfZsoSB4OOP3UuQ9t1FyOQ74Rq+UOevf+3fAb6ZPkBessQFeL5bvsBnMnTDqn79XNxDIEJo5DcQqiLvcwQy6q7nXW6uT7/2b+Ujj9h6jFIIcIgc1JF16/zbgsHAvUPJpw0bXFBb0bdvIoRKNHiP8jnZFvuMmmR9QNCKhHufjUB85gUL/Dvuwt1vfuPlbV6jRraRqfXEdB4/3oV93jfhPfj2cy6GUsqjxztu0MA9ZRFDeSafVTBjhgvvGEF88dkVK/x8vIqXvvJKYhbVTTd5viJY8F3H8IaYzO/5Qo08AwZqxIYlS7xdwSufvONeEYQwonNv9DVIO+n3v/d8JhQI4iJGK4wq5BHCF/0MDDUI/dF7oJ2i/Hge/OEP/tt8t3lnLkInZxRhyKGeRumiePgI/G7gqF8/IaxjSD77bCt49lnPh7JEvagN9Ljj7dsnhGmM93hqsyjsb37j4o/Hvn7rrUTc8eOP974VDgEeUmHqVO8r0c+gL+cG7mQZRXjHiMUzY/zwsEJJcZv3gyMBm4diSYYMQkB20Zrf+NWvvL9FeY0Eat49YnyUJ4i1kaGGZ6dvFN0nfaTScF3ev88kwNDy5z+7aB3NFIlm9dB/9XeByH7BBd7fZFZBFFvfY5LjnTt/vr93N8Lwrvbe29tP8g+hHSMFfVYMa1EdwNCEUEoZiWKr0167d3Nhobcf1G03GLEuQM2aCTGSvttee3k/lHM932+/3Sb85jcuNnK/vK/IuEIZxahAnnI/nk+E6onEzd/8JjEz4M9/tjnXXmuLn3jCpmEUwahx//3+jsk/F8uvvdbFTIzw/h4PPNDrSjSrw78FSeMeC67iDMK78udv2dLreSpoF5glQj1y73rGBq1a+e9xvy5i165ddmxpPNQLChKLeP/2t56G/5OXtImEpUJoxqudNgzhkedzoxYGmv339/JFGY3PVqNdKvroI/8dxH3qwJzLL0+I7XvtlahjZ53lBq9olgwbZYy2lHdLPkSzL6L+vIfDOvBAz2veF8YFPO8JHcO1eFde7l57zcsN+R4ZCMvMgxiIsbR31FsEcPIWoyDtI0Y9yi7lCIce2gjaS/J+4T33eDl3gTO56GpFFlAvD+oVdYe2m7qCsSb6DlGueEcRfKPps0SzdXxGxfDhJcd9lmbyG0vZjGY6YPghxBFtI99p+hDcty+A3KGDb1HMcjyCmeHk9eWUU7yc0NeIoI2mfPtC1Y884hv1F498D7e2E6CsMt7FM92NjHvt5c9KfdrZ4FCDVzcb/6e/Qb9jOguKE16q1OLKvujxoEEJQ/1vf+uzpSizKfv19C3Lc9AqC/qEpQwW/g0YMsS30mUhFZQJjHZ8u+k7ldWfFVUb79MxO2QXOxaVpmQckGIMEAqTJ6+3du3ywhaUV7Pi/fr1NnbsWLv88svt5JNPtjp16tiNN95ozZs3940YymyEvgiZUATlzZs3+wrRiEx82OnE0klByOSD7tMyS320SkPnjQGQd6hq1PDOFZ11Oj3RFEo+vgjAS55/3jsmHjKAGFyLF7vXDoMCPv503krj017POCMRf5nOw8knlyzCxLRUOidMS41ENqZH0pnw6bxHHOGDEwbhPrX3yCO9o4dHGh1EBgJ0SOm07Cpo/Mg7vFzcu6VnT2986dC6Z9YRRyQ6o/vs4wNxD9GB4BKzctOhY/o0QgjPFw2E8dgiLZ6L5b0fEQaUcY8BXUkPCOo4bTh1HhBHfHGnU07xTnxV69gxAGDwwGDePU6Y0puczp1uQJbpuMgctQcV7EAhgiI+RQsAMjCmzXPv5w8+SIiI69b532iLaeNdWBo+vMTrqbJ4/Fk83IjHmkLg5/mic0u8sCh/KdLsKC54zp/v3q14/yGi0TZH5d3joA4a5GsFkFc+yClDvEaQRCxhyjiCGIK4D4oRLEsL4Bs3JsTQWbN8oIXRFc9RhF5E0Mj7EW9EynIE53N9Br+IIBggMYpFoThcZLrhBv87741vAd9J6klkhPKwGnhWz51ra5i6X8pDLIJ7jULSgHt8Jr3DKoJ77uXm+hYZZSk/CGQM5vlWE1Zi3ejRJeXXhaCCAn8PCH+UOQQTns3LwIoVPkBmwMzv8A48XxGq8JwfPrwkDj7nk2/se7iCyZMTcUwxijCdfeFC/11f0LaMZ6It4RiiPwNuD9MxebJfG7EXQdbvf9w4vwbfZvIzClFBO0RfCdGJMoNRgOtzjx76p2VL98LDmIOggQHDDRD33OPCAOIIoR88vMthh3m5wNMZ8ct/e/z4xLTyN94oWZC2LIN+aSLxCK9urk0Zw4sTI1IUrsFDh+y7r4uMHmoMIxGee3i9TZniYhThG/jXPTh79/b6wnumHFL2ffHP44/3f/HI99j3LKK7776+j+hHv9G99a+6ykUiFz3328+NDPTd6O9QB8k3D52C2HjRRZ6fHut45kw/h2sglpEX5A35wf15eJdzznFRF4HPPbAxxiUHuW444lpnneXvh/JDf5N6wu8ixCJAci6ezB4j/dBDXbxDnEYcom2kTSC8W8mChJ7RP3mdx8hL+8oz8H5KfztpX7kubTCCU7TALX1PrkP/j/eEeMbz0zbgBcs+ZYL3h8HLQ0VMmeLOBi4cnnWWtxvcO6LlctrukSMTITNq17Zp117rz+1x85PhO3hm8pSNMo7oxbUR+gmvEsWbp7xwTQR9D/nDDMMLLvD3hQc075H2zgW9nj0TzhpPP+3lHbGZd44QzTgAQw5t3rSjj/b3Sr8VoZ9rlY4tTRvJu1nyxBOJWRKMHwjNc+KJni+UPd6Ne1kfcogLiOQhwqkL9QhmnTp5WaNsM/sAAZ53SlvA+IN3OY3FXQ85JBG7v2ZN/x3qnMe7btCgxGDl/ybDlnB9XwAT55rDD/f3TTkgH8krn7Hw299635wyE61v4OMUZmqwcPIhh/h3Yu3w4b6QLusXuPd1165e7/zd9uqVMFix3kVysWLGJtHzuQGGNR7OOCMxk2C//WzB7bd7ecGQ5jM1cKAh3BLjHmZtsOAw9RPDwLnn+rtirOXGU8Ly9O6dKNOM5ydNSnzz8PBes7WSNCUAAFb1SURBVMa/kR72a+RIbw8pZ7xT3om/I9ZyoP5fcIGPsaIFXREt3bOeMnjwwSVpqK+MEdkwjCBEe4ioiy5ywyZpqXdu9CZUDM972mmJtRnOPLMkhBWGD9pTyizP6uWT8HCnnurnR6IxfysJ6cQsgihs0rHHehmkvLrxJxnyhG8S/4828iAO5/i9Jvs0vDPeD++ad0/95Z4oh9RhDK6RgZ8ZHxiNmEnBRl3g7xWBbwFlmXfIRlnz8D44Yl1+uc2/446E0eOppxJr7lx++X/CU5GGxZNr1HCjRllGBV8vonVrf2d4NGNYT+Wc5PHqBwxI9GOS64Xw7qJvAN9+6hv5wzOSBxhwMbDxrXUj2vTpiRBThOli7ZMrr/Q+0s4WJvm+UX7LG+P793LOHHfIwsDtiwqPGLGNRz3wXYlCvGzPosI7C3dMaN/eHf0iypt14LpKJWObe/9q3jxvjzCm++LHMaI1Ony9lGSYwl2Nz5b88kvvU+BQRF2PjJz0X5hF59/hNP2kHcX7FpMmJfqAu+gapcnJWW/t2+fZYYdNtBEj8m3NmsqN/fc0ZQrKPXv2tIEDB9qsWbPsscces7vuusvuvPNOu/fee+3BBx/07aGHHvLtm2++iScPilAEZUJesMgihoJFjz/uH3Gs9T5ILaPRKo03yrNn+0cdyzOdATqSfLTZPM5nMnQFFvf41Dk6lnzQvKPZrl1JzFcGe3gkeEf3oYc8Th0Nqk+BveMO7yj5Suenn+5eUnRK6RR53GEWF3vgAe8YT/jv/y4ZhNMY0PBgFY1ENEQVBCoaCV8Qj0V+WOSJRaUQYMaPTyvi0biUZWX1zlufPomOWOPGCREsubAZgy7vHLDIWIsWfg/xD1kEHTWmDvL8DGpdkD7/fPfcpLPggvouEGFEeOCdTOw1YrCBD9Jff923+AyBqoB75UZe6CrjaYnaYwaoDNwZxLkAggiW9EZ18Agj9uuSJSVTgbMdDwmAR2/k3VyOuB555PgiZhWMpY4IgYCIIOdCM3Gg+/f3v8c7p+6tTFzoUoYE91br2dMHrPyOx3hFrP7mm5TGFdZGwFi8u+Cbx3cYsYNnS/ft5Ptf1gA+Dt/NeBz9baCM412fpr8Sh7wmH11cZcbLqlWJEBSPPeaD0VQLuPl3f+FCFxoiowj34R6s48a5wMaAlfpIeCYExSimbpSeARLhMvg37t21BW/qmLdlRSgJmZQc0HMPeDIycKd/Rv+O+yvLCM0ze5liQUnahZgxy9/vhx96f4YY1YgW3odp1swFHfo1LsqsW+digwuyyRj5CEl4gjMQdcFlwwbvY9IHo70ibekF5BikIvTTT0O8wtuV6yGYIAwhLjPTzRdYjOUTwgiiI79JfpT2wKOf5wIy6y+0aOEDVMQgFuLk+rwjn3VA/NHkLI2yIH/dOFCGOESZdlGdhWSvv96/r9HsC0Qxd5RICmE4Y5A/Hm96xgwXbUlbOtayf6d79fKNNp0yGoXE4tkQAGfgmd24seeNx6wuZ9DLrAvyxxf8ZZYb3pV4IE+fnliweNAg7/9SZgjPgWcqYjL9bYRJrhUtYEnfFvEegYjnRLTFK5K/I6byzj0kDnF3P/jABSfy2p/h229dWHUDAeLSKad4nHOMGazRgPexL7568MEuPtJfpuwi4uH9zTUQjz1s0RdfeJ3FiYVjGBrIB67ncftZnPeOO0oW/8Wwg/iJIIGnOu0V5dC3V1910RoRx40LzZv7uIOyQX2gDmAM4b4pR7Tj5BmCp4csql07sQhx+/YloXP4HUROngmBmjLH94NvNKIM98wYivtn3wXV88/3/PawVHXruoDJv/ydesz4iPGPry3w+OMujHOv5BP10/Mo2mrV8t/GE99F5gsuSDwXXsE33uj5hNcrvxOF2fG44Ndf70YMF4gx/Oy3X2KB2LZt/bcQr1moFQEc46iH/TnooISHd+fOJQsP+2LWyTLEffBe+S2uTx318EhHHeVjR96Tx+SvU8efl30Xb1lP5ogjvPwggPoYjZj0Tz9dEvaGfHPhuEkTNxwxmy3a3Ohw7LH+TjxfW7Xy6/k1W7Ys2TiXtjoS+L39YlHSO+5wpyjKAb/P+2LGBW2FGy5atvR6wT1wnHEreell8LTTEoYK1gQ5+2y/hsfCZzxILPRvvvEyxbfcjYnvvZcwLHfr5nnhocAQ0Y891qYwo5Uy0rGjTcEYxP8xNrC+BrM8WFj2zjvda5v7Jh3vm2fhWm5I/fRTzz9EaN6P1z8E4Usv3cbLn7aFdsHD3hBeZeJEN6ZjcCXcTjRGJ5Qk5SVaJ4P6Sn4gNlIPIrHbF1zHuzppEGQGdFReMK5wXXdGKCs2dxI3GOfnJ8L/JEMHlQXOZpQzyib9rkho5NvEM9GWUi99/RLu5+yzLZdy1a1byVjIv5+zZiXWUjnzzMTCtG++WWIgcUPrqlV+L7QDfBvdWJNcRNWNClOn+vukTaEPFxnFy8INbMOHu4jsxsQZMxKLgyfblcgT3NcgeO+9bUJdUp4os2gfaBzltf/l4WOEZLgc7tVDOJ18ss+KcANg8n3wfgpeesnbBF9X4Zxz3IgSnzXO95PvmH/PRo9OaEFp+oOl4dtGHhCmjffFc2OYwRhMOee9YQjg776OQqNGft87ez0p8tENQ6+95uXJDUZlXMP7M3PnJpyfopmZlaC0oDxs2GJbvbpsfShTKFNQrlu3rj388MO2bt06mzt3bsoNkTJkQhGU8VZcs2qVrcjNtR/r1vWGk05gRaHi05ngY+KDhe1YdCLyPuKDS+eBhpAGmobC48m1bfuzhVkQf2m8fdosHfNkOAnvpOy/v3sERQ0AHzqmtjH4cI+npNeje8awyNTll/tgBs8YGitf/KZWLd+8k9W69TaxPONEHhZ0jD02aKnzXCy/+27vQNJxiv8GDax7jaQQBMqC67hnwu9/752jdAudCBER91CmY+PhDJihUE4nR2QedGI9ruJO9voQew6+eww03ChbwbqKmJyta1zsMIjCeAClMCpsN3sq3mASBosMdBDdWFiwIiJ+KhA08bxjUI447d7qeFeX097QJyT8CYNPj7saE7MR7uN/gygkAwNXhBIG/S7Mf/99SrE3FQz2GIy7+MSsuuQCe3iRlmfU3xFcfEcY+OGHEsNA5F1PCBFERcRB/vWZI8mZDjsCfdT8f//bFrz66n9mm6SAd0Z/m9AFOHPwLn3WQhntiofEGTEiIQYfe6wLSbwPHDYQ8jy8QdKTN7dxY38/iIb0xRE8PSQOIZzwnn/0UU/L7EIEAMRKBEp+h7jsCMM4TyBG+gw8wo/sv3/JOise/i05O4+yhBAcQdlDvECARexzj+5zznEhMFqcF2cMxgW8k3TlJ3KCQbCOL97nRsXBg10ool2mr48oiFjmC1viGb5woYvvONp4yI/99nMjDOIo++QBYh/36IJ8o0Y+nmH8hRCJkB8tIsyiighYvp5B9+4+MxFRDzFwyeOP+70i2jC2QYxjTIEYGW0IsMzWdE/mGjVckGH846FhjjjC88tnTBIOCrHmnHPcG5rwN7wjBHgEUsZFiHCMeSizCLMu9OLFjXf2iSe6UQAhiXEc4zmuTUgXBCh+C0MFApAv7nrccS6U8dwIp+QZG0YdhE33iJ8/vyS+OudxzdJlnHfBuawPwTOQlz7bjhlQUQzlVav8mgiXHiu/Vq2EQMusjTI29/ROrivB2NINP8T9J6zJCy+44D77iiu8DER4KLEXXvD67N7qhItBQL/iCg/FRB2j/XUDwgkn+HiT8Z+Lxg0auGGO8bPPZrrgAs8X93Y/9lg/7uFOWK+hQQNb3KWLLWaB3mOP9XA3PlZlkeInn3SDDPlP+4Phmt/EsIOAzv2xPg8GligONvlFvfSY+ywM3KyZ10PaFLyRfXHee+/198a4mXP83R1zjIvBlB2eC492jEYuINerl2hfjz8+EX8/6a1O+fMQRxde6IYb3gljcMqdGwDffNM9hRFefbZRNPuJePMrViTE9g8+cGMBz8q/iK4++2zCBP8uuKMEM4Pr1i0R4qNF7WlDMCBRlnmGaHYGec8WtWPu0c1ii0uX+rdiMqGpeA6MZbVqlSwYz71iEEHI5D374tPnnuv5Qf1g8wWlzz3XveTJE9qgKNSLzygrLEzMHCGu+xtvJBZmP+88N9Kiq3D/GP28HBCfH8NdtWreliBu0pbzTBgxfL2D5IwnDBTR99hnJWLcpj0pKPiP2JwMX0J7SFvmRtpPPvHyTftAmaesRnH/+c5jHMXwwDtzI1GyDcP4Sxkg/9kQ1plpQ5mlPaPs0R64A1wpyAOfqUiou+S6RZxDnaZMUr4oU/wGZYjn9jYeIw2LUBMm7Yor3HGQ+uYhhuJOGuvXJ8LSsTYIfTtm0yWNtx6eiQVp585NGCkwiJcKq8FYihk00QLc1BneYZxo7THuBcMkRnO+A9Eiv2m/7czGS8bfp+2aMqXYHnggCwTlDh06uIdbum1LGZ2TkAhFUEZk2rJ+vVd2j0nVqNH2icJ4xc2cmZhimrTMbS90rtzy3b69V3S8N7xxePXV+Kkl+FSU3r29wWEqGdZ/rNp0HDlGp4QOHg1etMhURIln9NFHJ+KwsVDJfvt554hGsqQTsffe/jH10B+LFiW2xYu9geAaPDMfT6xmiN80Pj4Q3brV74PON4MGLOk7E18M5Ljj3Ppa3iBOiLIoiaEshAga6rnqutjTMKCLvH9LQkdUEEQCRBqmuvvU6BRe4xWFAX3hW295/wmhxRe7TTfg28nQb2MAGy3QV1k2Myiv4IwJFzu7dEnEn77zThcz0t0D3m8IMAyqEU6ifrZ74DGzr2tXFwI2IcKwYPJtt7kXZGnjBYIDgoAvkvinP3kfG2GIWO6l8x8hC8GUWXgIaz7TJuq3t2zp/XZEzrg4AQiqhClBzI8WgN1TIGzitc34BAELYRHhb9x//Zf/DVEKUc3FBDyfhwzxOuKhFcqBYx6797e/dXGJsUk6EGcYp5BveGAiVlPuEXsIkYWogickYpg7BeXkuHiIaIpot4UFC1nE+c03fUZAtC4JecssAcZIPBf/95kWyXeJOISnLCIkMboRdJmajmiDeIUgSSggxBrEmFREixWXNSuI9oV3jeHBZ5WWE2eVsoh4R3lCQCMfytq4l0iEZ2zIGJL354vG7ruvjxnLG3vxfvh97oV2xeNlM8MmuSHW+jo+yUVJWciVOPy+KDH/HnCA1xHEYkJ9MDb22bV4u06b5gYON3YsWuT3QP1lxkFZRiT+xpgckZT48L4wfDK2Pm0qBsFoVghjWg+dc8wx/i9jYO4xioXva0Dsu6+/s5X9+7uXKtdGTI3HtaVe4iGM4Md1OIf2gzE28ekpW8xAoaxQTyNjh68T8ctf+jUZu0fOVnguIwjPSS5+HC0IzPgcQ5QLuvXre7vE7yHe+8LDp5+eiNW/zz4uBJJfGB64B94p42j0Bs/PuXP9fRHvH00BAZ3vjS8Uiw5w331efqMwKgjM5Em0UC/vKpq5QXnG8582irTs++xpZiKceaYLuy4mL13qZQVD3OzatUvWVfCFtGn/CJFz9NHu4U87SHtIqCLeIedF4UXdM51yc/rpHmKIY7xDDB7UF+oNhj42jHA+e4nZFmvWuPBMefT3y28m4+njDOd1AF3kxBNdi+EdYuxAuKadQCwl78kv2nQMRmgyfA98hjj3SlvP8/zmN35/1C33gE+2EW4wGzzY34XP9uD/zzzjugl5wD1h+CQvuA+0FL47iLZcD+MiC9pGC9t6mD/CnCSN+O7pjOGmRw9//5R3nt8X6z3gADecRbM13Jjx+uuJsKzMjF2/3r9hGE/Ia4R+1h5APOcePFRcMmxOFM6Kcskz0x7Sx2DzkF2ETFu0KCHoJ/swLqYXFSU87nNzvW3FeEgdnza+yDp2XBS+oHzbbbfZ999/n3bLq2Qsl6pOKIIyIS9W0rB99ZULylig417B6fCwFtGCSzuANw4slpL8gPrifS1bJhbUKY9kXEYqt8fdOvVU/wBEHzefLs8UmmTHd5sBA4udrViRiAH13HOJxXaI0YhVcvnyRKwoFjegcU5+SH2RnD//2S3tfKRoOLH2Eo/ZF/HZe+/E4ix8KJcvd6s6jZwvGDN2bOk7rzTFOTm+WJN7f+xgnovsAzGZmSPUeSFE2ERrXgixR4m8vlMsslsepPEYrYSB2Ulx3r3vSIiTlSsTYVf2hOiIiJgUmXYG69autVUVFOt9qn1+vg+i3ZuxAs+Pt6MLMni/saBh1M8m1v+6dYlY3MnQNJ63RUUJMbnU++L9MajGG3zNN98k4vgiysXygH6/O2r8+tfuTYhDiJPst/tCkoRNKSvvknHXPQROqbj2e4JosUuPV920qQu3CJaII4wjVvTunXj+pLc0952ujpCniDsIdYjDZXn2x3EPvbw8FyZLL87q9Yr1C4qLE+OeggL/uwsxiCU4zvAOuZ/ke90mT5OhhtyzcOXKxL3ExlmMUQjDwRiK9QN8OjgL5bIIbfv2ng9RSMBUkC+eN2W980g8Sq7FUO47j8prcgHkcrfVqxNr/DA+ZKFFFoQeONA9TRnrMVb1NX/Kek/kE3nCrIsov0ofLi52cQtx0Rds/f3vS7w3CWeFWMv42z0qZ89OLK6YzHP+pR3dyILVxMtlkWbqWXmLJeMstmqVG3um40nKwq/JdYd4Pq+z0WzF5KKaPKMvdImQWKuWh+Nxz+rzz08stNu0qQuJHiKB6ydDPW1zWWY+ErIpuUgx50ThGplZ7EJx0vGK+8ADG0EUARpPW/IXUdkXf83J8XG9L4x54IFuRCG/GGv7eSwg+7vfJcbge+3lxhY8thGoaTvcOPLMMy4e8puIfgj5/N3LenImUiTwepiQ445LxAo/8UTPBzQJ97pH/CMW/8KFbhihLSTmO3UR4xF1DC0D4dGF8b33dg2BsoOoiyiNAI1YTntKOAeeGQEZYw6zeBD5CYfjC5Qm2z+uRZ2nvPDbeBEjzPpskX32ccMcseS5R5/V06KF6xaI5pQzxFAEXV/wda+93AueNpYwKIjdCNkI1rwHD8lzxRU+KwXjCyKyi+fJhXrdka19+0ToDgTR1au93PA30vKOyDPP55tucnGX+/dQJ8lQSIi+UVgVjFCI1G602HvvkvfpovW99yYMCfXq+T0i0hMKLPp+kwcu1jPzifqZnH3ATBY3wEydaosffNC1IV+EFWPopZe6gB7lC/fkCygnjRT8n7/ntW/v+ezxvo87zg1rLFzNtfBmR5j3xYEJ+3LeeYmQM8ce68/phhieg98ttfhrJLpTp7we5+a6F3YUP54yynkYBUY9+nZ2CMrHHHOMXXHFFWm393eyV2ZVIyRBuWjxYlvWu7dPdcDqWFYA/12JB3m/997EytynnOKNOVadlKvTJvEYan37+lQz75yV/sjzoUt2huIfPWCQguAcLbZT+hyfxjZkiDdiPtXo2mvde5tYUXysiBWFpZJGnYbNQ2WcfLJb9rDA8oGgIcHixXV2Jt4hTNWREKIM4jGUhRDhsrtjKAsh9gzUc+p7RfGZhXPnJgShsoSxGIiOiCBMLfd+eQXSlEkypj+iXYmBINaHRUxjwM5aLogeccHbxboKCKl7mhLPynr1El5qTM0fP96nUPN8Hqt1O/PRjQF5ef47nr6i/f+k0F7h83cS7sU+fboLR+6ZmRRYvfyxCO3HH7vnevwd73EwXuCQtHBhQnxfsiQRKueMMxIetrGYsdtDtLAlQhRlwcOTrVqVWBi3VLxaN9CU4fxB/51+PP35dHh5WbjQjRkIfzxPmWNinpfQIJ9/7t65hHIgtAllDOHLQ7z07l2htRHKgjQI0bQ57uAV/T25ZhL1A+EeoZd/EUnJa/QIxtQIlL5wHovUck/z5/s90UZ4XOxbbnFBFGc0RDz3Vv7000ToD8LlEFO5SRMP70GIh7LqAnlF/kQGG/ea3n9/92bfZrHCpKBJW4hGQJ5EbSLaCfHFETeZgRCtj+CLyg0Y4O+ckCoeFoSQnccf757DzE7wRd9Y14Q1rSZM8FATHisfQT650LB76RcWeh74IsADBngIKs/XZPhCfse9fC+4wEVOruVrQ730UiLON/HqidfOvRx+uIv8HsZm4kQ3FiI2RwYi3j1e9bwDBHHaLV/zqdS6BL7+yKxZ7m3tHtJ/+pPrJVGccO6J43jrRot2ItT64q5Nm7qg6msx8K5btfL3TDnkOtwHz+xrjowdu40RkTLANVzsX7nSDR+UG/fqvvTSROieZKgdDHuEc3Ev8D/9yUVl3jPGSdogyjaL3/KMaDe8I1/E9bjj/Fz3MF6yxMsYWo+fw8KthBCqUcPfNTqQL7j88cfeRvAOcFb0xUSbNi2J407ZxHDka0QkwxyRL9GGDjbyyub2eLMR4QvKderUsc6dO6fdRlVgKk4mE4qgTGiSdYWFVtCjh8fCYirA9k5LrCxYbVnghIXnos1XDq1g5yfyNtnZuNV22LBErB0WTvj2W+8g0uh5/LGjjnKvDToIWF998YhkDGYsTpyHla9MTwohdjNMf8djMfRwREII8/jJMh4JET7U81Dipbsn84IFiSnbhH+o4DigquFej4WFLoYgfkTevL6YV1FRmWJhkCRnk5Y1DnLjQgaUW94VghLiImEkSouiOwLCIx6QiOzbaxyh/04/fnvCWfkMkTLyP44L23gVx5y5eEduBColJO5MPI5+Mk99Ybhnn014zx5yiIuEeJYyK6F0WaGdYFzuQuuoUT4Gx7uUGQDEH/aF4pLex4jqCLDxRVrLAvEWwQ9BELGXurs9ddXDAH30kYezcY/apHjvhrJ3303ETyfueI0aLnSWeU/UGWZ9V+CdxXHv1+RCqITxIH+ieL7s48FN2A8c99yLm9keKfqJLvpPmOD5H188uDSUY0R8xFTyL75WA9fHyxfxGP3E16xiEdXkgoO+IG7SUFY6hIuX3aR3fqpvAYI4orIvhHnGGf77iMiE11k3ZowbIwhvgWMg4rE7Tkae/8xoX7HC3x0hm6LY1R6n/sknS2ZIYJAgrjQeyAjKGIQwVvDcODdGBtMonBXfL+p4JIr7oqfHHedlwBeMrV3b46Nj8Ik2Ypz/UOuv9uI5j9tf/jLRBg1aZitXVrz8VUXKFZRZlE+EIyhj5dxQVOSWFBdIH3hguxrPbINGjQ8VKzmzoB9CeARW3aihoNHy2M1lxLYSYk9AB5QZCRXxbBBCZDYsvinjkRDhQz2PFtsVQoQL/Xf68dsjKGcSkfc6XsIs6IguQSiKuEAZh/E2oRfwTMWrtrKiP2P3Ci2oth0w0wNDGfoB8Z9xVtudELKDkCF48OIRjPC5s/WeVMYLDBVoJiym54u8nnWWC9AlaSpZphF1CR3DzHC8jjHelcyKQBifPNk9sMmH8uAeEZF9ccSWLRNrDCQFZQwYeLqj8RBOg/Lhv1/BMoLwjIiMWM1GOeCeSoPHOE6JPfa51E44dIT171dkRUVl52emUKagXL9+fXvsscfif85KQhGU+TAtz8vzBpuGG4ucSM82VrNSsCgE4Te8IVMHX1QhFPJCiOxBIS+EyA62N+SFECIz2Z6QF5kMsZ8Rh+dcfbV795YnUpYG0Q9v5VSetFUBFyj3kD6ApzBOcaUX0NyduAf1nDnuvOhhInC8q8C73d3gYU5Zcp2n1EaMa8om+ecOg9uRh3hfE3qEeOR40+O1HBf08aQmPve/f1HT6h36jn3Vb1mYgvJ9991nPXv2jP85K5GgLMqypvGh8AVB9tDHQojykKAsRPYgQVmI7ECCshDZQbYIyngkEw7CF/GrqOBICIM0C1tWCcrQDnYXHps7uSjinoLre5zmXRhGpbJ4yJFokc9Sm4d/KRXKZHsg7wnNsahtWw+7UVYcfLysWbgweEF5+vTptpCg7iIYQZmPUvGyZYlVOmvW9OkHQojwUMgLIbIH6rpCXggRPtRz6rsQImxCD3lRGnfQyoAY20JUFMRoFhwk7EZZIVGZ3T7/9tvDF5TFfwhFUKYjujY/32PFEICcKQhCiPDQonxCZA8bWNxKIpMQwUM9p74LIcJmRxblE0JkBpGg/O4vath1h3a3Qf2WSlDeHTDtY/Lkyfb111/bF198Yf369fNtwIABNnToUJs2bdoum/IZiqDsIS8owC1b+mqqxHcRQoSHQl4IkT0o5IUQ2YFCXgiRHWRLyAshspFNCxfaghYt7INfHGU3HdrFBvcrkKC8q6EDhXDcrFkzO+mkk+zggw+2atWqWfXq1e3www+3v/71r3bvvffaDz/84Na8nU1IgnLRvHk2v3lzm3Xhhb46phAiPOiArlixQl6LQmQBq1atsnWVXOlcCFH1oZ5T34UQYUP/nX68BGUhwoPF/ha2bl0iKH/1uQTlXU6PHj3s5ptvttatW7uwnJOTY7m5ubZgwQKbOnWqffTRR3bLLbf4hvi7swlFUPa4qgUFNufyy91DeVn37vFThBCBQCdUU+WECB/VdSGyA+q5BCYhwkd1XYhwKS0oNzmki33y3mIrKKiaCxdWlCovKLdo0cLatm1rEydOtKKiIp8GEg2g+P/SpUv9WKNGjezll1+OJ680oQjKmzdvtpXz5tmsSy6xWRdfbEXvvhs/RQgRALSNq1ev9jovhAgbvBYVV1WI8KGeazaCEOFD/51+vIzFQoQHC1Euuv/+pKD8on3+Ya4tW5bZ/fgqLyg3bdrU2rdvb/PmzYsfcghcj7fyjTfeaC/tgrjAoQjKTJ8pnDXLfrzkEpv9979bUe/e8VOEEAGgGMpCZA+KoSxEdqAYykJkB4qhLETYLO7YMRny4gX74pNZVlhYHD8lo6jygnLnzp3t7rvvtq5du9qwYcNs7NixHi+ZbcyYMTZo0CDr0qWLtWzZ0vr06RNPXmlCEZTdQzk312aefbaHvVjxySfxU4QQASAPZSGyB0Sm4uLM7ogKIdJDPZfxSIjwkYeyEGGDoPzh/z7cmh70pPV9f44tXSoP5V3K7Nmz7eGHH7ZTTjnFzjnnHGvQoIE1bNjQt/r16/uifCzW99Zbb9mSJUviyStNKIKyhwhZtMimHH64zbnqKlv15ZfxU4QQgaC4qkJkB9Rz1XUhwkd1XYjsQDGUhQgbBOVP/lc1a7lXG3vv9XmWn78pfkpGUeUFZax0rGo8bdo06927t8dJfuqpp+yZZ56x7t27W79+/Twcxq7yyAtFUPaQFzNm2KSjjrLZ9etLUBYiUOiEsjo0dV4IETb0fdavXx//sxAiMKjn1HchRNjQf6cfL1FZiDBBUO77i+rW9uC29tn7M23p0syeaVjlBeWIaAE+4iXPmTPH5s6da3l5eR5jiDjKu8pqH5KgvGz6dJt41FGWe9NNtmbYsPgpQogAUAxlIbIHxVAWIjtQDGUhsgPFUBYibBCUP/tFdWt3SFvr13uGBOXdAR7IeCK/+OKL9uijj1qnTp18e+KJJ9xjmTjKhYWF8WQ7hRAF5Xm3325rRo6MnyKECACMa3gyYWgTQoQNcVVlPBIifKjnipcuRPjQf6cfv6uc5YQQe5bFnR61z/7f4db24HbWu9dsy89XDOVdCp7IxEe+44477Oqrr7bLLrvM6tata/Xq1bMrr7zSrrvuOl+077PPPrPFixfHk1eaUATljcXFVjBxok088kibf+edtnbMmPgpQogAoAOKAUmeDUKED6G+ZDwSInyo57sitJ8QompB/51+vARlIcJk8RNP2me/q+GC8tvd59iiRZntGFLlBWViJbMAX8eOHW38+PHuibxhwwbvVDEd5Ntvv7XWrVvbtddea++//348eaUJRVDesHq1LR42zCYecYTltW9v63Ny4qcIIQJAIS+EyB4U8kKI7EAhL4TIDhTyQoiwiQRlQl58+s50KyjI7NlHVV5Qbty4sYvJy5Yt8waWxjWy2PF/xGUC1zdp0sRDYuxsJCgLITIJCcpCZA8SlIXIDiQoC5EdSFAWImwkKO9mmjVrZm3atLFp06bFDzlMCeFYo0aNrGvXrvHDlSYUQXnT8uVW2LevTTzsMFv85JO2Yfbs+ClCiABQyAshsgfqukJeCBE+1HPquxAibBTyQoiwyX/ueRvwx+Pskb1vtl7/+tEWLlQM5V3K22+/7TGS77nnHnvllVfsgw8+sA8//NC3d955x1566SU/3r59exsyZEg8eaUJRVDevHSpFfXubZMOPdTyn3vONs6bFz9FCBEAWpRPiOyBWVoSmYQIH+o59V0IETZalE+IsMnv/KIN2q+mPbvfDfbvbtMtLy+zv+1VXlDOy8uz119/3T2QGzRoYM2bN7fbb7/dPZdvvfVWu/766+3GG2+0/v37+/SQnU1wgvIhh1jBSy/Zpgx/HiFE2SjkhRDZg0JeCJEdKOSFENmBQl4IETZLXnzJvj6olnU5uJF9/GaO5eevj5+SUVR5QTmChhUPZDyUX3vtNReZP/nkExszZowVFxe7NW9XWPKCEZQLCmz5u++6oFzYq5dtKSqKnyKECAA6oMSVl9eiEOGzatUqW7duXfzPQojAoJ5T34UQYUP/nX68BGUhwqSg28s25LDTXVD+sOcUCcq7i2gBPjpUWOnZmA6CFW9XCMkRoQjKG3NzbclTT9nEatUkKAsROKUXLxVChIvquhDZAfVcApMQ4aO6LkTYRILyC9VutG5P/Wjz5inkxS5nypQp1q1bN2vatKnVr1/frrzySt+uvfZau/POO61Xr14eGmNXEIqgXLxggc1/4QWbUK2aFX38sf2kOGxCBAkd0dWrV9vmzZvjh4QQgYGRXXFVhQifyKlGCBE29N/px8tYLESYRILyi9Ub2VvdplpeXnH8lIyiygvKo0ePtueee85atmxpbdq08cX3OnToYA8//LA99NBDvlgfojIL9k2dOjWevNKEIiivz8uzuV272oTq1W3F55/bT1qwS4ggUQxlIbIHxVAWIjtQDGUhsgPFUBYibJZ272FDjjnXQ1580GOyLV6skBe7lI4dO/rie927d7eZM2d6Z4qGlpjJxBKbMGGCvfjii75g31tvvRVPXmmCEZTnzrXcxx6zCQcdZCv69UN1ip8ihAgAeSgLkT0gMrGOhBAibKjnMh4JET7yUBYibJa+8aZ9e/wF1u2A+vbmSzm2cGFm9+OrvKDcsGFD69SpU7mdKBpbBOYmTZpY586d44crTTCCck6O5d5yi0088EBb+eWX8cNCiIBQXFUhsgPqueq6EOGjui5EdqAYykKEzbJeb9mo4/5qb/7uHHuh4xSbMyezQ9dVeUGZcBatW7e2H374IX7IQUz+/vvvXXh++eWX44crTSiC8tpZs2xWhw425dRTbfXQofHDQohAoBPK6tAKeSFE+ODFxALFQoiwoZ5T34UQYUP/nX68RGUhwqTw3fds7BkX2wcHXWTvdJ1geXmZ3Y+v8oLywIEDXVC+6qqrrFWrVvb444/bCy+8YM8//7w98sgj1qJFC6tXr57/nfAXO5tQBOU1s2bZzA4dbNr559vqESPih4UQgUAHtLCw0BfwkTeTEGGjGMpCZAeKoSxE+NBvp/9OP16CshBhsvyD3jb+nDr28cEX2Hsvj7e8vMxecLfKC8o0qIjKCMb33nuvtWvXzu677z5r27atb+w//fTT7qW8Kyz3oQjKaydOtJk33mgzLrzQ1owcGT8shAgEOqN4MimGshDhQ1xVzUYQInyo54qXLkT40H+nHy+nECHCZHnvD238eX+3j6pfYC8/MclyczP7217lBeUIFuAbN26cDR482Pr06WOfffaZDR061KZOneqWvB2JGbpp0yb3ah4xYoR9++23ZW7PPPOMHXrooTZv3jy/BosBcj06dlyP32Cff6N4zuxzHufz/+j+9mTaFd9/bzNvuMF+rFPHVgwfvl1pK3NdpVVapVVapVVapVVapVVapVVapVVapS0/LWJytL+9aStzXaVVWqXdfWmXffCBTb7sH/bZmdfZy0/lWG7u+gqnrcx1d1XajBCUeRCmeRUUFNjixYtLtvz8fFu6dKmLzTvijUd8orvvvtvq1q1rtWvXLnM744wzrGbNmjZt2jS/j3Xr1vk1o6ko3Bf7/Ms+f2ef8zif/7Pt6bR5OTk2tVs3+7FxY1s0ZMh2pa3MdZVWaZV296ddsmSJN/A7krYy11VapVXa3ZuWfhFT4XckbWWuq7RKq7S7Ny11PYqrur1pK3NdpVVapd19afmeU9fZtjdtZa6rtEqrtLsv7eL33rOZtzW3Efc8bF9+OsEKCtZWOG1lrrur0maEoDx69GgPb3H66ae7t3D16tV9O/LII+2CCy6wxx57zObMmRNPlhYyic7ZsmXLSjInvr377rtWrVo1y8vLc5WejXRs0W+UtR8/N76/u9OuzMmxKa1b29Q77rBVkyZtV9qyzo3vx8+N7yut0pa3r7Q7Ny3GNdouBOXtTVvevtIqbXn7Srtn09KHYQC6I2nLOje+r7RKW96+0u7etGvWrPH6viNpy9qPnxvfV1qlLW9faXdtWsJdRILy9qYt69z4fvzc+L7SKm15+0q7c9Ku6NPHpte9ygYfc7a9222sLVy4rsJp49eJ7++JtFVeUCa0BWLyXXfdZd26dXOB99NPP/W/f/DBB75AX7Nmzeyhhx7y0BU7m1BiKK8eNsxyTjvNptx2m63OyYkfFkIEAo07VsPoQyCECBempDHlTAgRNtRz6rsQImzov0dOIUKI8FjZt69N+3s9+7LaKfbs/RNs1izFUN6ltGnTxlq1amX9+/d3L2E8cfDAo7HFzRrP5L59+9oNN9xgr7/+ejx5pQlFUF41fLhNPuccm3L77RKUhQgYOqB4N0hkEiJ8ojhnQoiwieIaCiHChv67FuUTIlxW9e9v06+8xgZWO9le7DDeZs9eHz8lo6jygnKTJk2sQ4cOPoW7LBCWly9fbo0bN7YXX3wxfrjShCIor5k61abfd5/NeeopWzd7dvywECIQojYRL2UhRNgQ4wxDuxAibKjn1HchRNjQf6cfr5mGQoTJqkGDbOZ1DW3QwSfbG8+Ptfnz18VPySiqvKDcvn17D3eBhzKiMg1sUVGRb/wfr+V+/frZTTfdZL169YonrzShCMrFBAAfNMjWTJliW9asiR8WQgQCHVDiLMprUYjwYVFiZmsJIcKGek59F0KEDf33aAFOIUR4rB48OCEoVzvRejw91ubNy+x+fJUXlMePH2+tW7e2WrVq2cUXX2y33HKL3X777b41atTIzj//fKtZs6Z16dLF5s6dG09eaUIRlH/autW2FBfbT4hMmkIjRNBEwfKFEGGjui5EdhAtfiOECBvVdSHCZs3QoZZ7/Q02/Df7W8dmY2zaVAnKuxRWNZ46dap98skn1rlzZ3vyySd9Ab6OHTva008/7Qv1ffHFFy4mE29oZxOKoEzc6WgleCFEuFDHV69e7XVeCBE2eC0qrqoQ4UM912wEIcKH/jv9eI3ZhQiTNcOGWe6NN9p3+x1s/3pwpM2Zndmh66q8oBxBJ2rWrFk2YcIEGzVqlI0ePdomT55s8+fP96khu8pLJxRBmTwi9posnkKEjWIoC5E9KIayENmBYigLkR0ohrIQYeOCcpMmNvqgw6znkyNsXm5mh6PNCEGZRhXx+Ouvv3ZvZGImsw0YMMCGDh1q06ZN22UDqlAEZXkoC5EdyENZiOyB73pxcXH8z0KIwKCe76qxjhCi6iAPZSHCZs2IETavaVP77sDD7F/thtmcH1fHT8koqrygTOcJ4bhZs2Z20kkn2cEHH2zVqlXz7bDDDrO//vWvdu+999q4ceN2yaAqFEE5isekj5MQ4aO6LkR2QD1XXRcifFTXhcgOFENZiLBZN3aszW/Z0kbs9xfrcMMgmzYxs2cfVXlBuUePHnbzzTf7wnwIyzk5OZabm2uzZ892Efmjjz7yhfruuOMOGzhwYDx5pQlFUCbkBatD8686pEKEC51QVodWyAshwgcvpl2xfoQQompBPae+CyHChv47/XiJykKEybpx42xB69Y26sC/WPf7B1ruLAnKu5QWLVpY27ZtbeLEiVZUVOSNLA3sli1bvHO1dOlSGz9+vDVu3NheffXVePJKE5KgzMdJgrIQYUPbWFBQsEtmbAghqhaKoSxEdqAYykJkB/Tf6cfTnxdChMf6iRNtYZs2NrraYfbGQwNs3uwV8VMyiiovKDdt2tTat29v8+bNix9yaGw51qhRI3vppZfihytNKIIy+cQHin8lKAsRLtTvNWvWKIayEFkA33XNRhAifKjnMhQLET703+nHa7wuRJisnzzZ8tq3t1F/Psyev6WPzcpZHj8lo6jygnLnzp3t7rvvtq5du9qwYcNs7Nix9sMPP/g2ZswYGzRokHXp0sVatmxpffr0iSevNKEIynh1yztZiPChjlPXNVVOiPBh4CkvJiHCh3ouQ7EQ4aMxuxBhUzx1quU9+KB9d8Bf7PFrP7QZE5bFT8koqrygTKzkhx9+2E455RQ755xzrEGDBtawYUPf6tev74vysVjfW2+9ZUuWLIknrzShCMp8mJgqJ5FJiLChji9fvlxei0JkAQp5IUR2oJAXQmQH9N/px2vMLkSYFE+fbos6drQxBx1mPe/71ObNLIyfklFUeUEZazyLyU2bNs169+5tL7/8sj311FP2zDPPWPfu3a1fv34e8oKFKnaF5V6CshAik5CgLET2IEFZiOxAgrIQ2YEEZSHCZsOPP9riRx+VoLy7oXFlAb4FCxbYnDlzbMaMGTZ9+nSbP39+yUJ9u4JQBGVNnxEiO1DICyGyB+q6Ql4IET7Uc+q7ECJsNGYXImw2zJlj+U8+ad/tf6g9Wa+XzfwhP35KRlHlBeWhQ4faxIkTvSNFA7tixQoXefFSvu++++yBBx6wnj172qxZs3aJR14ognK0KJ8+TkKEDXV8/fr1EpmEyAI2bNggkUmILIB6Tn0XQoQN/Xf68RqzCxEmG3NzLf+ZZ2zUAYda52t62awJEpR3Ka1bt7Zu3bqVrG7cv39/u/32261OnTp26aWX2mWXXWbXXHONi8p4Lu9sQhGUFfJCiOxAIS+EyB4U8kKI7EAhL4TIDhTyQoiw2Th/vi3p3NnGHPgX63XXOzZ/ekH8lIyiygvKCMb333+/N67Lli2zK664wlq1amVff/21W+/4W9euXa1x48b27rvvxpNXmpAEZWJR6+MkRNhEMznktShE+PBdX7duXfzPQojAoJ5T34UQYUP/nX68xuxChMmmvDwr6NLFRh9wsPVs1svmTZWH8i6ltKCcn59vxx57rH300UduqafB5e80utdff709//zz8eSVJhRBmWkz+jAJkR1Q1zVVTojwUV0XIjtQP16I7EB1XYiw2ZSfbwUvvmgj//v31um0Z2z6yPnxUzKKjBCUCXvB1I+CggI7++yz7eOPP7bVq1d7g7t582YXe6+66ip7+umn48krTSiCMvmECK+BpxBhQx2nfaTOCyHCBq9FxVUVInyo55qNIET40H+PdA4hRHhsLiiwpS+/bKP2/rO9fG03mzshL35KRlHlBeWbbrrJLr/8cuvQoYN7Kh911FF211132ZgxYzzkxbRp0+zhhx+2Ro0a2QcffBBPXmlCEZQVQ1mI7EAxlIXIHhRDWYjsQDGUhcgOFENZiLDZXFhoy3r08JAXbzbrYfOnLo6fklFUeUH5zTfftDvuuMMaNmxo9evX98X4brvtNvvqq6+8sR0wYID94x//sJdeeslmzpwZT15pQhGU5aEsRHYgD2Uhsge+6yxYLIQIG+q5jEdChI88lIUImy1FRbasVy8btV91e+UfXWzu+AXxUzKKKi8ol4YGNjc312bNmuViMrGT8VRm4/+7glAE5Sgekz5OQoSP6roQ2QH1XHVdiPBRXRciO1AMZSHCZsuqVVb473/byD8eaE/UfNBmDpsVPyWjyChBGRCV2Who2ZgWwrarGt5QBGVCXrA6NP+qQypEuNAWYmBTyAshwgcvJsJ/CSHChnpOfRdChA39d/rxu0rbEELsWbasWWOF771no/evZr0avWjzJ8lDOWhCEpT5OElQFiJsohjKLOCjui5E2CiGshDZgWIoCxE+9NvpvyuGshDh8h9Bubq9fctLtiBnYfyUjEKCchpCEZS3bNni8df4VyKTEOFC/caTibouhAgbvuuajSBE+FDPFS9diPCh/04/XuN1IcLkp40brejTT23UPgdat/M72NzRs+OnZBQSlNMQiqCMlRPvZFk7hQgbOqCq60JkB4QAk/FIiPChnmuxXSHCJxqzS1AWIlB++slWDhhg3+39Z+tS6x6bPXxm/IyMQoJyGkIRlBXyQojsgI5oYWGhT5kTQoSNQl4IkR0o5IUQ2QH9d/rxcgwRIlBY7+iLL2zM/tXsvUZP2cJJ8+JnZBQSlNMQkqBcVFQkQVmIwMGLKT8/X1NjhcgCJCgLkR1IUBYiO6D/Tj9es4+ECJeVX35pY/58iH1w45OWNyk3fjijkKCchlAEZYW8ECI7iBb0UF0XInz4rmvQKUT4UM+p70KIsKH/roW1hQibFV/0txG/2se6HdvM5g6bGj+cUUhQTkMognK0KJ8+TkKEjRblEyJ7YNApkUmI8KGeK5SVEOGjRfmECJ+i/l/at78/0Hqc3srmjZweP5xRSFBOQyiCMh1RpsrJa1GIsKGOL1++3FeEF0KEjUJeCJEdKOSFENkB/Xf68RqzCxEuRQMH27cHHW29GzxieRPnxA9nFBKU0xCSoLxq1Sp9nIQIHOp4tACnECJs+K6vW7cu/mchRGBQz6nvQoiwof9OP15jdiHCZfnAr23IQcfa+1c9aHnjZsUPZxQSlNMQiqDMtBl9mITIDqjrmionRPiorguRHagfL0R2oLouRPgUfvGVDfpVdeu235U296tx8cMZhQTlNIQiKG/evNmny2ngKUTYUMdXr17tdV4IETZ4LSquqhDhQz3XbAQhwof+O/14jdmFCJdlA7+xwQccZ++ef6ctHK1F+YImFEFZMZSFyA4UQ1mI7EExlIXIDhRDWYjsQDGUhQifZYOG2aC/nGafXHO/LZ7wY/xwRiFBOQ2hCMryUBYiO5CHshDZA9/14uLi+J+FEIFBPZfxSIjwkYeyEOGz9Kth9mW1U+3985pZ3qgp8cMZhQTlNIQiKCsekxDZg+KqCpEdUM9V14UIH9V1IbIDjdmFCJ+CL4dYvz8cZz3/eJHN/3J0/HBGIUE5DaEIyoS8YHVofaCECBvqOKtDU+eFEGGDF9P69evjfxZCBAb1nPouhAgb+u/04zVmFyJcCgYPt/6HnWN9Lmtp+WMVQzloQhKUFUNZiPBRDGUhsgfFUBYiO1AMZSGyA8VQFiJ8Cr75zvofc7F9dvU/bcm46fHDGYUE5TSEIihv2bLF469pupwQYUMdx5OJOi+ECBu+6zIeCRE+1HPFSxcifOi/04/XmF2IcFkyeKR9fuh59tmp19iS4ePihzMKCcppCEVQxsqJl7I+TkKEDXWcui7PBiHCh8V7ZDwSInyo51psV4jw0ZhdiPBBUP6s+rn2+TGX2JIhiqEcNKEIygp5IUR2oJAXQmQPCnkhRHagkBdCZAcKeSFE+CwZOsY+P6GefVn/Dls6bkr8cEYhQTkNEpSFEJmEBGUhsgcJykJkBxKUhcgOJCgLET75Q8da35OulqCcDYQiKGv6jBDZgUJeCJE9UNcV8kKI8KGeU9+FEGGjMbsQ4bP4mzH2yeGXWt+DzrQlg4bHD2cUEpTTEIqgrEX5hMgOtCifENnDhg0bJDIJkQVQz6nvQoiw0aJ8QoTP4iFj7ZMaV1j/GhdZwdBR8cMZhQTlNIQiKNMRXbFihUQmIQJHIS+EyB4U8kKI7EAhL4TIDhTyQojwWTx8vH16RiP75qqmVvjDpPjhjEKCchpCEpTpiGoKjRBhQwcU45G8FoUIn1WrVtm6devifxZCBAb1nPouhAibyAlMgrIQ4bJ4+ET75Mwm9s2ljaxwzPj44YxCgnIaQhGUEZH5MElMFiJ8VNeFyA5U14XIDqJ+vBAibFTXhQifRcPGW+8a19hXvznEln0xKH44o8gIQXnKlCnWrVs3a9q0qdWvX9+uvPJK36699lq78847rVevXpaXlxdPtlMIRVDevHmzT5fTwFOIsKGOr1692uu8ECJs8FpUXFUhwod6rtkIQoQP/Xf68RqzCxEui0ZMso/OvMW+PesSWz5CMZR3KaNHj7bnnnvOWrZsaW3atLH27dtbhw4d7KGHHrJ27drZPffc46Jyjx49bMaMGfHklSYUQTmaPsNHSh8oIcJFMZSFyB4UQ1mI7EAxlIXIDhRDWYjwWTxqivWp3dJGXd3IVvygkBe7lI4dO9qtt95q3bt3t5kzZ3pnioYWS/2yZctswoQJ9uKLL1rjxo3tvffeiydPCeLq3Llzbfr06TZt2rQyt1deecUOOeQQW7BgQckUFMTZyPuPRe7Yjxa74+/sR9NQ+X8Ut3hPpmW12EhQjs6taNrKXFdplVZpd29a2seioiL/d3vTVua6Squ0Srv709InwmtxR9JW5rpKq7RKu3vTrlmzpiSG8vamrcx1lVZplXb3pmXMTj+e/29v2spcV2mVVml3X9rCKbPt21ZP2Ljb7rSVkyZvV9rKXHdXpK3ygnLDhg2tU6dO5Xrg8DDFxcUuKHfu3Dl+OCV0zl599VV79NFHXbgua7vxxhvtmGOOsVmzZnmGci0GcNFUlMhjgAEdmUpnjw3BmwzmGPtVIS37nLsjaStzXaVVWqXdvWmjRfl2JG1lrqu0Squ0uzctdZ3zdiRtZa6rtEqrtLs3LXWdf3ckbWWuq7RKq7S7Py37nLsjaStzXaVVWqXdPWk3FBXZ4m+/tVkvv2pr5+ZuV9rKXHdXpK3ygjLhLFq3bm0//PBD/JCDF97333/vwvPLL78cP5wSMmXSpEn23Xff2fDhw8vcnn/+eTvqqKNs/vz5nqlkXpShZDr/ss/f2ed+2FD1OZ9jkafgnkxL4WD6DOkiD++Kpq3MdZVWaZV296bFs2Hp0qUl52xP2spcV2mVVml3f1q+6xjHdyRtZa6rtEqrtLs3LYM2ROUdSVuZ6yqt0irt7k3LN51Z2Oxvb9rKXFdplVZpd1/aLZs22eqiIlu6YKFtWL9+u9JW5rq7Im2VF5QHDhzogvJVV11lrVq1sscff9xeeOEFF3ofeeQRa9GihdWrV8//TviL7YFMotGmk1be9tFHH9mRRx5ZEkOZNGQg/5a1z/+j/egYW1nnxvd3ZVpeNh3RqDBsT9rKXFdplVZpf35ufH9npqVxLyws9DofPze+H09bmesqrdIq7e5PG3kt7kjaylxXaZW2rH2l3XVpGa9Q33ckbWWuq7RKW9a58X2l3Xlp8fqjHx+dsz1pK3NdpVVapf35ufH9nZkW8TaaVRw/N74fT1uZ6+7stFVeUKZBRVRGML733nt9Ib777rvP2rZt6xv7Tz/9tHsp46q9sxkwYIALyvn5+fFDGQVCMh+oqHAIIcKEOo6XMnVeCBE2fNfxFBBChA31nPouhAgb+u/04zVmFyJsqON81zN9zF7lBeUIYnWMGzfOBg8ebH369LHPPvvMhg4dalOnTnVPvNJK+s4kFEGZ/ImsH0KIcKGOU9cj66EQIlyYkZDpHVEhRHqo59R3IUTYaMwuRHYQypg9YwTlPUUogjKFlRAemV5ghRCpoY4TV1Vei0KED991Ql4IIcImWihHCBE29N/px2vMLkTYUMf5rqPTZTISlNMgQVkIkUlIUBYie5CgLER2IEFZiOxAgrIQ2YEE5SwhFEFZ02eEyA5CmT4jhEgPdV0hL4QIH+p5pg86hRDp0ZhdiOwglDG7BOU0hCIoa1E+IbIDLconRPbAGhISmYQIH+o59V0IETZalE+I7ECL8mUJoQjKCnkhRHagkBdCZA8KeSFEdqCQF0JkBwp5IUR2oJAXWUJIgvKqVav0cRIicKjjK1asyPiPkxAiPXzX161bF/+zECIwqOfUdyFE2NB/px+vMbsQYUMd57ue6WN2CcppCEVQxqVeHyYhsgPquqbKCRE+qutCZAfqxwuRHaiuC5E9hNCPl6CchlAE5c2bN/t0Of7N9EIrhCgf6vfq1au9rgshwgavRcVVFSJ8qOeajSBE+NB/px+v8boQYUMdj/S5TEaCchoGDx5sRx99tLVv394effTRjN06depkHTt21KZNW5ZsDz/8sG/xv2vTpk2bNm3atGnTpq1qbeq7a9OWHRv1/JFHHvF/0eni2l0mbRKU05CTk2MtWrSwf/zjH1a/fv2M3WrXrm01a9a0888/3y699FK7/PLLtWnTFuBWp04dO+qoo+zcc8+1yy677GfHtWnTFs52/PHH22mnnfazv2vTpi2sjXpOfY//XZs2bWFtjNXpx9Ofjx/Tpk1bGBt6HHUdfQ6dLq7dZdImQTlLmDRpkrVu3dp++OEHW7NmTfywECIQWBm6YcOGNmzYMF8pWggRLu3atbM33ngj/mchRGBQz6nvQoiwGTNmjPfj6c8LIcIEPQ5dDn0OnS6TkaCcJUhQFiI7kKAsRPYgQVmI7ECCshDZgQRlIcJHgrLIOCQoC5EdSFAWInuQoCxEdiBBWYjsQIKyEOEjQVlkHBKUhcgOJCgLkT1IUBYiO5CgLER2IEFZiPCRoCwyDgnKQmQHEpSFyB4kKAuRHUhQFiI7kKAsRPhIUBYZhwRlIbIDCcpCZA8SlIXIDiQoC5EdSFAWInwkKIuMQ4KyENmBBGUhsgcJykJkBxKUhcgOJCgLET4SlEXGMXXqVHvwwQdt/PjxEpSFCJiioiJr3ry5jRw5UoKyEIHz+OOP2/vvvx//sxAiMKjn1HchRNiMGzfO+/H054UQYYIehy6HPodOl8lIUM4Sli5dakOHDrXFixdLZBIiYIqLi+3LL7+0hQsX2pYtW+KHhRABgeEo0zuiQoj0UM+p70KIsMnPz/d+PP15IUSYoMehy6HPodNlMhKUhRBCCCGEEEIIIYQQQlQICcpCCCGEEEIIIYQQQgghKoQEZSGEEEIIIYQQQgghhBAVQoKyEEIIIYQQQgghhBBCiAohQVkIIYQQQgghhBBCCCFEhZCgLIQQQgghhBBCCCGEEKJCSFAWQgghhBBCCCGEEEIIUSEkKAshhBBCCCGEEEIIIYSoEBKUhRBCCCGEEEIIIYQQQlQICcpCCCGEEEIIIYQQQgghKoQE5cBZu3atzZgxw4YMGWKDBg2ycePG2apVq+KnCSEyHOr6nDlzvK5/+eWXNnToUJs1a5atX78+fqoQIiAKCgps/vz58T8LITKcn376yTZs2GDTpk3zbzr9+DFjxtiKFStsy5Yt8dOFEBlMUVGRTZ482QYPHmwDBw600aNH29KlS1XXhQiAzZs3W25urn+/+X9pMl2vk6AcOBTI+++/304//XQ7/vjj7frrr7fvvvvONm7cGD9VCJGhbN261SZOnGiPPfaYnXnmmXb00Uf7v4888ohNmTIlfroQIhDohPbu3dteeuml+CEhRIazadMmmz59urVr187OPvtsO+GEE6xevXouODEoFUKEAf14hKTmzZv7eJ1+fJ06daxv374uNAshMheMQhiHnnjiCRsxYsTPxOJM1+skKAfOnXfeabfffrv169fPJk2aZDfeeKM99NBDbvUUQoTB8uXL7eGHH7a//e1v3vmcO3euvfHGG17f27RpEz9dCBEI1PMLL7zQGjRoED8khMhwli1bZldddZV17NjRPZeGDRtmrVu3tvr169v3338fP10IkYEgJq9cudK/4/TbGbNTv2+44Qa79dZbbcCAAfEkQogMgpmEb7/9th188MH2+uuvW2Fh4TbHM12vk6AcKHg14JlIRxQvRQSnNWvWuCcThfTNN9+MJxFCZCjjx4+3f/7zn97x5COFJXTx4sV27733ehuwbt06nzorhAgDvBao961atbIjjzzSrrzyyvgpQogMBg8mBGQ8kz/++GPfX716tfftv/jiC8vPz48nEUJkINFMhMsuu8xFJMbszEDo3r27i8waswuRueBpjPfxpZdear/85S/tlVdecWMxhKLXSVAOFOKmYuXAutmjRw//G/FaiLF6xRVX2DPPPBNPIoTIUObNm+f1nS0Ca2jbtm3tmmuu8RiMEpSFCAO+5YsWLbIHHnjAOnTo4DMTJCgLERYYhRlM1q5d2x5//HEXl15++WUXl7U+ghDhEDmBXH311e4IQv3mG//kk0/aTTfd5OKSECIzYQ2Ed9991+vzAQcc4N/ySFAORa+ToBwoxFWkI0ospg8//ND/hqDE3y+//HLr1KlTPIkQIoPBY5EPE1PniNP0/vvv+xQaLJ5CiHDAWISohPcCIW7uuusuCcpCBAaL9zCYPPfcc91LsWnTpl7nb7nlFh+cykNZiLDACeTaa6/1EDddu3a1iy++2D2Wia8qhMhs+GbXrFnTevbsWSIoh6LXSVAOFNzl8WS47bbbSgooIDZh8ciUAiqEqDhMncHLgTrPh+juu+9WR1SIgKCOMw2emQd9+vRxTyYGoRKUhQgL6jazEPbZZx83DE+dOtVycnJ8VsJZZ51lQ4cO1cwjIQKAesy3nb47i25S5/fff3+Pt/rWW2/9LN6qECLzKEtQDkWvk6AcKMRM/fe//20tWrQoKaAUTmKwEaMpUwqoEKLiTJ482b2XzjzzTHvuued8AJopK8QKIdIzYcIEr9vETF+yZInHW5OgLER4IChHi+2yIB+CE9uPP/5o1atX92nwxcXF8WRCiAyDes23vUmTJta+fXtfkI+Yyl26dLHrrrsuY+KoCiHKpyxBORS9ToJyoNDJ/Oqrr6xx48ZecCEK+k/gbwakQohwGDhwoC/QRZiLzz77zObOnasYi0IERv/+/X1KbI0aNdyTiY3/48lErEUGong8CCEyG2Ko9urVy+v4qFGjtvn7gQceaO+9956+8UIEANPbGasjKhHOhnrNmH3BggVWt25dn6Ggui5EZlOWoByKXidBOVAI8D9//nxr2LChf4iIucgH67XXXvM4bB988EE8iRAiQ6HTyaI9BPX/8ssvfSV4gvqzYekUQoQBi3vgrfTYY4/59uCDD9oFF1xgJ5xwgnXu3NlmzpypgacQAUCfHQPR+eef7332oqIin/r+6aef2oknnmgDBgzwb7wQIrPBS/Gdd95xo/Arr7zidZ3ZhYSsu/TSS/1bz+LaQojMpSxBORS9ToJy4PARat26tXs5sHgP0+EZdDI1XggRBlg3mSqHJwOLdZXeRowYoUGnEIGyYsUKa9eundWvXz9+SAiR4RDShm87C3MhOBFPtWXLlr4+wpQpU+KnCyEyEDwSGZdTt1lklynwjNmJl864nb68ECKzKUtQjsh0vU6CcuBEq0Sfd955HleV6TQTJ050i4gQIgyIpci0WBbxiG/XX3+9T4HX4j1ChMfKlSt9dgKdTyFEWCA0sRAfQtNpp51mZ5xxhq8GP2PGDMVPFiIwBg8e7OP0WrVq2bHHHuuLcn3++eduWBJCZDZLly61Cy+80N5///2f1elM1+skKAcOnolMf8eFno1pNHRQhRDhwHQ5rJ3EVoxvTJGVmCxEmESLd8Q7p0KIzIdvN312ZiKwCGfUj6dvr++6EGGBkYj6TV3Hm5F+PSGsFLpOiMyHeoyozJg9XqczXa+ToCyEEEIIIYQQQgghhBCiQkhQFkIIIYQQQgghhBBCCFEhJCgLIYQQQgghhBBCCCGEqBASlIUQQgghhBBCCCGEEEJUCAnKQgghhBBCCCGEEEIIISqEBGUhhBBCCCGEEEIIIYQQFUKCshBCCCGEEEIIIYQQQogKIUFZCCGEEEIIIYQQQgghRIWQoCyEEEIIIYQQQgghhBCiQkhQFkIIIYQQQgghhBBCCFEhJCgLIYQQQgghhBBCCCGEqBASlIUQQgghhBBCCCGEEEJUCAnKQgghhBBCCCGEEEIIISqEBGUhhBBCCCGEEEIIIYQQFUKCshBCCCGEEEIIIYQQQogKIUFZCCGEEEIIIYQQQgghRIWQoCyEEEIIIYQQQgghhBCiQkhQFkIIIYQQQgghhBBCCFEhJCgLIYQQQgghhBBCCCGEqBASlIUQQgghhBBCCCGEEEJUCAnKQgghhBBCCCGEEEIIISqEBGUhhBBCCCGEEEIIIYQQFUKCshBCCCGEEEIIIYQQQogKIUFZCCGEEEIExZo1ayw/P98WLVr0s23JkiW2adMm27x5s61evdpWrlwZT17l2Lp1qxUUFNiGDRvih/zYqlWr/Ln4l/3yjvOsPDe/U1hYaBs3btzm3MpCfq5fvz7+ZyGEEEIIERgSlIUQQgghRFB07drVjjjiCDvwwAN/tp144ok2YcIEmzlzpj333HP24IMPxpNXORCTzzvvPBsyZEj8kBUVFVnHjh3t5JNPtk6dOrl4XBr2n3jiCTv11FOtQ4cONmfOHBs6dKj94x//sNGjR29zbmUhPz/55JP4n4UQQgghRGBIUBZCCCGEEEHx1FNP2RlnnGHdunWzPn362Oeff16yffXVV7ZixQqbNWuWC7EtW7aMJ69y4G1do0YN+/LLL+OH3NO4devW9tvf/tYuvvhiW7p06TbH2b/kkkvsd7/7nd111102f/58F5X//e9/+/93Jo0aNbJnn302/mchhBBCCBEYEpSFEEIIIURQIChfdtllNnXqVA9vURZz5879maCM1/JHH33knrZPPvmkvfrqq5aTk2Pr1q1zT99x48bZxx9/bD179rQXXnjBz3vnnXcsLy+vJHwEoSU+/fRTP8Z9INxOmjSp5Bp4Gw8aNMheeukl69y5s7333nsubkfhLPgdrvPGG2/4b3Ctzz77zA4//PByBeV7773X9tprL7vwwgs9LfcLhJ+YOHGi/33vvfe2e+65x3Jzcz1feL4ZM2bY2rVrbfLkyX69Dz/80P71r3/Z008/XSI4b9myxUVpvKO579LXxdOZv3EdnrlWrVr297//3b744gtPt3DhQs+vF1980b3G+/bt689P2A1Il1dCCCGEEKJqIkFZCCGEEEIExY4IyoiceDQ3btzYrr76arvyyivtb3/7mwusP/74o4vGCMwXXXSRXX755R4yon79+tagQQMXY4nPTAxhBNZrrrmm5Dc4j/tBuEUsRmBF2L3hhhusYcOGfj1+F3GX4wi+7dq1s+uvv96uvfZau+WWW6x58+Z20EEHlSsot23b1gVnznv99dddyIXFixe7SHvbbbfZkUce6efxLF9//bVdcMEF9u2337rA++abb9rxxx9vTZs29fupXbu2XXXVVdarVy+/72nTpnle3XfffSXXRXx/5JFH/G88N+I41zjllFM8HwnF8corr/g98ax4L99+++32wQcfuMd1qrxCEP/pp59KPaUQQgghhKhKSFAWQgghhBBBgShJ+Ae8avGyjRbkQ2BFQGWhutKCcrRwXZMmTTymMmk4D7H01ltvdQ9hBGXE5T/96U8ei3j69Okuzj766KMeXoNr4c38+OOP2/nnn+/HScNxhGOuh9CLSPzPf/7TBVkWycNT+YorrrAePXr4NfFYPuGEE+ytt95y4XX48OHu9bv//vunFJTPPPNMF4ARbYkRDXget2rVyn/7rLPOKldQxnv4D3/4g3tdL1iwwEaMGOFhNBDOly1bllZQjqhbt649/PDDVlxc7J7RiNSIyzw355NvxILmmRD7y8urefPmuYezEEIIIYSomkhQFkIIIYQQQYGgTIiHfffdd5sF+apXr25//etfXUQtLSjjDYt3MH9DdEYQRVht37693XjjjR4GA8ETj1uEWTxr8Xxmw7P4mGOOsbffftu+++47/00W/uvfv7+HikA0Xr58uXvkEt6hRYsWHiYDj2iEbARhBGXEVURWvJfZEIMRVQkL8e6779phhx2WUlBG/CXNaaedZoMHD/ZnQuTmecePH+9ib3mCMh7SLGI4e/Zsvy/yAE9nzuEZtldQJq9Ij5f1qFGj/DnI3ylTpvhzkDf8v7y8kpgshBBCCFG1kaAshBBCCCGCorxF+fr162fffPONxyuOh7xA3EXYRBC988473bO3Xr16HtaC2MKIpN27d/fwDGPGjCm5FoIvIvNrr73m4jIiLYvf4YnMxjWINcxCgHgC4zldp04dF5bZmjVrZqeeeqrfM57BeEnjKUzoCyD8w+jRoz2cRCpBmftECEZYRrDGWxqR+9JLL3XvbMJJlCcoE6eZe8AjGhB38ZDGm5jj2ysoI0zjjUxMZUJaRM9600032VFHHeXvgmuUlVfDhg0r+T0hhBBCCFE1kaAshBBCCCGCYntjKHMOYRfwSEZIZhE5BGIWu8NDORKU+RsiM163EQjKeAUjNvObc+bM8UXpELMfeughD5lBGI3vv//ew1sg+BKrGHE52hBhBwwY4MIxx5555hn/LSCGMZ7P6QRlhG7CdvBMpOd3WXiPeMx4/iLYlicoEyoj8twGwlwQezmVoMzieTxXeYJyp06d/De5ZvScPP/999/v4TDw2Ca0Bc/08ssvb5NXiNXRwn1CCCGEEKLqIUFZCCGEEEIExfYKyngB9+7d271pEZOj0AssNIfAGwnKCJ943bKw3po1a1zsRVyuWbOmLzbH9RBrEZQJm4HY/MQTT7jYy++TDi9dQmeQHtEU8ZVQGISlQOxFkOWa/C5hIqJQG4ceemhaQZlrEu7i7rvv9kX1eLboXrZXUMa7ubSgTFq8qfktwmngZcxif2UJynhK4+FM7OevvvrK0/C8hORAqCZGNXGV8UYeOHDgz/KK316/fn2ppxRCCCGEEFUJCcpCCCGEECIookX5CDWBeInAGW2EdUBARsgtLSi///771qhRI3v22WfdW3ns2LEeJgKPYsRVBGgW5dtnn32sTZs2LviyIbRyLcJV4IX8wAMPeExkRFiugUhKLGE8kAljgccz1xw5cqTNmjXLw0bccMMNfv2ioiIXgE8++WT36OU+EIjxij7ggAPSCsqE7UAM5xoHH3ywL3BHaAn+nk5QPvvss8sVlEnDPROqgwX/ELn5LRbUKy0ocw94eZPHeDDjuY23NGl4Xhb64xzyNlVeRSK0EEIIIYSomkhQFkIIIYQQQYGg/Kc//clF2GrVqrm4Gm3HH3+8i6WIwaUX5UNURiQlljAbYjIhGi688EJr3ry59e3b10NeIKrieYsAy4JyCM4IvXg0E5sZsZZjLNRHmIqLLrrInn/+effQjY5zzZNOOslq1KjhYvR7773nImy0SN9zzz1ntWvXthNOOMG9fgkfwb2nE5SB30DURQwm3AX7UBlBGU9qvLSJx/yXv/zFDj/8cLvyyitdDC4tKBM3md/h+RDHSXPdddf5c5BXeIBzTUJz4H1dXl7h+c07EUIIIYQQVRMJykIIIYQQIijwdsUjmEX4og3PXza8X4ndiwBMrF4Wr4vAIxivZoROBGe8m4lfTMxfzuvRo4d7MbPoHecNGjTI4x4jnkYxf/ldvJUJ5cA94JmLZzICKRuL8/FbeB5zDscRk6PQHFu2bPH74+/8PtfneTgfb+M4CLN4+P7www8lf2NxQO6ffyPGjRvn5yHWIhjzu9wr6RcsWODXQ/COfhMvZM7h/0BIChYjZOFCNjyM8TTmNyMQqxGM8UgmP7hfzuE5uH/+j5jMMwL5Vl5eCSGEEEKIqosEZSGEEEIIIdKAwPr666/bzTff7PGOhRBCCCGEyFYkKAshhBBCCJEGQj/06dPHYx6X9vwVQgghhBAi2/j/AYb2OEmojgLxAAAAAElFTkSuQmCC;" vertex="1" parent="sMdf8q2byq05eDScM7gP-1">
          <mxGeometry x="190" y="190" width="645.8" height="192.5" as="geometry" />
        </mxCell>
        <mxCell id="sMdf8q2byq05eDScM7gP-57" value="" style="group" vertex="1" connectable="0" parent="sMdf8q2byq05eDScM7gP-1">
          <mxGeometry x="180" y="50" width="660" height="30" as="geometry" />
        </mxCell>
        <mxCell id="sMdf8q2byq05eDScM7gP-45" value="Whether to Enable Hot Loading:" style="text;html=1;align=center;verticalAlign=middle;whiteSpace=wrap;rounded=0;" vertex="1" parent="sMdf8q2byq05eDScM7gP-57">
          <mxGeometry width="137.5" height="30" as="geometry" />
        </mxCell>
        <mxCell id="sMdf8q2byq05eDScM7gP-46" value="&lt;font style=&quot;font-size: 12px;&quot;&gt;Enable Memory Mode&lt;/font&gt;" style="strokeWidth=1;shadow=0;dashed=0;align=center;html=1;shape=mxgraph.mockup.forms.comboBox;strokeColor=#999999;fillColor=#ddeeff;align=left;fillColor2=#B0B0B0;mainText=;fontColor=#666666;fontSize=17;spacingLeft=3;" vertex="1" parent="sMdf8q2byq05eDScM7gP-57">
          <mxGeometry x="137.5" y="5" width="162.5" height="20" as="geometry" />
        </mxCell>
        <mxCell id="sMdf8q2byq05eDScM7gP-47" value="Dump Interval Time:" style="text;html=1;align=center;verticalAlign=middle;whiteSpace=wrap;rounded=0;" vertex="1" parent="sMdf8q2byq05eDScM7gP-57">
          <mxGeometry x="288.75" width="137.5" height="30" as="geometry" />
        </mxCell>
        <mxCell id="sMdf8q2byq05eDScM7gP-49" value="(s)" style="text;html=1;align=center;verticalAlign=middle;whiteSpace=wrap;rounded=0;" vertex="1" parent="sMdf8q2byq05eDScM7gP-57">
          <mxGeometry x="488.75000000000006" width="27.500000000000004" height="30" as="geometry" />
        </mxCell>
        <mxCell id="sMdf8q2byq05eDScM7gP-50" value="Top-K:" style="text;html=1;align=center;verticalAlign=middle;whiteSpace=wrap;rounded=0;" vertex="1" parent="sMdf8q2byq05eDScM7gP-57">
          <mxGeometry x="495.00000000000006" width="82.5" height="30" as="geometry" />
        </mxCell>
        <mxCell id="sMdf8q2byq05eDScM7gP-51" value="10" style="strokeWidth=1;shadow=0;dashed=0;align=center;html=1;shape=mxgraph.mockup.forms.rrect;rSize=0;strokeColor=#999999;fontColor=#666666;align=left;spacingLeft=5;resizeWidth=1;" vertex="1" parent="sMdf8q2byq05eDScM7gP-57">
          <mxGeometry x="563.75" y="2.5" width="68.75" height="25" as="geometry" />
        </mxCell>
        <mxCell id="sMdf8q2byq05eDScM7gP-52" value="(%)" style="text;html=1;align=center;verticalAlign=middle;whiteSpace=wrap;rounded=0;" vertex="1" parent="sMdf8q2byq05eDScM7gP-57">
          <mxGeometry x="632.5" width="27.500000000000004" height="30" as="geometry" />
        </mxCell>
        <mxCell id="sMdf8q2byq05eDScM7gP-48" value="300" style="strokeWidth=1;shadow=0;dashed=0;align=center;html=1;shape=mxgraph.mockup.forms.rrect;rSize=0;strokeColor=#999999;fontColor=#666666;align=left;spacingLeft=5;resizeWidth=1;" vertex="1" parent="sMdf8q2byq05eDScM7gP-57">
          <mxGeometry x="420" y="2.5" width="68.75" height="25" as="geometry" />
        </mxCell>
        <mxCell id="sMdf8q2byq05eDScM7gP-58" value="" style="group" vertex="1" connectable="0" parent="sMdf8q2byq05eDScM7gP-1">
          <mxGeometry x="510" y="100" width="210" height="20" as="geometry" />
        </mxCell>
        <mxCell id="sMdf8q2byq05eDScM7gP-4" value="&lt;font style=&quot;font-size: 10px;&quot;&gt;startup&lt;/font&gt;" style="rounded=1;whiteSpace=wrap;html=1;fillColor=#eeeeee;strokeColor=#36393d;" vertex="1" parent="sMdf8q2byq05eDScM7gP-58">
          <mxGeometry width="50" height="20" as="geometry" />
        </mxCell>
        <mxCell id="sMdf8q2byq05eDScM7gP-5" value="&lt;span style=&quot;font-size: 10px;&quot;&gt;shutdown&lt;/span&gt;" style="rounded=1;whiteSpace=wrap;html=1;fillColor=#f5f5f5;strokeColor=#666666;gradientColor=#b3b3b3;" vertex="1" parent="sMdf8q2byq05eDScM7gP-58">
          <mxGeometry x="80" width="50" height="20" as="geometry" />
        </mxCell>
        <mxCell id="sMdf8q2byq05eDScM7gP-6" value="&lt;span style=&quot;font-size: 10px;&quot;&gt;restart&lt;/span&gt;" style="rounded=1;whiteSpace=wrap;html=1;fillColor=#f5f5f5;strokeColor=#666666;gradientColor=#b3b3b3;" vertex="1" parent="sMdf8q2byq05eDScM7gP-58">
          <mxGeometry x="160" width="50" height="20" as="geometry" />
        </mxCell>
        <mxCell id="sMdf8q2byq05eDScM7gP-60" value="" style="group" vertex="1" connectable="0" parent="sMdf8q2byq05eDScM7gP-1">
          <mxGeometry x="15" y="80" width="150" height="250" as="geometry" />
        </mxCell>
        <mxCell id="sMdf8q2byq05eDScM7gP-20" value="********" style="strokeWidth=1;shadow=0;dashed=0;align=center;html=1;shape=mxgraph.mockup.forms.rrect;rSize=0;strokeColor=#999999;fontColor=#666666;align=left;spacingLeft=5;resizeWidth=1;" vertex="1" parent="sMdf8q2byq05eDScM7gP-60">
          <mxGeometry y="225" width="150" height="25" as="geometry" />
        </mxCell>
        <mxCell id="sMdf8q2byq05eDScM7gP-19" value="192.168.126.10" style="strokeWidth=1;shadow=0;dashed=0;align=center;html=1;shape=mxgraph.mockup.forms.rrect;rSize=0;strokeColor=#999999;fontColor=#666666;align=left;spacingLeft=5;resizeWidth=1;" vertex="1" parent="sMdf8q2byq05eDScM7gP-60">
          <mxGeometry y="60" width="150" height="25" as="geometry" />
        </mxCell>
        <mxCell id="sMdf8q2byq05eDScM7gP-22" value="22584" style="strokeWidth=1;shadow=0;dashed=0;align=center;html=1;shape=mxgraph.mockup.forms.rrect;rSize=0;strokeColor=#999999;fontColor=#666666;align=left;spacingLeft=5;resizeWidth=1;" vertex="1" parent="sMdf8q2byq05eDScM7gP-60">
          <mxGeometry y="115" width="150" height="25" as="geometry" />
        </mxCell>
        <mxCell id="sMdf8q2byq05eDScM7gP-23" value="sys" style="strokeWidth=1;shadow=0;dashed=0;align=center;html=1;shape=mxgraph.mockup.forms.rrect;rSize=0;strokeColor=#999999;fontColor=#666666;align=left;spacingLeft=5;resizeWidth=1;" vertex="1" parent="sMdf8q2byq05eDScM7gP-60">
          <mxGeometry y="170" width="150" height="25" as="geometry" />
        </mxCell>
        <mxCell id="sMdf8q2byq05eDScM7gP-26" value="&lt;b&gt;Connect to the Database&lt;/b&gt;" style="text;html=1;align=center;verticalAlign=middle;whiteSpace=wrap;rounded=0;" vertex="1" parent="sMdf8q2byq05eDScM7gP-60">
          <mxGeometry width="150" height="30" as="geometry" />
        </mxCell>
        <mxCell id="sMdf8q2byq05eDScM7gP-28" value="Sever Address:" style="text;html=1;align=left;verticalAlign=middle;whiteSpace=wrap;rounded=0;" vertex="1" parent="sMdf8q2byq05eDScM7gP-60">
          <mxGeometry y="30" width="115" height="30" as="geometry" />
        </mxCell>
        <mxCell id="sMdf8q2byq05eDScM7gP-29" value="Port:" style="text;html=1;align=left;verticalAlign=middle;whiteSpace=wrap;rounded=0;" vertex="1" parent="sMdf8q2byq05eDScM7gP-60">
          <mxGeometry y="85" width="115" height="30" as="geometry" />
        </mxCell>
        <mxCell id="sMdf8q2byq05eDScM7gP-30" value="Username:" style="text;html=1;align=left;verticalAlign=middle;whiteSpace=wrap;rounded=0;" vertex="1" parent="sMdf8q2byq05eDScM7gP-60">
          <mxGeometry y="140" width="115" height="30" as="geometry" />
        </mxCell>
        <mxCell id="sMdf8q2byq05eDScM7gP-31" value="Passward:" style="text;html=1;align=left;verticalAlign=middle;whiteSpace=wrap;rounded=0;" vertex="1" parent="sMdf8q2byq05eDScM7gP-60">
          <mxGeometry y="195" width="115" height="30" as="geometry" />
        </mxCell>
      </root>
    </mxGraphModel>
  </diagram>
</mxfile>
